26F Galaxy Sans-Regular.ufo
<glyph name="exclam" format="2">
	<advance width="350"/>
	<unicode hex="0021"/>
	<outline>
		<contour>
			<point x="175" y="0" type="curve" smooth="yes"/>
			<point x="216" y="0"/>
			<point x="250" y="34"/>
			<point x="250" y="75" type="curve" smooth="yes"/>
			<point x="250" y="116"/>
			<point x="216" y="150"/>
			<point x="175" y="150" type="curve" smooth="yes"/>
			<point x="134" y="150"/>
			<point x="100" y="116"/>
			<point x="100" y="75" type="curve" smooth="yes"/>
			<point x="100" y="34"/>
			<point x="134" y="0"/>
		</contour>
		<contour>
			<point x="115" y="1340" type="curve" smooth="yes"/>
			<point x="115" y="413" type="line" smooth="yes"/>
			<point x="115" y="380"/>
			<point x="142" y="353"/>
			<point x="175" y="353" type="curve" smooth="yes"/>
			<point x="208" y="353"/>
			<point x="235" y="380"/>
			<point x="235" y="413" type="curve" smooth="yes"/>
			<point x="235" y="1340" type="line" smooth="yes"/>
			<point x="235" y="1373"/>
			<point x="208" y="1400"/>
			<point x="175" y="1400" type="curve" smooth="yes"/>
			<point x="142" y="1400"/>
			<point x="115" y="1373"/>
		</contour>
	</outline>
</glyph>
<glyph name="numbersign" format="2">
	<advance width="1205"/>
	<unicode hex="0023"/>
	<outline>
		<contour>
			<point x="1045" y="893" type="curve" smooth="yes"/>
			<point x="1078" y="893"/>
			<point x="1105" y="920"/>
			<point x="1105" y="953" type="curve" smooth="yes"/>
			<point x="1105" y="986"/>
			<point x="1078" y="1013"/>
			<point x="1045" y="1013" type="curve" smooth="yes"/>
			<point x="1012" y="1013"/>
			<point x="985" y="986"/>
			<point x="985" y="953" type="curve" smooth="yes"/>
			<point x="985" y="920"/>
			<point x="1012" y="893"/>
		</contour>
		<contour>
			<point x="160" y="387" type="curve" smooth="yes"/>
			<point x="193" y="387"/>
			<point x="220" y="414"/>
			<point x="220" y="447" type="curve" smooth="yes"/>
			<point x="220" y="480"/>
			<point x="193" y="507"/>
			<point x="160" y="507" type="curve" smooth="yes"/>
			<point x="127" y="507"/>
			<point x="100" y="480"/>
			<point x="100" y="447" type="curve" smooth="yes"/>
			<point x="100" y="414"/>
			<point x="127" y="387"/>
		</contour>
		<contour>
			<point x="455" y="60" type="curve"/>
			<point x="455" y="1340" type="line"/>
			<point x="455" y="1373.137"/>
			<point x="428.137" y="1400"/>
			<point x="395" y="1400" type="curve"/>
			<point x="361.863" y="1400"/>
			<point x="335" y="1373.137"/>
			<point x="335" y="1340" type="curve"/>
			<point x="335" y="60" type="line"/>
			<point x="335" y="26.863"/>
			<point x="361.863" y="0"/>
			<point x="395" y="0" type="curve"/>
			<point x="428.137" y="0"/>
			<point x="455" y="26.863"/>
		</contour>
		<contour>
			<point x="160" y="893" type="curve" smooth="yes"/>
			<point x="193" y="893"/>
			<point x="220" y="920"/>
			<point x="220" y="953" type="curve" smooth="yes"/>
			<point x="220" y="986"/>
			<point x="193" y="1013"/>
			<point x="160" y="1013" type="curve" smooth="yes"/>
			<point x="127" y="1013"/>
			<point x="100" y="986"/>
			<point x="100" y="953" type="curve" smooth="yes"/>
			<point x="100" y="920"/>
			<point x="127" y="893"/>
		</contour>
		<contour>
			<point x="1045" y="387" type="curve" smooth="yes"/>
			<point x="1078" y="387"/>
			<point x="1105" y="414"/>
			<point x="1105" y="447" type="curve" smooth="yes"/>
			<point x="1105" y="480"/>
			<point x="1078" y="507"/>
			<point x="1045" y="507" type="curve" smooth="yes"/>
			<point x="1012" y="507"/>
			<point x="985" y="480"/>
			<point x="985" y="447" type="curve" smooth="yes"/>
			<point x="985" y="414"/>
			<point x="1012" y="387"/>
		</contour>
		<contour>
			<point x="871" y="60" type="curve"/>
			<point x="871" y="1340" type="line"/>
			<point x="871" y="1373.137"/>
			<point x="844.137" y="1400"/>
			<point x="811" y="1400" type="curve"/>
			<point x="777.863" y="1400"/>
			<point x="751" y="1373.137"/>
			<point x="751" y="1340" type="curve"/>
			<point x="751" y="60" type="line"/>
			<point x="751" y="26.863"/>
			<point x="777.863" y="0"/>
			<point x="811" y="0" type="curve"/>
			<point x="844.137" y="0"/>
			<point x="871" y="26.863"/>
		</contour>
	</outline>
</glyph>
<glyph name="dollar" format="2">
	<advance width="1166"/>
	<unicode hex="0024"/>
	<outline>
		<contour>
			<point x="620" y="-292" type="curve" smooth="yes"/>
			<point x="620" y="-152" type="line" smooth="yes"/>
			<point x="620" y="-119"/>
			<point x="593" y="-92"/>
			<point x="560" y="-92" type="curve" smooth="yes"/>
			<point x="527" y="-92"/>
			<point x="500" y="-119"/>
			<point x="500" y="-152" type="curve" smooth="yes"/>
			<point x="500" y="-292" type="line" smooth="yes"/>
			<point x="500" y="-325"/>
			<point x="527" y="-352"/>
			<point x="560" y="-352" type="curve" smooth="yes"/>
			<point x="593" y="-352"/>
			<point x="620" y="-325"/>
		</contour>
		<component base="S"/>
		<contour>
			<point x="620" y="1552" type="curve" smooth="yes"/>
			<point x="620" y="1692" type="line" smooth="yes"/>
			<point x="620" y="1725"/>
			<point x="593" y="1752"/>
			<point x="560" y="1752" type="curve" smooth="yes"/>
			<point x="527" y="1752"/>
			<point x="500" y="1725"/>
			<point x="500" y="1692" type="curve" smooth="yes"/>
			<point x="500" y="1552" type="line" smooth="yes"/>
			<point x="500" y="1519"/>
			<point x="527" y="1492"/>
			<point x="560" y="1492" type="curve" smooth="yes"/>
			<point x="593" y="1492"/>
			<point x="620" y="1519"/>
		</contour>
	</outline>
</glyph>
<glyph name="percent" format="2">
	<advance width="1445"/>
	<unicode hex="0025"/>
	<outline>
		<contour>
			<point x="450" y="820" type="curve" smooth="yes"/>
			<point x="323" y="820"/>
			<point x="220" y="923"/>
			<point x="220" y="1050" type="curve" smooth="yes"/>
			<point x="220" y="1177"/>
			<point x="323" y="1280"/>
			<point x="450" y="1280" type="curve" smooth="yes"/>
			<point x="483" y="1280"/>
			<point x="510" y="1307"/>
			<point x="510" y="1340" type="curve" smooth="yes"/>
			<point x="510" y="1373"/>
			<point x="483" y="1400"/>
			<point x="450" y="1400" type="curve" smooth="yes"/>
			<point x="257" y="1400"/>
			<point x="100" y="1243"/>
			<point x="100" y="1050" type="curve" smooth="yes"/>
			<point x="100" y="857"/>
			<point x="257" y="700"/>
			<point x="450" y="700" type="curve" smooth="yes"/>
			<point x="483" y="700"/>
			<point x="510" y="727"/>
			<point x="510" y="760" type="curve" smooth="yes"/>
			<point x="510" y="793"/>
			<point x="483" y="820"/>
		</contour>
		<contour>
			<point x="1130" y="1375" type="curve" smooth="yes"/>
			<point x="218" y="95" type="line" smooth="yes"/>
			<point x="211" y="85"/>
			<point x="206" y="73"/>
			<point x="206" y="60" type="curve" smooth="yes"/>
			<point x="206" y="27"/>
			<point x="233" y="0"/>
			<point x="266" y="0" type="curve" smooth="yes"/>
			<point x="286" y="0"/>
			<point x="304" y="10"/>
			<point x="315" y="25" type="curve" smooth="yes"/>
			<point x="1227" y="1305" type="line" smooth="yes"/>
			<point x="1234" y="1315"/>
			<point x="1239" y="1327"/>
			<point x="1239" y="1340" type="curve" smooth="yes"/>
			<point x="1239" y="1373"/>
			<point x="1212" y="1400"/>
			<point x="1179" y="1400" type="curve" smooth="yes"/>
			<point x="1159" y="1400"/>
			<point x="1141" y="1390"/>
		</contour>
		<contour>
			<point x="995" y="580" type="curve" smooth="yes"/>
			<point x="1122" y="580"/>
			<point x="1225" y="477"/>
			<point x="1225" y="350" type="curve" smooth="yes"/>
			<point x="1225" y="223"/>
			<point x="1122" y="120"/>
			<point x="995" y="120" type="curve" smooth="yes"/>
			<point x="962" y="120"/>
			<point x="935" y="93"/>
			<point x="935" y="60" type="curve" smooth="yes"/>
			<point x="935" y="27"/>
			<point x="962" y="0"/>
			<point x="995" y="0" type="curve" smooth="yes"/>
			<point x="1188" y="0"/>
			<point x="1345" y="157"/>
			<point x="1345" y="350" type="curve" smooth="yes"/>
			<point x="1345" y="543"/>
			<point x="1188" y="700"/>
			<point x="995" y="700" type="curve" smooth="yes"/>
			<point x="962" y="700"/>
			<point x="935" y="673"/>
			<point x="935" y="640" type="curve" smooth="yes"/>
			<point x="935" y="607"/>
			<point x="962" y="580"/>
		</contour>
	</outline>
</glyph>
<glyph name="ampersand" format="2">
	<advance width="1040"/>
	<unicode hex="0026"/>
	<outline>
		<contour>
			<point x="636" y="120" type="curve"/>
			<point x="430" y="120" type="line"/>
			<point x="286" y="120"/>
			<point x="170" y="236"/>
			<point x="170" y="380" type="curve"/>
			<point x="170" y="524"/>
			<point x="286" y="640"/>
			<point x="430" y="640" type="curve"/>
			<point x="550" y="640" type="line"/>
			<point x="550" y="760" type="line"/>
			<point x="430" y="760" type="line"/>
			<point x="219.894" y="760"/>
			<point x="50" y="590.106"/>
			<point x="50" y="380" type="curve"/>
			<point x="50" y="169.894"/>
			<point x="219.894" y="0"/>
			<point x="430" y="0" type="curve"/>
			<point x="636" y="0" type="line"/>
			<point x="669.137" y="0"/>
			<point x="696" y="26.863"/>
			<point x="696" y="60" type="curve"/>
			<point x="696" y="93.137"/>
			<point x="669.137" y="120"/>
		</contour>
		<contour>
			<point x="940" y="54" type="curve"/>
			<point x="940" y="826" type="line"/>
			<point x="940" y="859.137"/>
			<point x="913.137" y="886"/>
			<point x="880" y="886" type="curve"/>
			<point x="846.863" y="886"/>
			<point x="820" y="859.137"/>
			<point x="820" y="826" type="curve"/>
			<point x="820" y="54" type="line"/>
			<point x="820" y="20.863"/>
			<point x="846.863" y="-6"/>
			<point x="880" y="-6" type="curve"/>
			<point x="913.137" y="-6"/>
			<point x="940" y="20.863"/>
		</contour>
		<contour>
			<point x="880" y="1400" type="curve"/>
			<point x="530" y="1400" type="line"/>
			<point x="319.894" y="1400"/>
			<point x="150" y="1230.106"/>
			<point x="150" y="1020" type="curve"/>
			<point x="150" y="809.894"/>
			<point x="319.894" y="640"/>
			<point x="530" y="640" type="curve"/>
			<point x="616" y="640" type="line"/>
			<point x="649.137" y="640"/>
			<point x="676" y="666.863"/>
			<point x="676" y="700" type="curve"/>
			<point x="676" y="733.137"/>
			<point x="649.137" y="760"/>
			<point x="616" y="760" type="curve"/>
			<point x="530" y="760" type="line"/>
			<point x="386" y="760"/>
			<point x="270" y="876"/>
			<point x="270" y="1020" type="curve"/>
			<point x="270" y="1164"/>
			<point x="386" y="1280"/>
			<point x="530" y="1280" type="curve"/>
			<point x="880" y="1280" type="line"/>
			<point x="913.137" y="1280"/>
			<point x="940" y="1306.863"/>
			<point x="940" y="1340" type="curve"/>
			<point x="940" y="1373.137"/>
			<point x="913.137" y="1400"/>
		</contour>
	</outline>
</glyph>
<glyph name="quotesingle" format="2">
	<advance width="320"/>
	<unicode hex="0027"/>
	<outline>
		<contour>
			<point x="100" y="1540" type="curve"/>
			<point x="100" y="1225" type="line"/>
			<point x="100" y="1191.863"/>
			<point x="126.863" y="1165"/>
			<point x="160" y="1165" type="curve"/>
			<point x="193.137" y="1165"/>
			<point x="220" y="1191.863"/>
			<point x="220" y="1225" type="curve"/>
			<point x="220" y="1540" type="line"/>
			<point x="220" y="1573.137"/>
			<point x="193.137" y="1600"/>
			<point x="160" y="1600" type="curve"/>
			<point x="126.863" y="1600"/>
			<point x="100" y="1573.137"/>
		</contour>
	</outline>
</glyph>
<glyph name="parenleft" format="2">
	<advance width="447"/>
	<unicode hex="0028"/>
	<outline>
		<contour>
			<point x="334" y="83" type="curve" smooth="yes"/>
			<point x="130" y="313"/>
			<point x="130" y="1087"/>
			<point x="334" y="1317" type="curve" smooth="yes"/>
			<point x="342" y="1326"/>
			<point x="347" y="1338"/>
			<point x="347" y="1350" type="curve" smooth="yes"/>
			<point x="347" y="1378"/>
			<point x="325" y="1400"/>
			<point x="297" y="1400" type="curve" smooth="yes"/>
			<point x="282" y="1400"/>
			<point x="269" y="1394"/>
			<point x="260" y="1383" type="curve" smooth="yes"/>
			<point x="20" y="1108"/>
			<point x="20" y="292"/>
			<point x="260" y="17" type="curve" smooth="yes"/>
			<point x="269" y="6"/>
			<point x="282" y="0"/>
			<point x="297" y="0" type="curve" smooth="yes"/>
			<point x="325" y="0"/>
			<point x="347" y="22"/>
			<point x="347" y="50" type="curve" smooth="yes"/>
			<point x="347" y="62"/>
			<point x="342" y="74"/>
		</contour>
	</outline>
</glyph>
<glyph name="asterisk" format="2">
	<advance width="766"/>
	<unicode hex="002A"/>
	<outline>
		<contour>
			<point x="606" y="1151" type="curve" smooth="yes"/>
			<point x="639" y="1151"/>
			<point x="666" y="1178"/>
			<point x="666" y="1211" type="curve" smooth="yes"/>
			<point x="666" y="1244"/>
			<point x="639" y="1271"/>
			<point x="606" y="1271" type="curve" smooth="yes"/>
			<point x="573" y="1271"/>
			<point x="546" y="1244"/>
			<point x="546" y="1211" type="curve" smooth="yes"/>
			<point x="546" y="1178"/>
			<point x="573" y="1151"/>
		</contour>
		<contour>
			<point x="160" y="893" type="curve" smooth="yes"/>
			<point x="193" y="893"/>
			<point x="220" y="920"/>
			<point x="220" y="953" type="curve" smooth="yes"/>
			<point x="220" y="986"/>
			<point x="193" y="1013"/>
			<point x="160" y="1013" type="curve" smooth="yes"/>
			<point x="127" y="1013"/>
			<point x="100" y="986"/>
			<point x="100" y="953" type="curve" smooth="yes"/>
			<point x="100" y="920"/>
			<point x="127" y="893"/>
		</contour>
		<contour>
			<point x="382" y="765" type="curve" smooth="yes"/>
			<point x="415" y="765"/>
			<point x="442" y="792"/>
			<point x="442" y="825" type="curve" smooth="yes"/>
			<point x="442" y="858"/>
			<point x="415" y="885"/>
			<point x="382" y="885" type="curve" smooth="yes"/>
			<point x="349" y="885"/>
			<point x="322" y="858"/>
			<point x="322" y="825" type="curve" smooth="yes"/>
			<point x="322" y="792"/>
			<point x="349" y="765"/>
		</contour>
		<contour>
			<point x="129" y="1160" type="curve" smooth="yes"/>
			<point x="575" y="902" type="line" smooth="yes"/>
			<point x="584" y="896"/>
			<point x="595" y="893"/>
			<point x="606" y="893" type="curve" smooth="yes"/>
			<point x="639" y="893"/>
			<point x="666" y="920"/>
			<point x="666" y="953" type="curve" smooth="yes"/>
			<point x="666" y="975"/>
			<point x="655" y="994"/>
			<point x="637" y="1004" type="curve" smooth="yes"/>
			<point x="191" y="1262" type="line" smooth="yes"/>
			<point x="182" y="1268"/>
			<point x="171" y="1271"/>
			<point x="160" y="1271" type="curve" smooth="yes"/>
			<point x="127" y="1271"/>
			<point x="100" y="1244"/>
			<point x="100" y="1211" type="curve" smooth="yes"/>
			<point x="100" y="1189"/>
			<point x="111" y="1170"/>
		</contour>
		<contour>
			<point x="383" y="1280" type="curve" smooth="yes"/>
			<point x="416" y="1280"/>
			<point x="443" y="1307"/>
			<point x="443" y="1340" type="curve" smooth="yes"/>
			<point x="443" y="1373"/>
			<point x="416" y="1400"/>
			<point x="383" y="1400" type="curve" smooth="yes"/>
			<point x="350" y="1400"/>
			<point x="323" y="1373"/>
			<point x="323" y="1340" type="curve" smooth="yes"/>
			<point x="323" y="1307"/>
			<point x="350" y="1280"/>
		</contour>
	</outline>
</glyph>
<glyph name="plus" format="2">
	<advance width="1007"/>
	<unicode hex="002B"/>
	<outline>
		<contour>
			<point x="120" y="640" type="curve"/>
			<point x="275" y="640" type="line"/>
			<point x="308.137" y="640"/>
			<point x="335" y="666.863"/>
			<point x="335" y="700" type="curve"/>
			<point x="335" y="733.137"/>
			<point x="308.137" y="760"/>
			<point x="275" y="760" type="curve"/>
			<point x="120" y="760" type="line"/>
			<point x="86.863" y="760"/>
			<point x="60" y="733.137"/>
			<point x="60" y="700" type="curve"/>
			<point x="60" y="666.863"/>
			<point x="86.863" y="640"/>
		</contour>
		<contour>
			<point x="564" y="317" type="curve"/>
			<point x="564" y="1084" type="line"/>
			<point x="564" y="1117.137"/>
			<point x="537.137" y="1144"/>
			<point x="504" y="1144" type="curve"/>
			<point x="470.863" y="1144"/>
			<point x="444" y="1117.137"/>
			<point x="444" y="1084" type="curve"/>
			<point x="444" y="317" type="line"/>
			<point x="444" y="283.863"/>
			<point x="470.863" y="257"/>
			<point x="504" y="257" type="curve"/>
			<point x="537.137" y="257"/>
			<point x="564" y="283.863"/>
		</contour>
		<contour>
			<point x="733" y="640" type="curve"/>
			<point x="888" y="640" type="line"/>
			<point x="921.137" y="640"/>
			<point x="948" y="666.863"/>
			<point x="948" y="700" type="curve"/>
			<point x="948" y="733.137"/>
			<point x="921.137" y="760"/>
			<point x="888" y="760" type="curve"/>
			<point x="733" y="760" type="line"/>
			<point x="699.863" y="760"/>
			<point x="673" y="733.137"/>
			<point x="673" y="700" type="curve"/>
			<point x="673" y="666.863"/>
			<point x="699.863" y="640"/>
		</contour>
	</outline>
</glyph>
<glyph name="comma" format="2">
	<advance width="399"/>
	<unicode hex="002C"/>
	<outline>
		<contour>
			<point x="160" y="-193" type="curve" smooth="yes"/>
			<point x="188" y="-193"/>
			<point x="212" y="-173"/>
			<point x="218" y="-147" type="curve" smooth="yes"/>
			<point x="297" y="152" type="line" smooth="yes"/>
			<point x="306" y="187"/>
			<point x="280" y="226"/>
			<point x="239" y="226" type="curve" smooth="yes"/>
			<point x="211" y="226"/>
			<point x="187" y="206"/>
			<point x="181" y="180" type="curve" smooth="yes"/>
			<point x="102" y="-119" type="line" smooth="yes"/>
			<point x="93" y="-154"/>
			<point x="119" y="-193"/>
		</contour>
	</outline>
</glyph>
<glyph name="hyphen" format="2">
	<advance width="661"/>
	<unicode hex="002D"/>
	<outline>
		<contour>
			<point x="501" y="760" type="curve"/>
			<point x="160" y="760" type="line"/>
			<point x="126.863" y="760"/>
			<point x="100" y="733.137"/>
			<point x="100" y="700" type="curve"/>
			<point x="100" y="666.863"/>
			<point x="126.863" y="640"/>
			<point x="160" y="640" type="curve"/>
			<point x="501" y="640" type="line"/>
			<point x="534.137" y="640"/>
			<point x="561" y="666.863"/>
			<point x="561" y="700" type="curve"/>
			<point x="561" y="733.137"/>
			<point x="534.137" y="760"/>
		</contour>
	</outline>
</glyph>
<glyph name="zero" format="2">
	<advance width="896"/>
	<unicode hex="0030"/>
	<outline>
		<contour>
			<point x="676" y="601" type="curve"/>
			<point x="676" y="352" type="line"/>
			<point x="676" y="226"/>
			<point x="574" y="124"/>
			<point x="448" y="124" type="curve"/>
			<point x="322" y="124"/>
			<point x="220" y="226"/>
			<point x="220" y="352" type="curve"/>
			<point x="220" y="385.137"/>
			<point x="193.137" y="412"/>
			<point x="160" y="412" type="curve"/>
			<point x="126.863" y="412"/>
			<point x="100" y="385.137"/>
			<point x="100" y="352" type="curve"/>
			<point x="100" y="159.894"/>
			<point x="255.894" y="4"/>
			<point x="448" y="4" type="curve"/>
			<point x="640.106" y="4"/>
			<point x="796" y="159.894"/>
			<point x="796" y="352" type="curve"/>
			<point x="796" y="601" type="line"/>
			<point x="796" y="634.137"/>
			<point x="769.137" y="661"/>
			<point x="736" y="661" type="curve"/>
			<point x="702.863" y="661"/>
			<point x="676" y="634.137"/>
		</contour>
		<contour>
			<point x="563.794" y="848.977" type="curve"/>
			<point x="265.794" y="650.977" type="line"/>
			<point x="249.642" y="640.228"/>
			<point x="239" y="621.857"/>
			<point x="239" y="601" type="curve"/>
			<point x="239" y="567.863"/>
			<point x="265.863" y="541"/>
			<point x="299" y="541" type="curve"/>
			<point x="311.28" y="541"/>
			<point x="322.699" y="544.689"/>
			<point x="332.206" y="551.023" type="curve"/>
			<point x="630.206" y="749.023" type="line"/>
			<point x="646.358" y="759.772"/>
			<point x="657" y="778.143"/>
			<point x="657" y="799" type="curve"/>
			<point x="657" y="832.137"/>
			<point x="630.137" y="859"/>
			<point x="597" y="859" type="curve"/>
			<point x="584.72" y="859"/>
			<point x="573.301" y="855.311"/>
		</contour>
		<contour>
			<point x="220" y="799" type="curve"/>
			<point x="220" y="1048" type="line"/>
			<point x="220" y="1174"/>
			<point x="322" y="1276"/>
			<point x="448" y="1276" type="curve"/>
			<point x="574" y="1276"/>
			<point x="676" y="1174"/>
			<point x="676" y="1048" type="curve"/>
			<point x="676" y="1014.863"/>
			<point x="702.863" y="988"/>
			<point x="736" y="988" type="curve"/>
			<point x="769.137" y="988"/>
			<point x="796" y="1014.863"/>
			<point x="796" y="1048" type="curve"/>
			<point x="796" y="1240.106"/>
			<point x="640.106" y="1396"/>
			<point x="448" y="1396" type="curve"/>
			<point x="255.894" y="1396"/>
			<point x="100" y="1240.106"/>
			<point x="100" y="1048" type="curve"/>
			<point x="100" y="799" type="line"/>
			<point x="100" y="765.863"/>
			<point x="126.863" y="739"/>
			<point x="160" y="739" type="curve"/>
			<point x="193.137" y="739"/>
			<point x="220" y="765.863"/>
		</contour>
	</outline>
</glyph>
<glyph name="one" format="2">
	<advance width="896"/>
	<unicode hex="0031"/>
	<outline>
		<contour>
			<point x="588" y="60" type="curve"/>
			<point x="588" y="440" type="line"/>
			<point x="588" y="473.137"/>
			<point x="561.137" y="500"/>
			<point x="528" y="500" type="curve"/>
			<point x="494.863" y="500"/>
			<point x="468" y="473.137"/>
			<point x="468" y="440" type="curve"/>
			<point x="468" y="60" type="line"/>
			<point x="468" y="26.863"/>
			<point x="494.863" y="0"/>
			<point x="528" y="0" type="curve"/>
			<point x="561.137" y="0"/>
			<point x="588" y="26.863"/>
		</contour>
		<contour>
			<point x="494.028" y="1391.459" type="curve"/>
			<point x="197.028" y="1187.459" type="line"/>
			<point x="181.306" y="1176.644"/>
			<point x="171" y="1158.526"/>
			<point x="171" y="1138" type="curve"/>
			<point x="171" y="1104.863"/>
			<point x="197.863" y="1078"/>
			<point x="231" y="1078" type="curve"/>
			<point x="243.612" y="1078"/>
			<point x="255.315" y="1081.891"/>
			<point x="264.972" y="1088.541" type="curve"/>
			<point x="561.972" y="1292.541" type="line"/>
			<point x="577.694" y="1303.356"/>
			<point x="588" y="1321.474"/>
			<point x="588" y="1342" type="curve"/>
			<point x="588" y="1375.137"/>
			<point x="561.137" y="1402"/>
			<point x="528" y="1402" type="curve"/>
			<point x="515.388" y="1402"/>
			<point x="503.685" y="1398.109"/>
		</contour>
		<contour>
			<point x="588" y="840" type="curve"/>
			<point x="588" y="1340" type="line"/>
			<point x="588" y="1373.137"/>
			<point x="561.137" y="1400"/>
			<point x="528" y="1400" type="curve"/>
			<point x="494.863" y="1400"/>
			<point x="468" y="1373.137"/>
			<point x="468" y="1340" type="curve"/>
			<point x="468" y="840" type="line"/>
			<point x="468" y="806.863"/>
			<point x="494.863" y="780"/>
			<point x="528" y="780" type="curve"/>
			<point x="561.137" y="780"/>
			<point x="588" y="806.863"/>
		</contour>
	</outline>
</glyph>
<glyph name="two" format="2">
	<advance width="896"/>
	<unicode hex="0032"/>
	<outline>
		<contour>
			<point x="160" y="0" type="curve"/>
			<point x="736" y="0" type="line"/>
			<point x="769.137" y="0"/>
			<point x="796" y="26.863"/>
			<point x="796" y="60" type="curve"/>
			<point x="796" y="93.137"/>
			<point x="769.137" y="120"/>
			<point x="736" y="120" type="curve"/>
			<point x="160" y="120" type="line"/>
			<point x="126.863" y="120"/>
			<point x="100" y="93.137"/>
			<point x="100" y="60" type="curve"/>
			<point x="100" y="26.863"/>
			<point x="126.863" y="0"/>
		</contour>
		<contour>
			<point x="201.203" y="25.176" type="curve"/>
			<point x="544.272" y="464.047" type="line"/>
			<point x="552.247" y="474.232"/>
			<point x="557" y="487.061"/>
			<point x="557" y="501" type="curve"/>
			<point x="557" y="534.137"/>
			<point x="530.137" y="561"/>
			<point x="497" y="561" type="curve"/>
			<point x="477.802" y="561"/>
			<point x="460.709" y="551.983"/>
			<point x="449.728" y="537.953" type="curve"/>
			<point x="107.31" y="99.911" type="line"/>
			<point x="99.14" y="89.66"/>
			<point x="94.257" y="76.672"/>
			<point x="94.257" y="62.544" type="curve"/>
			<point x="94.257" y="29.407"/>
			<point x="121.119" y="2.544"/>
			<point x="154.257" y="2.544" type="curve"/>
			<point x="173.266" y="2.544"/>
			<point x="190.21" y="11.384"/>
		</contour>
		<contour>
			<point x="218" y="1050" type="curve"/>
			<point x="218" y="1177"/>
			<point x="321" y="1280"/>
			<point x="448" y="1280" type="curve"/>
			<point x="575" y="1280"/>
			<point x="678" y="1177"/>
			<point x="678" y="1050" type="curve"/>
			<point x="678" y="1016.863"/>
			<point x="704.863" y="990"/>
			<point x="738" y="990" type="curve"/>
			<point x="771.137" y="990"/>
			<point x="798" y="1016.863"/>
			<point x="798" y="1050" type="curve"/>
			<point x="798" y="1243.106"/>
			<point x="641.106" y="1400"/>
			<point x="448" y="1400" type="curve"/>
			<point x="254.894" y="1400"/>
			<point x="98" y="1243.106"/>
			<point x="98" y="1050" type="curve"/>
			<point x="98" y="1016.863"/>
			<point x="124.863" y="990"/>
			<point x="158" y="990" type="curve"/>
			<point x="191.137" y="990"/>
			<point x="218" y="1016.863"/>
		</contour>
	</outline>
</glyph>
<glyph name="three" format="2">
	<advance width="896"/>
	<unicode hex="0033"/>
	<outline>
		<contour>
			<point x="678" y="350" type="curve"/>
			<point x="678" y="223"/>
			<point x="575" y="120"/>
			<point x="448" y="120" type="curve"/>
			<point x="321" y="120"/>
			<point x="218" y="223"/>
			<point x="218" y="350" type="curve"/>
			<point x="218" y="383.137"/>
			<point x="191.137" y="410"/>
			<point x="158" y="410" type="curve"/>
			<point x="124.863" y="410"/>
			<point x="98" y="383.137"/>
			<point x="98" y="350" type="curve"/>
			<point x="98" y="156.894"/>
			<point x="254.894" y="0"/>
			<point x="448" y="0" type="curve"/>
			<point x="641.106" y="0"/>
			<point x="798" y="156.894"/>
			<point x="798" y="350" type="curve"/>
			<point x="798" y="383.137"/>
			<point x="771.137" y="410"/>
			<point x="738" y="410" type="curve"/>
			<point x="704.863" y="410"/>
			<point x="678" y="383.137"/>
		</contour>
		<contour>
			<point x="220" y="1050" type="curve"/>
			<point x="220" y="1177"/>
			<point x="323" y="1280"/>
			<point x="450" y="1280" type="curve"/>
			<point x="577" y="1280"/>
			<point x="680" y="1177"/>
			<point x="680" y="1050" type="curve"/>
			<point x="680" y="923"/>
			<point x="577" y="820"/>
			<point x="450" y="820" type="curve"/>
			<point x="416.863" y="820"/>
			<point x="390" y="793.137"/>
			<point x="390" y="760" type="curve"/>
			<point x="390" y="726.863"/>
			<point x="416.863" y="700"/>
			<point x="450" y="700" type="curve"/>
			<point x="643.106" y="700"/>
			<point x="800" y="856.894"/>
			<point x="800" y="1050" type="curve"/>
			<point x="800" y="1243.106"/>
			<point x="643.106" y="1400"/>
			<point x="450" y="1400" type="curve"/>
			<point x="256.894" y="1400"/>
			<point x="100" y="1243.106"/>
			<point x="100" y="1050" type="curve"/>
			<point x="100" y="1016.863"/>
			<point x="126.863" y="990"/>
			<point x="160" y="990" type="curve"/>
			<point x="193.137" y="990"/>
			<point x="220" y="1016.863"/>
		</contour>
	</outline>
</glyph>
<glyph name="four" format="2">
	<advance width="896"/>
	<unicode hex="0034"/>
	<outline>
		<contour>
			<point x="475" y="460" type="curve"/>
			<point x="140" y="460" type="line"/>
			<point x="106.863" y="460"/>
			<point x="80" y="433.137"/>
			<point x="80" y="400" type="curve"/>
			<point x="80" y="366.863"/>
			<point x="106.863" y="340"/>
			<point x="140" y="340" type="curve"/>
			<point x="475" y="340" type="line"/>
			<point x="508.137" y="340"/>
			<point x="535" y="366.863"/>
			<point x="535" y="400" type="curve"/>
			<point x="535" y="433.137"/>
			<point x="508.137" y="460"/>
		</contour>
		<contour>
			<point x="675" y="1000" type="curve"/>
			<point x="675" y="60" type="line"/>
			<point x="675" y="26.863"/>
			<point x="701.863" y="0"/>
			<point x="735" y="0" type="curve"/>
			<point x="768.137" y="0"/>
			<point x="795" y="26.863"/>
			<point x="795" y="60" type="curve"/>
			<point x="795" y="1000" type="line"/>
			<point x="795" y="1033.137"/>
			<point x="768.137" y="1060"/>
			<point x="735" y="1060" type="curve"/>
			<point x="701.863" y="1060"/>
			<point x="675" y="1033.137"/>
		</contour>
		<contour>
			<point x="179.723" y="375.377" type="curve"/>
			<point x="602.025" y="1313.95" type="line"/>
			<point x="605.755" y="1321.767"/>
			<point x="607.842" y="1330.517"/>
			<point x="607.842" y="1339.755" type="curve"/>
			<point x="607.842" y="1372.893"/>
			<point x="580.98" y="1399.755"/>
			<point x="547.842" y="1399.755" type="curve"/>
			<point x="523.943" y="1399.755"/>
			<point x="503.308" y="1385.782"/>
			<point x="493.659" y="1365.56" type="curve"/>
			<point x="70.277" y="424.623" type="line"/>
			<point x="66.884" y="417.112"/>
			<point x="65" y="408.776"/>
			<point x="65" y="400" type="curve"/>
			<point x="65" y="366.863"/>
			<point x="91.863" y="340"/>
			<point x="125" y="340" type="curve"/>
			<point x="149.361" y="340"/>
			<point x="170.331" y="354.518"/>
		</contour>
	</outline>
</glyph>
<glyph name="five" format="2">
	<advance width="896"/>
	<unicode hex="0035"/>
	<outline>
		<contour>
			<point x="448" y="680" type="curve"/>
			<point x="575" y="680"/>
			<point x="678" y="577"/>
			<point x="678" y="450" type="curve"/>
			<point x="678" y="350" type="line"/>
			<point x="678" y="223"/>
			<point x="575" y="120"/>
			<point x="448" y="120" type="curve"/>
			<point x="321" y="120"/>
			<point x="218" y="223"/>
			<point x="218" y="350" type="curve"/>
			<point x="218" y="383.137"/>
			<point x="191.137" y="410"/>
			<point x="158" y="410" type="curve"/>
			<point x="124.863" y="410"/>
			<point x="98" y="383.137"/>
			<point x="98" y="350" type="curve"/>
			<point x="98" y="156.894"/>
			<point x="254.894" y="0"/>
			<point x="448" y="0" type="curve"/>
			<point x="641.106" y="0"/>
			<point x="798" y="156.894"/>
			<point x="798" y="350" type="curve"/>
			<point x="798" y="450" type="line"/>
			<point x="798" y="643.106"/>
			<point x="641.106" y="800"/>
			<point x="448" y="800" type="curve"/>
			<point x="414.863" y="800"/>
			<point x="388" y="773.137"/>
			<point x="388" y="740" type="curve"/>
			<point x="388" y="706.863"/>
			<point x="414.863" y="680"/>
		</contour>
		<contour>
			<point x="221" y="930" type="curve"/>
			<point x="221" y="1338" type="line"/>
			<point x="101" y="1338" type="line"/>
			<point x="101" y="930" type="line"/>
			<point x="101" y="896.863"/>
			<point x="127.863" y="870"/>
			<point x="161" y="870" type="curve"/>
			<point x="194.137" y="870"/>
			<point x="221" y="896.863"/>
		</contour>
		<contour>
			<point x="161" y="1280" type="curve"/>
			<point x="753" y="1280" type="line"/>
			<point x="786.137" y="1280"/>
			<point x="813" y="1306.863"/>
			<point x="813" y="1340" type="curve"/>
			<point x="813" y="1373.137"/>
			<point x="786.137" y="1400"/>
			<point x="753" y="1400" type="curve"/>
			<point x="161" y="1400" type="line"/>
			<point x="127.863" y="1400"/>
			<point x="101" y="1373.137"/>
			<point x="101" y="1340" type="curve"/>
			<point x="101" y="1306.863"/>
			<point x="127.863" y="1280"/>
		</contour>
	</outline>
</glyph>
<glyph name="six" format="2">
	<advance width="896"/>
	<unicode hex="0036"/>
	<outline>
		<contour>
			<point x="446" y="120" type="curve"/>
			<point x="319" y="120"/>
			<point x="216" y="223"/>
			<point x="216" y="350" type="curve"/>
			<point x="216" y="477"/>
			<point x="319" y="580"/>
			<point x="446" y="580" type="curve"/>
			<point x="573" y="580"/>
			<point x="676" y="477"/>
			<point x="676" y="350" type="curve"/>
			<point x="676" y="223"/>
			<point x="573" y="120"/>
		</contour>
		<contour>
			<point x="446" y="0" type="curve"/>
			<point x="639.106" y="0"/>
			<point x="796" y="156.894"/>
			<point x="796" y="350" type="curve"/>
			<point x="796" y="543.106"/>
			<point x="639.106" y="700"/>
			<point x="446" y="700" type="curve"/>
			<point x="252.894" y="700"/>
			<point x="96" y="543.106"/>
			<point x="96" y="350" type="curve"/>
			<point x="96" y="156.894"/>
			<point x="252.894" y="0"/>
		</contour>
		<contour>
			<point x="529.298" y="1369.085" type="curve"/>
			<point x="302.873" y="937.897" type="line"/>
			<point x="298.482" y="929.565"/>
			<point x="296" y="920.073"/>
			<point x="296" y="910" type="curve"/>
			<point x="296" y="876.863"/>
			<point x="322.863" y="850"/>
			<point x="356" y="850" type="curve"/>
			<point x="379.065" y="850"/>
			<point x="399.09" y="863.014"/>
			<point x="409.127" y="882.103" type="curve"/>
			<point x="634.493" y="1311.297" type="line"/>
			<point x="639.211" y="1319.868"/>
			<point x="641.895" y="1329.716"/>
			<point x="641.895" y="1340.191" type="curve"/>
			<point x="641.895" y="1373.328"/>
			<point x="615.032" y="1400.191"/>
			<point x="581.895" y="1400.191" type="curve"/>
			<point x="559.233" y="1400.191"/>
			<point x="539.506" y="1387.627"/>
		</contour>
	</outline>
</glyph>
<glyph name="seven" format="2">
	<advance width="896"/>
	<unicode hex="0037"/>
	<outline>
		<contour>
			<point x="282" y="0" type="curve" smooth="yes"/>
			<point x="308" y="0"/>
			<point x="330" y="16"/>
			<point x="338" y="38" type="curve" smooth="yes"/>
			<point x="799" y="1319" type="line" smooth="yes"/>
			<point x="814" y="1358"/>
			<point x="785" y="1400"/>
			<point x="743" y="1400" type="curve" smooth="yes"/>
			<point x="717" y="1400"/>
			<point x="695" y="1384"/>
			<point x="687" y="1362" type="curve" smooth="yes"/>
			<point x="226" y="81" type="line" smooth="yes"/>
			<point x="211" y="42"/>
			<point x="240" y="0"/>
		</contour>
		<contour>
			<point x="437" y="1400" type="curve"/>
			<point x="165" y="1400" type="line"/>
			<point x="131.863" y="1400"/>
			<point x="105" y="1373.137"/>
			<point x="105" y="1340" type="curve"/>
			<point x="105" y="1306.863"/>
			<point x="131.863" y="1280"/>
			<point x="165" y="1280" type="curve"/>
			<point x="437" y="1280" type="line"/>
			<point x="470.137" y="1280"/>
			<point x="497" y="1306.863"/>
			<point x="497" y="1340" type="curve"/>
			<point x="497" y="1373.137"/>
			<point x="470.137" y="1400"/>
		</contour>
	</outline>
</glyph>
<glyph name="eight" format="2">
	<advance width="896"/>
	<unicode hex="0038"/>
	<outline>
		<contour>
			<point x="678" y="350" type="curve"/>
			<point x="678" y="223"/>
			<point x="575" y="120"/>
			<point x="448" y="120" type="curve"/>
			<point x="414.863" y="120"/>
			<point x="388" y="93.137"/>
			<point x="388" y="60" type="curve"/>
			<point x="388" y="26.863"/>
			<point x="414.863" y="0"/>
			<point x="448" y="0" type="curve"/>
			<point x="641.106" y="0"/>
			<point x="798" y="156.894"/>
			<point x="798" y="350" type="curve"/>
			<point x="798" y="383.137"/>
			<point x="771.137" y="410"/>
			<point x="738" y="410" type="curve"/>
			<point x="704.863" y="410"/>
			<point x="678" y="383.137"/>
		</contour>
		<contour>
			<point x="676" y="989" type="curve"/>
			<point x="676" y="853.853"/>
			<point x="581.147" y="759"/>
			<point x="446" y="759" type="curve"/>
			<point x="252.947" y="759"/>
			<point x="96" y="602.053"/>
			<point x="96" y="409" type="curve"/>
			<point x="96" y="375.863"/>
			<point x="122.863" y="349"/>
			<point x="156" y="349" type="curve"/>
			<point x="189.137" y="349"/>
			<point x="216" y="375.863"/>
			<point x="216" y="409" type="curve"/>
			<point x="216" y="544.147"/>
			<point x="310.853" y="639"/>
			<point x="446" y="639" type="curve"/>
			<point x="639.053" y="639"/>
			<point x="796" y="795.947"/>
			<point x="796" y="989" type="curve"/>
			<point x="796" y="1022.137"/>
			<point x="769.137" y="1049"/>
			<point x="736" y="1049" type="curve"/>
			<point x="702.863" y="1049"/>
			<point x="676" y="1022.137"/>
		</contour>
		<contour>
			<point x="218" y="1050" type="curve"/>
			<point x="218" y="1177"/>
			<point x="321" y="1280"/>
			<point x="448" y="1280" type="curve"/>
			<point x="481.137" y="1280"/>
			<point x="508" y="1306.863"/>
			<point x="508" y="1340" type="curve"/>
			<point x="508" y="1373.137"/>
			<point x="481.137" y="1400"/>
			<point x="448" y="1400" type="curve"/>
			<point x="254.894" y="1400"/>
			<point x="98" y="1243.106"/>
			<point x="98" y="1050" type="curve"/>
			<point x="98" y="1016.863"/>
			<point x="124.863" y="990"/>
			<point x="158" y="990" type="curve"/>
			<point x="191.137" y="990"/>
			<point x="218" y="1016.863"/>
		</contour>
	</outline>
</glyph>
<glyph name="nine" format="2">
	<advance width="896"/>
	<unicode hex="0039"/>
	<outline>
		<contour>
			<point x="450" y="820" type="curve"/>
			<point x="323" y="820"/>
			<point x="220" y="923"/>
			<point x="220" y="1050" type="curve"/>
			<point x="220" y="1177"/>
			<point x="323" y="1280"/>
			<point x="450" y="1280" type="curve"/>
			<point x="577" y="1280"/>
			<point x="680" y="1177"/>
			<point x="680" y="1050" type="curve"/>
			<point x="680" y="923"/>
			<point x="577" y="820"/>
		</contour>
		<contour>
			<point x="450" y="700" type="curve"/>
			<point x="643.106" y="700"/>
			<point x="800" y="856.894"/>
			<point x="800" y="1050" type="curve"/>
			<point x="800" y="1243.106"/>
			<point x="643.106" y="1400"/>
			<point x="450" y="1400" type="curve"/>
			<point x="256.894" y="1400"/>
			<point x="100" y="1243.106"/>
			<point x="100" y="1050" type="curve"/>
			<point x="100" y="856.894"/>
			<point x="256.894" y="700"/>
		</contour>
		<contour>
			<point x="366.702" y="30.915" type="curve"/>
			<point x="593.127" y="462.103" type="line"/>
			<point x="597.518" y="470.435"/>
			<point x="600" y="479.927"/>
			<point x="600" y="490" type="curve"/>
			<point x="600" y="523.137"/>
			<point x="573.137" y="550"/>
			<point x="540" y="550" type="curve"/>
			<point x="516.935" y="550"/>
			<point x="496.91" y="536.986"/>
			<point x="486.873" y="517.897" type="curve"/>
			<point x="261.507" y="88.703" type="line"/>
			<point x="256.789" y="80.132"/>
			<point x="254.105" y="70.284"/>
			<point x="254.105" y="59.809" type="curve"/>
			<point x="254.105" y="26.672"/>
			<point x="280.968" y="-0.191"/>
			<point x="314.105" y="-0.191" type="curve"/>
			<point x="336.767" y="-0.191"/>
			<point x="356.494" y="12.373"/>
		</contour>
	</outline>
</glyph>
<glyph name="less" format="2">
	<advance width="1249"/>
	<unicode hex="003C"/>
	<outline>
		<contour>
			<point x="1115.64" y="285.683" type="curve"/>
			<point x="691.479" y="483.95" type="line"/>
			<point x="683.473" y="487.909"/>
			<point x="674.456" y="490.133"/>
			<point x="664.92" y="490.133" type="curve"/>
			<point x="631.782" y="490.133"/>
			<point x="604.92" y="463.271"/>
			<point x="604.92" y="430.133" type="curve"/>
			<point x="604.92" y="406.532"/>
			<point x="618.546" y="386.114"/>
			<point x="638.36" y="376.317" type="curve"/>
			<point x="1062.521" y="178.05" type="line"/>
			<point x="1070.527" y="174.091"/>
			<point x="1079.544" y="171.867"/>
			<point x="1089.08" y="171.867" type="curve"/>
			<point x="1122.218" y="171.867"/>
			<point x="1149.08" y="198.729"/>
			<point x="1149.08" y="231.867" type="curve"/>
			<point x="1149.08" y="255.468"/>
			<point x="1135.454" y="275.886"/>
		</contour>
		<contour>
			<point x="1062.361" y="1221.537" type="curve"/>
			<point x="132.946" y="780.811" type="line"/>
			<point x="113.287" y="770.959"/>
			<point x="99.792" y="750.624"/>
			<point x="99.792" y="727.137" type="curve"/>
			<point x="99.792" y="694"/>
			<point x="126.655" y="667.137"/>
			<point x="159.792" y="667.137" type="curve"/>
			<point x="169.443" y="667.137"/>
			<point x="178.561" y="669.415"/>
			<point x="186.639" y="673.463" type="curve"/>
			<point x="1116.054" y="1114.189" type="line"/>
			<point x="1135.713" y="1124.041"/>
			<point x="1149.208" y="1144.376"/>
			<point x="1149.208" y="1167.863" type="curve"/>
			<point x="1149.208" y="1201"/>
			<point x="1122.345" y="1227.863"/>
			<point x="1089.208" y="1227.863" type="curve"/>
			<point x="1079.557" y="1227.863"/>
			<point x="1070.439" y="1225.585"/>
		</contour>
	</outline>
</glyph>
<glyph name="equal" format="2">
	<advance width="1007"/>
	<unicode hex="003D"/>
	<outline>
		<contour>
			<point x="887" y="515" type="curve"/>
			<point x="120" y="515" type="line"/>
			<point x="86.863" y="515"/>
			<point x="60" y="488.137"/>
			<point x="60" y="455" type="curve"/>
			<point x="60" y="421.863"/>
			<point x="86.863" y="395"/>
			<point x="120" y="395" type="curve"/>
			<point x="887" y="395" type="line"/>
			<point x="920.137" y="395"/>
			<point x="947" y="421.863"/>
			<point x="947" y="455" type="curve"/>
			<point x="947" y="488.137"/>
			<point x="920.137" y="515"/>
		</contour>
		<contour>
			<point x="887" y="1005" type="curve"/>
			<point x="120" y="1005" type="line"/>
			<point x="86.863" y="1005"/>
			<point x="60" y="978.137"/>
			<point x="60" y="945" type="curve"/>
			<point x="60" y="911.863"/>
			<point x="86.863" y="885"/>
			<point x="120" y="885" type="curve"/>
			<point x="887" y="885" type="line"/>
			<point x="920.137" y="885"/>
			<point x="947" y="911.863"/>
			<point x="947" y="945" type="curve"/>
			<point x="947" y="978.137"/>
			<point x="920.137" y="1005"/>
		</contour>
	</outline>
</glyph>
<glyph name="question" format="2">
	<advance width="903"/>
	<unicode hex="003F"/>
	<outline>
		<contour>
			<point x="401" y="0" type="curve" smooth="yes"/>
			<point x="442" y="0"/>
			<point x="476" y="34"/>
			<point x="476" y="75" type="curve" smooth="yes"/>
			<point x="476" y="116"/>
			<point x="442" y="150"/>
			<point x="401" y="150" type="curve" smooth="yes"/>
			<point x="360" y="150"/>
			<point x="326" y="116"/>
			<point x="326" y="75" type="curve" smooth="yes"/>
			<point x="326" y="34"/>
			<point x="360" y="0"/>
		</contour>
		<contour>
			<point x="341" y="584" type="curve" smooth="yes"/>
			<point x="341" y="353" type="line" smooth="yes"/>
			<point x="341" y="320"/>
			<point x="368" y="293"/>
			<point x="401" y="293" type="curve" smooth="yes"/>
			<point x="434" y="293"/>
			<point x="461" y="320"/>
			<point x="461" y="353" type="curve" smooth="yes"/>
			<point x="461" y="584" type="line" smooth="yes"/>
			<point x="461" y="617"/>
			<point x="434" y="644"/>
			<point x="401" y="644" type="curve" smooth="yes"/>
			<point x="368" y="644"/>
			<point x="341" y="617"/>
		</contour>
		<contour>
			<point x="202" y="1198" type="curve" smooth="yes"/>
			<point x="312" y="1308"/>
			<point x="490" y="1308"/>
			<point x="600" y="1198" type="curve" smooth="yes"/>
			<point x="711" y="1087"/>
			<point x="711" y="909"/>
			<point x="600" y="799" type="curve" smooth="yes"/>
			<point x="589" y="788"/>
			<point x="582" y="773"/>
			<point x="582" y="756" type="curve" smooth="yes"/>
			<point x="582" y="723"/>
			<point x="609" y="696"/>
			<point x="642" y="696" type="curve" smooth="yes"/>
			<point x="659" y="696"/>
			<point x="674" y="703"/>
			<point x="684" y="714" type="curve" smooth="yes"/>
			<point x="843" y="871"/>
			<point x="843" y="1125"/>
			<point x="685" y="1283" type="curve" smooth="yes"/>
			<point x="528" y="1440"/>
			<point x="274" y="1440"/>
			<point x="117" y="1283" type="curve" smooth="yes"/>
			<point x="106" y="1272"/>
			<point x="100" y="1257"/>
			<point x="100" y="1240" type="curve" smooth="yes"/>
			<point x="100" y="1207"/>
			<point x="126" y="1180"/>
			<point x="160" y="1180" type="curve" smooth="yes"/>
			<point x="176" y="1180"/>
			<point x="191" y="1187"/>
		</contour>
	</outline>
</glyph>
<glyph name="at" format="2">
	<advance width="1354"/>
	<unicode hex="0040"/>
	<outline>
		<contour>
			<point x="772" y="490" type="curve"/>
			<point x="656" y="490"/>
			<point x="562" y="584"/>
			<point x="562" y="700" type="curve"/>
			<point x="562" y="816"/>
			<point x="656" y="910"/>
			<point x="772" y="910" type="curve"/>
			<point x="888" y="910"/>
			<point x="982" y="816"/>
			<point x="982" y="700" type="curve"/>
			<point x="982" y="584"/>
			<point x="888" y="490"/>
		</contour>
		<contour>
			<point x="772" y="370" type="curve"/>
			<point x="954.2" y="370"/>
			<point x="1102" y="517.8"/>
			<point x="1102" y="700" type="curve"/>
			<point x="1102" y="882.2"/>
			<point x="954.2" y="1030"/>
			<point x="772" y="1030" type="curve"/>
			<point x="589.8" y="1030"/>
			<point x="442" y="882.2"/>
			<point x="442" y="700" type="curve"/>
			<point x="442" y="517.8"/>
			<point x="589.8" y="370"/>
		</contour>
		<contour>
			<point x="1171" y="120" type="curve"/>
			<point x="780" y="120" type="line"/>
			<point x="631" y="120"/>
			<point x="483" y="176"/>
			<point x="370" y="289" type="curve"/>
			<point x="143" y="516"/>
			<point x="143" y="884"/>
			<point x="370" y="1111" type="curve"/>
			<point x="584.393" y="1325.393"/>
			<point x="926.576" y="1336.404"/>
			<point x="1154.948" y="1143.177" type="curve"/>
			<point x="1165.403" y="1134.322"/>
			<point x="1178.931" y="1128.982"/>
			<point x="1193.706" y="1128.982" type="curve"/>
			<point x="1226.845" y="1128.982"/>
			<point x="1253.709" y="1155.846"/>
			<point x="1253.709" y="1188.985" type="curve"/>
			<point x="1253.709" y="1207.347"/>
			<point x="1245.461" y="1223.782"/>
			<point x="1232.467" y="1234.787" type="curve"/>
			<point x="957.025" y="1467.88"/>
			<point x="543.912" y="1454.618"/>
			<point x="285.147" y="1195.853" type="curve"/>
			<point x="11.403" y="922.109"/>
			<point x="11.403" y="477.891"/>
			<point x="285.147" y="204.147" type="curve"/>
			<point x="421.77" y="67.525"/>
			<point x="601.456" y="0"/>
			<point x="780" y="0" type="curve"/>
			<point x="1171" y="0" type="line"/>
			<point x="1204.137" y="0"/>
			<point x="1231" y="26.863"/>
			<point x="1231" y="60" type="curve"/>
			<point x="1231" y="93.137"/>
			<point x="1204.137" y="120"/>
		</contour>
	</outline>
</glyph>
<glyph name="A" format="2">
	<advance width="1412"/>
	<unicode hex="0041"/>
	<unicode hex="0061"/>
	<anchor x="706" y="0" name="bottom"/>
	<anchor x="1283" y="-1" name="ogonek"/>
	<anchor x="706" y="1400" name="top"/>
	<outline>
		<contour>
			<point x="184.759" y="35.173" type="curve"/>
			<point x="438.748" y="636.68" type="line"/>
			<point x="442.119" y="644.179"/>
			<point x="443.994" y="652.497"/>
			<point x="443.994" y="661.253" type="curve"/>
			<point x="443.994" y="694.39"/>
			<point x="417.132" y="721.253"/>
			<point x="383.994" y="721.253" type="curve"/>
			<point x="359.613" y="721.253"/>
			<point x="338.628" y="706.711"/>
			<point x="329.241" y="685.827" type="curve"/>
			<point x="75.252" y="84.32" type="line"/>
			<point x="71.881" y="76.821"/>
			<point x="70.006" y="68.503"/>
			<point x="70.006" y="59.747" type="curve"/>
			<point x="70.006" y="26.61"/>
			<point x="96.868" y="-0.253"/>
			<point x="130.006" y="-0.253" type="curve"/>
			<point x="154.387" y="-0.253"/>
			<point x="175.372" y="14.289"/>
		</contour>
		<contour>
			<point x="1336.372" y="84.484" type="curve"/>
			<point x="787.889" y="1365.205" type="line"/>
			<point x="778.443" y="1385.944"/>
			<point x="757.535" y="1400.361"/>
			<point x="733.259" y="1400.361" type="curve"/>
			<point x="700.121" y="1400.361"/>
			<point x="673.259" y="1373.498"/>
			<point x="673.259" y="1340.361" type="curve"/>
			<point x="673.259" y="1331.499"/>
			<point x="675.18" y="1323.086"/>
			<point x="678.628" y="1315.516" type="curve"/>
			<point x="1227.111" y="34.795" type="line"/>
			<point x="1236.557" y="14.056"/>
			<point x="1257.465" y="-0.361"/>
			<point x="1281.741" y="-0.361" type="curve"/>
			<point x="1314.879" y="-0.361"/>
			<point x="1341.741" y="26.502"/>
			<point x="1341.741" y="59.639" type="curve"/>
			<point x="1341.741" y="68.501"/>
			<point x="1339.82" y="76.914"/>
		</contour>
	</outline>
</glyph>
<glyph name="B" format="2">
	<advance width="1240"/>
	<unicode hex="0042"/>
	<unicode hex="0062"/>
	<anchor x="620" y="0" name="bottom"/>
	<anchor x="620" y="700" name="center"/>
	<anchor x="570" y="1400" name="top"/>
	<outline>
		<contour>
			<point x="220" y="60" type="curve" smooth="yes"/>
			<point x="220" y="946" type="line" smooth="yes"/>
			<point x="220" y="979"/>
			<point x="193" y="1006"/>
			<point x="160" y="1006" type="curve" smooth="yes"/>
			<point x="127" y="1006"/>
			<point x="100" y="979"/>
			<point x="100" y="946" type="curve" smooth="yes"/>
			<point x="100" y="60" type="line" smooth="yes"/>
			<point x="100" y="27"/>
			<point x="127" y="0"/>
			<point x="160" y="0" type="curve" smooth="yes"/>
			<point x="193" y="0"/>
			<point x="220" y="27"/>
		</contour>
		<contour>
			<point x="630" y="640" type="line"/>
			<point x="810" y="640" type="line" smooth="yes"/>
			<point x="954" y="640"/>
			<point x="1070" y="524"/>
			<point x="1070" y="380" type="curve" smooth="yes"/>
			<point x="1070" y="236"/>
			<point x="954" y="120"/>
			<point x="810" y="120" type="curve" smooth="yes"/>
			<point x="604" y="120" type="line" smooth="yes"/>
			<point x="571" y="120"/>
			<point x="544" y="93"/>
			<point x="544" y="60" type="curve" smooth="yes"/>
			<point x="544" y="27"/>
			<point x="571" y="0"/>
			<point x="604" y="0" type="curve" smooth="yes"/>
			<point x="810" y="0" type="line" smooth="yes"/>
			<point x="1020" y="0"/>
			<point x="1190" y="170"/>
			<point x="1190" y="380" type="curve" smooth="yes"/>
			<point x="1190" y="590"/>
			<point x="1020" y="760"/>
			<point x="810" y="760" type="curve" smooth="yes"/>
			<point x="630" y="760" type="line"/>
		</contour>
		<contour>
			<point x="494" y="640" type="curve" smooth="yes"/>
			<point x="710" y="640" type="line" smooth="yes"/>
			<point x="920" y="640"/>
			<point x="1090" y="810"/>
			<point x="1090" y="1020" type="curve" smooth="yes"/>
			<point x="1090" y="1230"/>
			<point x="920" y="1400"/>
			<point x="710" y="1400" type="curve" smooth="yes"/>
			<point x="160" y="1400" type="line" smooth="yes"/>
			<point x="127" y="1400"/>
			<point x="100" y="1373"/>
			<point x="100" y="1340" type="curve" smooth="yes"/>
			<point x="100" y="1307"/>
			<point x="127" y="1280"/>
			<point x="160" y="1280" type="curve" smooth="yes"/>
			<point x="710" y="1280" type="line" smooth="yes"/>
			<point x="854" y="1280"/>
			<point x="970" y="1164"/>
			<point x="970" y="1020" type="curve" smooth="yes"/>
			<point x="970" y="876"/>
			<point x="854" y="760"/>
			<point x="710" y="760" type="curve" smooth="yes"/>
			<point x="494" y="760" type="line" smooth="yes"/>
			<point x="461" y="760"/>
			<point x="434" y="733"/>
			<point x="434" y="700" type="curve" smooth="yes"/>
			<point x="434" y="667"/>
			<point x="461" y="640"/>
		</contour>
	</outline>
</glyph>
<glyph name="C" format="2">
	<advance width="1244"/>
	<unicode hex="0043"/>
	<unicode hex="0063"/>
	<anchor x="631" y="0" name="bottom"/>
	<anchor x="691" y="1400" name="top"/>
	<outline>
		<contour>
			<point x="780" y="0" type="curve" smooth="yes"/>
			<point x="1134" y="0" type="line" smooth="yes"/>
			<point x="1167" y="0"/>
			<point x="1194" y="27"/>
			<point x="1194" y="60" type="curve" smooth="yes"/>
			<point x="1194" y="93"/>
			<point x="1167" y="120"/>
			<point x="1134" y="120" type="curve" smooth="yes"/>
			<point x="780" y="120" type="line" smooth="yes"/>
			<point x="460" y="120"/>
			<point x="200" y="380"/>
			<point x="200" y="700" type="curve" smooth="yes"/>
			<point x="200" y="1004"/>
			<point x="434" y="1253"/>
			<point x="731" y="1278" type="curve" smooth="yes"/>
			<point x="762" y="1281"/>
			<point x="786" y="1306"/>
			<point x="786" y="1338" type="curve" smooth="yes"/>
			<point x="786" y="1374"/>
			<point x="755" y="1400"/>
			<point x="721" y="1398" type="curve" smooth="yes"/>
			<point x="362" y="1368"/>
			<point x="80" y="1066"/>
			<point x="80" y="700" type="curve" smooth="yes"/>
			<point x="80" y="314"/>
			<point x="394" y="0"/>
		</contour>
		<contour>
			<point x="1134" y="1280" type="curve" smooth="yes"/>
			<point x="1167" y="1280"/>
			<point x="1194" y="1307"/>
			<point x="1194" y="1340" type="curve" smooth="yes"/>
			<point x="1194" y="1373"/>
			<point x="1167" y="1400"/>
			<point x="1134" y="1400" type="curve" smooth="yes"/>
			<point x="1101" y="1400"/>
			<point x="1074" y="1373"/>
			<point x="1074" y="1340" type="curve" smooth="yes"/>
			<point x="1074" y="1307"/>
			<point x="1101" y="1280"/>
		</contour>
	</outline>
</glyph>
<glyph name="D" format="2">
	<advance width="1305"/>
	<unicode hex="0044"/>
	<unicode hex="0064"/>
	<anchor x="643" y="0" name="bottom"/>
	<anchor x="643" y="700" name="center"/>
	<anchor x="583" y="1400" name="top"/>
	<outline>
		<contour>
			<point x="100" y="737" type="curve"/>
			<point x="100" y="60" type="line"/>
			<point x="100" y="26.863"/>
			<point x="126.863" y="0"/>
			<point x="160" y="0" type="curve"/>
			<point x="193.137" y="0"/>
			<point x="220" y="26.863"/>
			<point x="220" y="60" type="curve"/>
			<point x="220" y="737" type="line"/>
			<point x="220" y="770.137"/>
			<point x="193.137" y="797"/>
			<point x="160" y="797" type="curve"/>
			<point x="126.863" y="797"/>
			<point x="100" y="770.137"/>
		</contour>
		<contour>
			<point x="525" y="0" type="curve"/>
			<point x="911.106" y="0"/>
			<point x="1225" y="313.894"/>
			<point x="1225" y="700" type="curve"/>
			<point x="1225" y="1086.106"/>
			<point x="911.106" y="1400"/>
			<point x="525" y="1400" type="curve"/>
			<point x="160" y="1400" type="line"/>
			<point x="126.863" y="1400"/>
			<point x="100" y="1373.137"/>
			<point x="100" y="1340" type="curve"/>
			<point x="100" y="1306.863"/>
			<point x="126.863" y="1280"/>
			<point x="160" y="1280" type="curve"/>
			<point x="525" y="1280" type="line"/>
			<point x="845" y="1280"/>
			<point x="1105" y="1020"/>
			<point x="1105" y="700" type="curve"/>
			<point x="1105" y="380"/>
			<point x="845" y="120"/>
			<point x="525" y="120" type="curve"/>
			<point x="491.863" y="120"/>
			<point x="465" y="93.137"/>
			<point x="465" y="60" type="curve"/>
			<point x="465" y="26.863"/>
			<point x="491.863" y="0"/>
		</contour>
	</outline>
</glyph>
<glyph name="E" format="2">
	<advance width="1064"/>
	<unicode hex="0045"/>
	<unicode hex="0065"/>
	<anchor x="497" y="0" name="bottom"/>
	<anchor x="925" y="0" name="ogonek"/>
	<anchor x="517" y="1400" name="top"/>
	<anchor x="20" y="1400" name="topleft"/>
	<outline>
		<contour>
			<point x="220" y="60" type="line"/>
			<point x="220" y="706" type="line" smooth="yes"/>
			<point x="220" y="739"/>
			<point x="193" y="766"/>
			<point x="160" y="766" type="curve" smooth="yes"/>
			<point x="127" y="766"/>
			<point x="100" y="739"/>
			<point x="100" y="706" type="curve" smooth="yes"/>
			<point x="100" y="60" type="line"/>
		</contour>
		<contour>
			<point x="924" y="120" type="curve" smooth="yes"/>
			<point x="160" y="120" type="line" smooth="yes"/>
			<point x="127" y="120"/>
			<point x="100" y="93"/>
			<point x="100" y="60" type="curve" smooth="yes"/>
			<point x="100" y="27"/>
			<point x="127" y="0"/>
			<point x="160" y="0" type="curve" smooth="yes"/>
			<point x="924" y="0" type="line" smooth="yes"/>
			<point x="957" y="0"/>
			<point x="984" y="27"/>
			<point x="984" y="60" type="curve" smooth="yes"/>
			<point x="984" y="93"/>
			<point x="957" y="120"/>
		</contour>
		<contour>
			<point x="487" y="640" type="curve" smooth="yes"/>
			<point x="924" y="640" type="line" smooth="yes"/>
			<point x="957" y="640"/>
			<point x="984" y="667"/>
			<point x="984" y="700" type="curve" smooth="yes"/>
			<point x="984" y="733"/>
			<point x="957" y="760"/>
			<point x="924" y="760" type="curve" smooth="yes"/>
			<point x="487" y="760" type="line" smooth="yes"/>
			<point x="454" y="760"/>
			<point x="427" y="733"/>
			<point x="427" y="700" type="curve" smooth="yes"/>
			<point x="427" y="667"/>
			<point x="454" y="640"/>
		</contour>
		<contour>
			<point x="160" y="1280" type="curve" smooth="yes"/>
			<point x="924" y="1280" type="line" smooth="yes"/>
			<point x="957" y="1280"/>
			<point x="984" y="1307"/>
			<point x="984" y="1340" type="curve" smooth="yes"/>
			<point x="984" y="1373"/>
			<point x="957" y="1400"/>
			<point x="924" y="1400" type="curve" smooth="yes"/>
			<point x="160" y="1400" type="line" smooth="yes"/>
			<point x="127" y="1400"/>
			<point x="100" y="1373"/>
			<point x="100" y="1340" type="curve" smooth="yes"/>
			<point x="100" y="1307"/>
			<point x="127" y="1280"/>
		</contour>
	</outline>
</glyph>
<glyph name="F" format="2">
	<advance width="1069"/>
	<unicode hex="0046"/>
	<unicode hex="0066"/>
	<anchor x="520" y="0" name="bottom"/>
	<anchor x="540" y="1400" name="top"/>
	<outline>
		<contour>
			<point x="100" y="700" type="line"/>
			<point x="100" y="60" type="line"/>
			<point x="100" y="26.863"/>
			<point x="126.863" y="0"/>
			<point x="160" y="0" type="curve"/>
			<point x="193.137" y="0"/>
			<point x="220" y="26.863"/>
			<point x="220" y="60" type="curve"/>
			<point x="220" y="700" type="line"/>
		</contour>
		<contour>
			<point x="829" y="760" type="curve"/>
			<point x="160" y="760" type="line"/>
			<point x="126.863" y="760"/>
			<point x="100" y="733.137"/>
			<point x="100" y="700" type="curve"/>
			<point x="100" y="666.863"/>
			<point x="126.863" y="640"/>
			<point x="160" y="640" type="curve"/>
			<point x="829" y="640" type="line"/>
			<point x="862.137" y="640"/>
			<point x="889" y="666.863"/>
			<point x="889" y="700" type="curve"/>
			<point x="889" y="733.137"/>
			<point x="862.137" y="760"/>
		</contour>
		<contour>
			<point x="160" y="1280" type="curve"/>
			<point x="929" y="1280" type="line"/>
			<point x="962.137" y="1280"/>
			<point x="989" y="1306.863"/>
			<point x="989" y="1340" type="curve"/>
			<point x="989" y="1373.137"/>
			<point x="962.137" y="1400"/>
			<point x="929" y="1400" type="curve"/>
			<point x="160" y="1400" type="line"/>
			<point x="126.863" y="1400"/>
			<point x="100" y="1373.137"/>
			<point x="100" y="1340" type="curve"/>
			<point x="100" y="1306.863"/>
			<point x="126.863" y="1280"/>
		</contour>
	</outline>
</glyph>
<glyph name="G" format="2">
	<advance width="1380"/>
	<unicode hex="0047"/>
	<unicode hex="0067"/>
	<anchor x="700" y="0" name="bottom"/>
	<anchor x="790" y="1400" name="top"/>
	<outline>
		<contour>
			<point x="780" y="120" type="curve"/>
			<point x="460" y="120"/>
			<point x="200" y="380"/>
			<point x="200" y="700" type="curve"/>
			<point x="200" y="1020"/>
			<point x="460" y="1280"/>
			<point x="780" y="1280" type="curve"/>
			<point x="1220" y="1280" type="line"/>
			<point x="1253.137" y="1280"/>
			<point x="1280" y="1306.863"/>
			<point x="1280" y="1340" type="curve"/>
			<point x="1280" y="1373.137"/>
			<point x="1253.137" y="1400"/>
			<point x="1220" y="1400" type="curve"/>
			<point x="780" y="1400" type="line"/>
			<point x="393.894" y="1400"/>
			<point x="80" y="1086.106"/>
			<point x="80" y="700" type="curve"/>
			<point x="80" y="313.894"/>
			<point x="393.894" y="0"/>
			<point x="780" y="0" type="curve"/>
			<point x="813.137" y="0"/>
			<point x="840" y="26.863"/>
			<point x="840" y="60" type="curve"/>
			<point x="840" y="93.137"/>
			<point x="813.137" y="120"/>
		</contour>
		<contour>
			<point x="1274" y="60" type="curve"/>
			<point x="1274" y="608" type="line"/>
			<point x="1274" y="641.137"/>
			<point x="1247.137" y="668"/>
			<point x="1214" y="668" type="curve"/>
			<point x="1180.863" y="668"/>
			<point x="1154" y="641.137"/>
			<point x="1154" y="608" type="curve"/>
			<point x="1154" y="60" type="line"/>
			<point x="1154" y="26.863"/>
			<point x="1180.863" y="0"/>
			<point x="1214" y="0" type="curve"/>
			<point x="1247.137" y="0"/>
			<point x="1274" y="26.863"/>
		</contour>
	</outline>
</glyph>
<glyph name="H" format="2">
	<advance width="1326"/>
	<unicode hex="0048"/>
	<unicode hex="0068"/>
	<anchor x="663" y="0" name="bottom"/>
	<anchor x="663" y="700" name="center"/>
	<anchor x="663" y="1400" name="top"/>
	<anchor x="20" y="1400" name="topleft"/>
	<outline>
		<contour>
			<point x="220" y="60" type="curve"/>
			<point x="220" y="351" type="line"/>
			<point x="220" y="384.137"/>
			<point x="193.137" y="411"/>
			<point x="160" y="411" type="curve"/>
			<point x="126.863" y="411"/>
			<point x="100" y="384.137"/>
			<point x="100" y="351" type="curve"/>
			<point x="100" y="60" type="line"/>
			<point x="100" y="26.863"/>
			<point x="126.863" y="0"/>
			<point x="160" y="0" type="curve"/>
			<point x="193.137" y="0"/>
			<point x="220" y="26.863"/>
		</contour>
		<contour>
			<point x="100" y="1340" type="curve"/>
			<point x="100" y="700" type="line"/>
			<point x="100" y="666.863"/>
			<point x="126.863" y="640"/>
			<point x="160" y="640" type="curve"/>
			<point x="193.137" y="640"/>
			<point x="220" y="666.863"/>
			<point x="220" y="700" type="curve"/>
			<point x="220" y="1340" type="line"/>
			<point x="220" y="1373.137"/>
			<point x="193.137" y="1400"/>
			<point x="160" y="1400" type="curve"/>
			<point x="126.863" y="1400"/>
			<point x="100" y="1373.137"/>
		</contour>
		<contour>
			<point x="1166" y="760" type="line"/>
			<point x="160" y="760" type="line"/>
			<point x="160" y="640" type="line"/>
			<point x="1166" y="640" type="line"/>
		</contour>
		<contour>
			<point x="1106" y="700" type="curve"/>
			<point x="1106" y="60" type="line"/>
			<point x="1106" y="26.863"/>
			<point x="1132.863" y="0"/>
			<point x="1166" y="0" type="curve"/>
			<point x="1199.137" y="0"/>
			<point x="1226" y="26.863"/>
			<point x="1226" y="60" type="curve"/>
			<point x="1226" y="700" type="line"/>
			<point x="1226" y="733.137"/>
			<point x="1199.137" y="760"/>
			<point x="1166" y="760" type="curve"/>
			<point x="1132.863" y="760"/>
			<point x="1106" y="733.137"/>
		</contour>
		<contour>
			<point x="1226" y="1049" type="curve"/>
			<point x="1226" y="1340" type="line"/>
			<point x="1226" y="1373.137"/>
			<point x="1199.137" y="1400"/>
			<point x="1166" y="1400" type="curve"/>
			<point x="1132.863" y="1400"/>
			<point x="1106" y="1373.137"/>
			<point x="1106" y="1340" type="curve"/>
			<point x="1106" y="1049" type="line"/>
			<point x="1106" y="1015.863"/>
			<point x="1132.863" y="989"/>
			<point x="1166" y="989" type="curve"/>
			<point x="1199.137" y="989"/>
			<point x="1226" y="1015.863"/>
		</contour>
	</outline>
</glyph>
<glyph name="I" format="2">
	<advance width="320"/>
	<unicode hex="0049"/>
	<unicode hex="0131"/>
	<anchor x="160" y="0" name="bottom"/>
	<anchor x="160" y="0" name="ogonek"/>
	<anchor x="160" y="1400" name="top"/>
	<anchor x="20" y="1400" name="topleft"/>
	<outline>
		<contour>
			<point x="220" y="60" type="curve" smooth="yes"/>
			<point x="220" y="500" type="line" smooth="yes"/>
			<point x="220" y="533"/>
			<point x="193" y="560"/>
			<point x="160" y="560" type="curve" smooth="yes"/>
			<point x="127" y="560"/>
			<point x="100" y="533"/>
			<point x="100" y="500" type="curve" smooth="yes"/>
			<point x="100" y="60" type="line" smooth="yes"/>
			<point x="100" y="27"/>
			<point x="127" y="0"/>
			<point x="160" y="0" type="curve" smooth="yes"/>
			<point x="193" y="0"/>
			<point x="220" y="27"/>
		</contour>
		<contour>
			<point x="220" y="900" type="curve" smooth="yes"/>
			<point x="220" y="1340" type="line" smooth="yes"/>
			<point x="220" y="1373"/>
			<point x="193" y="1400"/>
			<point x="160" y="1400" type="curve" smooth="yes"/>
			<point x="127" y="1400"/>
			<point x="100" y="1373"/>
			<point x="100" y="1340" type="curve" smooth="yes"/>
			<point x="100" y="900" type="line" smooth="yes"/>
			<point x="100" y="867"/>
			<point x="127" y="840"/>
			<point x="160" y="840" type="curve" smooth="yes"/>
			<point x="193" y="840"/>
			<point x="220" y="867"/>
		</contour>
	</outline>
</glyph>
<glyph name="J" format="2">
	<advance width="1154"/>
	<unicode hex="004A"/>
	<unicode hex="006A"/>
	<unicode hex="0237"/>
	<anchor x="568" y="0" name="bottom"/>
	<anchor x="1006" y="1400" name="top"/>
	<outline>
		<contour>
			<point x="945" y="498" type="curve" smooth="yes"/>
			<point x="945" y="289"/>
			<point x="776" y="120"/>
			<point x="568" y="120" type="curve" smooth="yes"/>
			<point x="359" y="120"/>
			<point x="190" y="289"/>
			<point x="190" y="498" type="curve" smooth="yes"/>
			<point x="190" y="531"/>
			<point x="163" y="558"/>
			<point x="130" y="558" type="curve" smooth="yes"/>
			<point x="97" y="558"/>
			<point x="70" y="531"/>
			<point x="70" y="498" type="curve" smooth="yes"/>
			<point x="70" y="223"/>
			<point x="293" y="0"/>
			<point x="568" y="0" type="curve" smooth="yes"/>
			<point x="842" y="0"/>
			<point x="1065" y="223"/>
			<point x="1065" y="498" type="curve" smooth="yes"/>
			<point x="1065" y="531"/>
			<point x="1038" y="558"/>
			<point x="1005" y="558" type="curve" smooth="yes"/>
			<point x="972" y="558"/>
			<point x="945" y="531"/>
		</contour>
		<contour>
			<point x="1066" y="900" type="curve" smooth="yes"/>
			<point x="1066" y="1340" type="line" smooth="yes"/>
			<point x="1066" y="1373"/>
			<point x="1039" y="1400"/>
			<point x="1006" y="1400" type="curve" smooth="yes"/>
			<point x="973" y="1400"/>
			<point x="946" y="1373"/>
			<point x="946" y="1340" type="curve" smooth="yes"/>
			<point x="946" y="900" type="line" smooth="yes"/>
			<point x="946" y="867"/>
			<point x="973" y="840"/>
			<point x="1006" y="840" type="curve" smooth="yes"/>
			<point x="1039" y="840"/>
			<point x="1066" y="867"/>
		</contour>
	</outline>
</glyph>
<glyph name="K" format="2">
	<advance width="1229"/>
	<unicode hex="004B"/>
	<unicode hex="006B"/>
	<anchor x="610" y="0" name="bottom"/>
	<anchor x="610" y="1400" name="top"/>
	<outline>
		<contour>
			<point x="220" y="60" type="curve"/>
			<point x="220" y="1340" type="line"/>
			<point x="220" y="1373.137"/>
			<point x="193.137" y="1400"/>
			<point x="160" y="1400" type="curve"/>
			<point x="126.863" y="1400"/>
			<point x="100" y="1373.137"/>
			<point x="100" y="1340" type="curve"/>
			<point x="100" y="60" type="line"/>
			<point x="100" y="26.863"/>
			<point x="126.863" y="0"/>
			<point x="160" y="0" type="curve"/>
			<point x="193.137" y="0"/>
			<point x="220" y="26.863"/>
		</contour>
		<contour>
			<point x="1141.243" y="102.61" type="curve"/>
			<point x="501.426" y="742.426" type="line"/>
			<point x="490.569" y="753.284"/>
			<point x="475.569" y="760"/>
			<point x="459" y="760" type="curve"/>
			<point x="425.863" y="760"/>
			<point x="399" y="733.137"/>
			<point x="399" y="700" type="curve"/>
			<point x="399" y="683.431"/>
			<point x="405.716" y="668.431"/>
			<point x="416.574" y="657.574" type="curve"/>
			<point x="1056.39" y="17.757" type="line"/>
			<point x="1067.248" y="6.899"/>
			<point x="1082.248" y="0.184"/>
			<point x="1098.816" y="0.184" type="curve"/>
			<point x="1131.954" y="0.184"/>
			<point x="1158.816" y="27.046"/>
			<point x="1158.816" y="60.184" type="curve"/>
			<point x="1158.816" y="76.752"/>
			<point x="1152.101" y="91.752"/>
		</contour>
		<contour>
			<point x="1056.39" y="1382.243" type="curve"/>
			<point x="714.574" y="1040.426" type="line"/>
			<point x="703.716" y="1029.569"/>
			<point x="697" y="1014.569"/>
			<point x="697" y="998" type="curve"/>
			<point x="697" y="964.863"/>
			<point x="723.863" y="938"/>
			<point x="757" y="938" type="curve"/>
			<point x="773.569" y="938"/>
			<point x="788.569" y="944.716"/>
			<point x="799.426" y="955.574" type="curve"/>
			<point x="1141.243" y="1297.39" type="line"/>
			<point x="1152.101" y="1308.248"/>
			<point x="1158.816" y="1323.248"/>
			<point x="1158.816" y="1339.816" type="curve"/>
			<point x="1158.816" y="1372.954"/>
			<point x="1131.954" y="1399.816"/>
			<point x="1098.816" y="1399.816" type="curve"/>
			<point x="1082.248" y="1399.816"/>
			<point x="1067.248" y="1393.101"/>
		</contour>
	</outline>
</glyph>
<glyph name="L" format="2">
	<advance width="1197"/>
	<unicode hex="004C"/>
	<unicode hex="006C"/>
	<anchor x="594" y="0" name="bottom"/>
	<anchor x="594" y="700" name="center"/>
	<anchor x="166" y="1400" name="top"/>
	<anchor x="1167" y="1400" name="topright"/>
	<outline>
		<contour>
			<point x="1067" y="120" type="curve"/>
			<point x="160" y="120" type="line"/>
			<point x="126.863" y="120"/>
			<point x="100" y="93.137"/>
			<point x="100" y="60" type="curve"/>
			<point x="100" y="26.863"/>
			<point x="126.863" y="0"/>
			<point x="160" y="0" type="curve"/>
			<point x="1067" y="0" type="line"/>
			<point x="1100.137" y="0"/>
			<point x="1127" y="26.863"/>
			<point x="1127" y="60" type="curve"/>
			<point x="1127" y="93.137"/>
			<point x="1100.137" y="120"/>
		</contour>
		<contour>
			<point x="226" y="402" type="curve"/>
			<point x="226" y="1340" type="line"/>
			<point x="226" y="1373.137"/>
			<point x="199.137" y="1400"/>
			<point x="166" y="1400" type="curve"/>
			<point x="132.863" y="1400"/>
			<point x="106" y="1373.137"/>
			<point x="106" y="1340" type="curve"/>
			<point x="106" y="402" type="line"/>
			<point x="106" y="368.863"/>
			<point x="132.863" y="342"/>
			<point x="166" y="342" type="curve"/>
			<point x="199.137" y="342"/>
			<point x="226" y="368.863"/>
		</contour>
	</outline>
</glyph>
<glyph name="M" format="2">
	<advance width="1520"/>
	<unicode hex="004D"/>
	<unicode hex="006D"/>
	<anchor x="690" y="0" name="bottom"/>
	<anchor x="760" y="1400" name="top"/>
	<outline>
		<contour>
			<point x="100" y="1340" type="curve"/>
			<point x="100" y="60" type="line"/>
			<point x="100" y="26.863"/>
			<point x="126.863" y="0"/>
			<point x="160" y="0" type="curve"/>
			<point x="193.137" y="0"/>
			<point x="220" y="26.863"/>
			<point x="220" y="60" type="curve"/>
			<point x="220" y="1340" type="line"/>
			<point x="220" y="1373.137"/>
			<point x="193.137" y="1400"/>
			<point x="160" y="1400" type="curve"/>
			<point x="126.863" y="1400"/>
			<point x="100" y="1373.137"/>
		</contour>
		<contour>
			<point x="803.827" y="738.978" type="curve"/>
			<point x="207.57" y="1376.681" type="line"/>
			<point x="196.627" y="1388.301"/>
			<point x="181.101" y="1395.556"/>
			<point x="163.88" y="1395.556" type="curve"/>
			<point x="130.743" y="1395.556"/>
			<point x="103.88" y="1368.693"/>
			<point x="103.88" y="1335.556" type="curve"/>
			<point x="103.88" y="1319.639"/>
			<point x="110.078" y="1305.17"/>
			<point x="120.191" y="1294.43" type="curve"/>
			<point x="716.173" y="657.022" type="line"/>
			<point x="727.122" y="645.316"/>
			<point x="742.707" y="638"/>
			<point x="760" y="638" type="curve"/>
			<point x="793.137" y="638"/>
			<point x="820" y="664.863"/>
			<point x="820" y="698" type="curve"/>
			<point x="820" y="713.844"/>
			<point x="813.859" y="728.254"/>
		</contour>
		<contour>
			<point x="1300" y="1340" type="curve"/>
			<point x="1300" y="60" type="line"/>
			<point x="1300" y="26.863"/>
			<point x="1326.863" y="0"/>
			<point x="1360" y="0" type="curve"/>
			<point x="1393.137" y="0"/>
			<point x="1420" y="26.863"/>
			<point x="1420" y="60" type="curve"/>
			<point x="1420" y="1340" type="line"/>
			<point x="1420" y="1373.137"/>
			<point x="1393.137" y="1400"/>
			<point x="1360" y="1400" type="curve"/>
			<point x="1326.863" y="1400"/>
			<point x="1300" y="1373.137"/>
		</contour>
	</outline>
</glyph>
<glyph name="N" format="2">
	<advance width="1413"/>
	<unicode hex="004E"/>
	<unicode hex="006E"/>
	<anchor x="707" y="0" name="bottom"/>
	<anchor x="707" y="1400" name="top"/>
	<outline>
		<contour>
			<point x="220" y="60" type="curve"/>
			<point x="220" y="1340" type="line"/>
			<point x="220" y="1373.137"/>
			<point x="193.137" y="1400"/>
			<point x="160" y="1400" type="curve"/>
			<point x="126.863" y="1400"/>
			<point x="100" y="1373.137"/>
			<point x="100" y="1340" type="curve"/>
			<point x="100" y="60" type="line"/>
			<point x="100" y="26.863"/>
			<point x="126.863" y="0"/>
			<point x="160" y="0" type="curve"/>
			<point x="193.137" y="0"/>
			<point x="220" y="26.863"/>
		</contour>
		<contour>
			<point x="509.748" y="964.335" type="curve"/>
			<point x="1206.749" y="21.337" type="line"/>
			<point x="1303.251" y="92.663" type="line"/>
			<point x="606.252" y="1035.665" type="line"/>
			<point x="595.324" y="1050.429"/>
			<point x="577.78" y="1060"/>
			<point x="558" y="1060" type="curve"/>
			<point x="524.863" y="1060"/>
			<point x="498" y="1033.137"/>
			<point x="498" y="1000" type="curve"/>
			<point x="498" y="986.642"/>
			<point x="502.365" y="974.304"/>
		</contour>
		<contour>
			<point x="1313" y="60" type="curve"/>
			<point x="1313" y="1340" type="line"/>
			<point x="1313" y="1373.137"/>
			<point x="1286.137" y="1400"/>
			<point x="1253" y="1400" type="curve"/>
			<point x="1219.863" y="1400"/>
			<point x="1193" y="1373.137"/>
			<point x="1193" y="1340" type="curve"/>
			<point x="1193" y="60" type="line"/>
			<point x="1193" y="26.863"/>
			<point x="1219.863" y="0"/>
			<point x="1253" y="0" type="curve"/>
			<point x="1286.137" y="0"/>
			<point x="1313" y="26.863"/>
		</contour>
	</outline>
</glyph>
<glyph name="O" format="2">
	<advance width="1560"/>
	<unicode hex="004F"/>
	<unicode hex="006F"/>
	<anchor x="780" y="0" name="bottom"/>
	<anchor x="780" y="700" name="center"/>
	<anchor x="780" y="0" name="ogonek"/>
	<anchor x="780" y="1400" name="top"/>
	<anchor x="40" y="1400" name="topleft"/>
	<anchor x="1228" y="1196" name="topright"/>
	<outline>
		<contour>
			<point x="285" y="1136" type="curve" smooth="yes"/>
			<point x="318" y="1136"/>
			<point x="345" y="1163"/>
			<point x="345" y="1196" type="curve" smooth="yes"/>
			<point x="345" y="1229"/>
			<point x="318" y="1256"/>
			<point x="285" y="1256" type="curve" smooth="yes"/>
			<point x="252" y="1256"/>
			<point x="225" y="1229"/>
			<point x="225" y="1196" type="curve" smooth="yes"/>
			<point x="225" y="1163"/>
			<point x="252" y="1136"/>
		</contour>
		<contour>
			<point x="780" y="1280" type="curve"/>
			<point x="1101" y="1280"/>
			<point x="1360" y="1021"/>
			<point x="1360" y="700" type="curve"/>
			<point x="1360" y="379"/>
			<point x="1101" y="120"/>
			<point x="780" y="120" type="curve"/>
			<point x="459" y="120"/>
			<point x="200" y="379"/>
			<point x="200" y="700" type="curve"/>
			<point x="200" y="733.137"/>
			<point x="173.137" y="760"/>
			<point x="140" y="760" type="curve"/>
			<point x="106.863" y="760"/>
			<point x="80" y="733.137"/>
			<point x="80" y="700" type="curve"/>
			<point x="80" y="312.894"/>
			<point x="392.894" y="0"/>
			<point x="780" y="0" type="curve"/>
			<point x="1167.106" y="0"/>
			<point x="1480" y="312.894"/>
			<point x="1480" y="700" type="curve"/>
			<point x="1480" y="1087.106"/>
			<point x="1167.106" y="1400"/>
			<point x="780" y="1400" type="curve"/>
			<point x="746.863" y="1400"/>
			<point x="720" y="1373.137"/>
			<point x="720" y="1340" type="curve"/>
			<point x="720" y="1306.863"/>
			<point x="746.863" y="1280"/>
		</contour>
	</outline>
</glyph>
<glyph name="P" format="2">
	<advance width="1176"/>
	<unicode hex="0050"/>
	<unicode hex="0070"/>
	<anchor x="576" y="0" name="bottom"/>
	<anchor x="576" y="1400" name="top"/>
	<outline>
		<contour>
			<point x="220" y="60" type="curve" smooth="yes"/>
			<point x="220" y="661" type="line" smooth="yes"/>
			<point x="220" y="694"/>
			<point x="193" y="721"/>
			<point x="160" y="721" type="curve" smooth="yes"/>
			<point x="127" y="721"/>
			<point x="100" y="694"/>
			<point x="100" y="661" type="curve" smooth="yes"/>
			<point x="100" y="60" type="line" smooth="yes"/>
			<point x="100" y="27"/>
			<point x="127" y="0"/>
			<point x="160" y="0" type="curve" smooth="yes"/>
			<point x="193" y="0"/>
			<point x="220" y="27"/>
		</contour>
		<contour>
			<point x="558" y="605" type="curve" smooth="yes"/>
			<point x="704" y="605" type="line" smooth="yes"/>
			<point x="923" y="605"/>
			<point x="1101" y="783"/>
			<point x="1101" y="1003" type="curve" smooth="yes"/>
			<point x="1101" y="1222"/>
			<point x="923" y="1400"/>
			<point x="704" y="1400" type="curve" smooth="yes"/>
			<point x="160" y="1400" type="line" smooth="yes"/>
			<point x="127" y="1400"/>
			<point x="100" y="1373"/>
			<point x="100" y="1340" type="curve" smooth="yes"/>
			<point x="100" y="1307"/>
			<point x="127" y="1280"/>
			<point x="160" y="1280" type="curve" smooth="yes"/>
			<point x="704" y="1280" type="line" smooth="yes"/>
			<point x="857" y="1280"/>
			<point x="981" y="1156"/>
			<point x="981" y="1003" type="curve" smooth="yes"/>
			<point x="981" y="849"/>
			<point x="857" y="725"/>
			<point x="704" y="725" type="curve" smooth="yes"/>
			<point x="558" y="725" type="line" smooth="yes"/>
			<point x="525" y="725"/>
			<point x="498" y="698"/>
			<point x="498" y="665" type="curve" smooth="yes"/>
			<point x="498" y="632"/>
			<point x="525" y="605"/>
		</contour>
	</outline>
</glyph>
<glyph name="Q" format="2">
	<advance width="1560"/>
	<unicode hex="0051"/>
	<unicode hex="0071"/>
	<anchor x="780" y="0" name="bottom"/>
	<anchor x="780" y="1400" name="top"/>
	<outline>
		<contour>
			<point x="1461.426" y="102.426" type="curve"/>
			<point x="1045.61" y="518.243" type="line"/>
			<point x="1034.752" y="529.101"/>
			<point x="1019.752" y="535.816"/>
			<point x="1003.184" y="535.816" type="curve"/>
			<point x="970.046" y="535.816"/>
			<point x="943.184" y="508.954"/>
			<point x="943.184" y="475.816" type="curve"/>
			<point x="943.184" y="459.248"/>
			<point x="949.899" y="444.248"/>
			<point x="960.757" y="433.39" type="curve"/>
			<point x="1376.574" y="17.574" type="line"/>
			<point x="1387.431" y="6.716"/>
			<point x="1402.431" y="0"/>
			<point x="1419" y="0" type="curve"/>
			<point x="1452.137" y="0"/>
			<point x="1479" y="26.863"/>
			<point x="1479" y="60" type="curve"/>
			<point x="1479" y="76.569"/>
			<point x="1472.284" y="91.569"/>
		</contour>
		<contour>
			<point x="780" y="120" type="curve"/>
			<point x="459" y="120"/>
			<point x="200" y="379"/>
			<point x="200" y="700" type="curve"/>
			<point x="200" y="1021"/>
			<point x="459" y="1280"/>
			<point x="780" y="1280" type="curve"/>
			<point x="1101" y="1280"/>
			<point x="1360" y="1021"/>
			<point x="1360" y="700" type="curve"/>
			<point x="1360" y="666.863"/>
			<point x="1386.863" y="640"/>
			<point x="1420" y="640" type="curve"/>
			<point x="1453.137" y="640"/>
			<point x="1480" y="666.863"/>
			<point x="1480" y="700" type="curve"/>
			<point x="1480" y="1087.106"/>
			<point x="1167.106" y="1400"/>
			<point x="780" y="1400" type="curve"/>
			<point x="392.894" y="1400"/>
			<point x="80" y="1087.106"/>
			<point x="80" y="700" type="curve"/>
			<point x="80" y="312.894"/>
			<point x="392.894" y="0"/>
			<point x="780" y="0" type="curve"/>
			<point x="813.137" y="0"/>
			<point x="840" y="26.863"/>
			<point x="840" y="60" type="curve"/>
			<point x="840" y="93.137"/>
			<point x="813.137" y="120"/>
		</contour>
	</outline>
</glyph>
<glyph name="R" format="2">
	<advance width="1158"/>
	<unicode hex="0052"/>
	<unicode hex="0072"/>
	<anchor x="579" y="0" name="bottom"/>
	<anchor x="579" y="1400" name="top"/>
	<outline>
		<contour>
			<point x="236" y="60" type="curve"/>
			<point x="236" y="661" type="line"/>
			<point x="236" y="694.137"/>
			<point x="209.137" y="721"/>
			<point x="176" y="721" type="curve"/>
			<point x="142.863" y="721"/>
			<point x="116" y="694.137"/>
			<point x="116" y="661" type="curve"/>
			<point x="116" y="60" type="line"/>
			<point x="116" y="26.863"/>
			<point x="142.863" y="0"/>
			<point x="176" y="0" type="curve"/>
			<point x="209.137" y="0"/>
			<point x="236" y="26.863"/>
		</contour>
		<contour>
			<point x="1075.873" y="96.742" type="curve"/>
			<point x="618.832" y="700.225" type="line"/>
			<point x="607.877" y="714.671"/>
			<point x="590.528" y="724"/>
			<point x="571" y="724" type="curve"/>
			<point x="537.863" y="724"/>
			<point x="511" y="697.137"/>
			<point x="511" y="664" type="curve"/>
			<point x="511" y="650.391"/>
			<point x="515.531" y="637.84"/>
			<point x="523.168" y="627.775" type="curve"/>
			<point x="980.923" y="23.353" type="line"/>
			<point x="991.898" y="9.175"/>
			<point x="1009.082" y="0.048"/>
			<point x="1028.398" y="0.048" type="curve"/>
			<point x="1061.535" y="0.048"/>
			<point x="1088.398" y="26.91"/>
			<point x="1088.398" y="60.048" type="curve"/>
			<point x="1088.398" y="73.869"/>
			<point x="1083.725" y="86.598"/>
		</contour>
		<contour>
			<point x="571" y="605" type="curve"/>
			<point x="654" y="605" type="line"/>
			<point x="873.106" y="605"/>
			<point x="1051" y="782.894"/>
			<point x="1051" y="1003" type="curve"/>
			<point x="1051" y="1222.106"/>
			<point x="873.106" y="1400"/>
			<point x="654" y="1400" type="curve"/>
			<point x="160" y="1400" type="line"/>
			<point x="126.863" y="1400"/>
			<point x="100" y="1373.137"/>
			<point x="100" y="1340" type="curve"/>
			<point x="100" y="1306.863"/>
			<point x="126.863" y="1280"/>
			<point x="160" y="1280" type="curve"/>
			<point x="654" y="1280" type="line"/>
			<point x="807" y="1280"/>
			<point x="931" y="1156"/>
			<point x="931" y="1003" type="curve"/>
			<point x="931" y="849"/>
			<point x="807" y="725"/>
			<point x="654" y="725" type="curve"/>
			<point x="571" y="725" type="line"/>
			<point x="537.863" y="725"/>
			<point x="511" y="698.137"/>
			<point x="511" y="665" type="curve"/>
			<point x="511" y="631.863"/>
			<point x="537.863" y="605"/>
		</contour>
	</outline>
</glyph>
<glyph name="S" format="2">
	<advance width="1166"/>
	<unicode hex="0053"/>
	<unicode hex="0073"/>
	<anchor x="523" y="0" name="bottom"/>
	<anchor x="583" y="1400" name="top"/>
	<outline>
		<contour>
			<point x="960" y="348" type="curve"/>
			<point x="960" y="222"/>
			<point x="858" y="120"/>
			<point x="732" y="120" type="curve"/>
			<point x="140" y="120" type="line"/>
			<point x="106.863" y="120"/>
			<point x="80" y="93.137"/>
			<point x="80" y="60" type="curve"/>
			<point x="80" y="26.863"/>
			<point x="106.863" y="0"/>
			<point x="140" y="0" type="curve"/>
			<point x="732" y="0" type="line"/>
			<point x="924.106" y="0"/>
			<point x="1080" y="155.894"/>
			<point x="1080" y="348" type="curve"/>
			<point x="1080" y="381.137"/>
			<point x="1053.137" y="408"/>
			<point x="1020" y="408" type="curve"/>
			<point x="986.863" y="408"/>
			<point x="960" y="381.137"/>
		</contour>
		<contour>
			<point x="692" y="760" type="curve"/>
			<point x="475" y="760" type="line"/>
			<point x="441.863" y="760"/>
			<point x="415" y="733.137"/>
			<point x="415" y="700" type="curve"/>
			<point x="415" y="666.863"/>
			<point x="441.863" y="640"/>
			<point x="475" y="640" type="curve"/>
			<point x="692" y="640" type="line"/>
			<point x="725.137" y="640"/>
			<point x="752" y="666.863"/>
			<point x="752" y="700" type="curve"/>
			<point x="752" y="733.137"/>
			<point x="725.137" y="760"/>
		</contour>
		<contour>
			<point x="206" y="1052" type="curve"/>
			<point x="206" y="1178"/>
			<point x="308" y="1280"/>
			<point x="434" y="1280" type="curve"/>
			<point x="1026" y="1280" type="line"/>
			<point x="1059.137" y="1280"/>
			<point x="1086" y="1306.863"/>
			<point x="1086" y="1340" type="curve"/>
			<point x="1086" y="1373.137"/>
			<point x="1059.137" y="1400"/>
			<point x="1026" y="1400" type="curve"/>
			<point x="434" y="1400" type="line"/>
			<point x="241.894" y="1400"/>
			<point x="86" y="1244.106"/>
			<point x="86" y="1052" type="curve"/>
			<point x="86" y="1018.863"/>
			<point x="112.863" y="992"/>
			<point x="146" y="992" type="curve"/>
			<point x="179.137" y="992"/>
			<point x="206" y="1018.863"/>
		</contour>
	</outline>
</glyph>
<glyph name="T" format="2">
	<advance width="1250"/>
	<unicode hex="0054"/>
	<unicode hex="0074"/>
	<anchor x="565" y="0" name="bottom"/>
	<anchor x="625" y="700" name="center"/>
	<anchor x="625" y="1400" name="top"/>
	<outline>
		<contour>
			<point x="565" y="1346" type="line"/>
			<point x="565" y="60" type="line"/>
			<point x="565" y="26.863"/>
			<point x="591.863" y="0"/>
			<point x="625" y="0" type="curve"/>
			<point x="658.137" y="0"/>
			<point x="685" y="26.863"/>
			<point x="685" y="60" type="curve"/>
			<point x="685" y="1346" type="line"/>
		</contour>
		<contour>
			<point x="130" y="1280" type="curve"/>
			<point x="625" y="1280" type="line"/>
			<point x="658.137" y="1280"/>
			<point x="685" y="1306.863"/>
			<point x="685" y="1340" type="curve"/>
			<point x="685" y="1373.137"/>
			<point x="658.137" y="1400"/>
			<point x="625" y="1400" type="curve"/>
			<point x="130" y="1400" type="line"/>
			<point x="96.863" y="1400"/>
			<point x="70" y="1373.137"/>
			<point x="70" y="1340" type="curve"/>
			<point x="70" y="1306.863"/>
			<point x="96.863" y="1280"/>
		</contour>
		<contour>
			<point x="915" y="1280" type="curve"/>
			<point x="1120" y="1280" type="line"/>
			<point x="1153.137" y="1280"/>
			<point x="1180" y="1306.863"/>
			<point x="1180" y="1340" type="curve"/>
			<point x="1180" y="1373.137"/>
			<point x="1153.137" y="1400"/>
			<point x="1120" y="1400" type="curve"/>
			<point x="915" y="1400" type="line"/>
			<point x="881.863" y="1400"/>
			<point x="855" y="1373.137"/>
			<point x="855" y="1340" type="curve"/>
			<point x="855" y="1306.863"/>
			<point x="881.863" y="1280"/>
		</contour>
	</outline>
</glyph>
<glyph name="U" format="2">
	<advance width="1196"/>
	<unicode hex="0055"/>
	<unicode hex="0075"/>
	<anchor x="598" y="0" name="bottom"/>
	<anchor x="628" y="2" name="ogonek"/>
	<anchor x="598" y="1400" name="top"/>
	<anchor x="977" y="1341" name="topright"/>
	<outline>
		<contour>
			<point x="220" y="899" type="curve"/>
			<point x="220" y="1340" type="line"/>
			<point x="220" y="1373.137"/>
			<point x="193.137" y="1400"/>
			<point x="160" y="1400" type="curve"/>
			<point x="126.863" y="1400"/>
			<point x="100" y="1373.137"/>
			<point x="100" y="1340" type="curve"/>
			<point x="100" y="899" type="line"/>
			<point x="100" y="865.863"/>
			<point x="126.863" y="839"/>
			<point x="160" y="839" type="curve"/>
			<point x="193.137" y="839"/>
			<point x="220" y="865.863"/>
		</contour>
		<contour>
			<point x="976" y="1340" type="curve"/>
			<point x="976" y="498" type="line"/>
			<point x="976" y="289"/>
			<point x="807" y="120"/>
			<point x="599" y="120" type="curve"/>
			<point x="390" y="120"/>
			<point x="221" y="289"/>
			<point x="221" y="498" type="curve"/>
			<point x="221" y="531.137"/>
			<point x="194.137" y="558"/>
			<point x="161" y="558" type="curve"/>
			<point x="127.863" y="558"/>
			<point x="101" y="531.137"/>
			<point x="101" y="498" type="curve"/>
			<point x="101" y="222.894"/>
			<point x="323.894" y="0"/>
			<point x="599" y="0" type="curve"/>
			<point x="873.106" y="0"/>
			<point x="1096" y="222.894"/>
			<point x="1096" y="498" type="curve"/>
			<point x="1096" y="1340" type="line"/>
			<point x="1096" y="1373.137"/>
			<point x="1069.137" y="1400"/>
			<point x="1036" y="1400" type="curve"/>
			<point x="1002.863" y="1400"/>
			<point x="976" y="1373.137"/>
		</contour>
	</outline>
</glyph>
<glyph name="V" format="2">
	<advance width="1412"/>
	<unicode hex="0056"/>
	<unicode hex="0076"/>
	<anchor x="706" y="0" name="bottom"/>
	<anchor x="706" y="1400" name="top"/>
	<outline>
		<contour>
			<point x="439" y="763" type="curve" smooth="yes"/>
			<point x="185" y="1365" type="line" smooth="yes"/>
			<point x="175" y="1386"/>
			<point x="154" y="1400"/>
			<point x="130" y="1400" type="curve" smooth="yes"/>
			<point x="97" y="1400"/>
			<point x="70" y="1373"/>
			<point x="70" y="1340" type="curve" smooth="yes"/>
			<point x="70" y="1331"/>
			<point x="72" y="1323"/>
			<point x="75" y="1316" type="curve" smooth="yes"/>
			<point x="329" y="714" type="line" smooth="yes"/>
			<point x="339" y="693"/>
			<point x="360" y="679"/>
			<point x="384" y="679" type="curve" smooth="yes"/>
			<point x="417" y="679"/>
			<point x="444" y="706"/>
			<point x="444" y="739" type="curve" smooth="yes"/>
			<point x="444" y="748"/>
			<point x="442" y="756"/>
		</contour>
		<contour>
			<point x="788" y="35" type="curve" smooth="yes"/>
			<point x="1336" y="1316" type="line"/>
			<point x="1340" y="1323"/>
			<point x="1342" y="1331"/>
			<point x="1342" y="1340" type="curve" smooth="yes"/>
			<point x="1342" y="1373"/>
			<point x="1315" y="1400"/>
			<point x="1282" y="1400" type="curve" smooth="yes"/>
			<point x="1257" y="1400"/>
			<point x="1237" y="1386"/>
			<point x="1227" y="1365" type="curve" smooth="yes"/>
			<point x="679" y="84" type="line"/>
			<point x="675" y="77"/>
			<point x="673" y="69"/>
			<point x="673" y="60" type="curve" smooth="yes"/>
			<point x="673" y="27"/>
			<point x="700" y="0"/>
			<point x="733" y="0" type="curve" smooth="yes"/>
			<point x="758" y="0"/>
			<point x="778" y="14"/>
		</contour>
	</outline>
</glyph>
<glyph name="X" format="2">
	<advance width="1267"/>
	<unicode hex="0058"/>
	<unicode hex="0078"/>
	<anchor x="635" y="0" name="bottom"/>
	<anchor x="635" y="1400" name="top"/>
	<outline>
		<contour>
			<point x="352.803" y="439.049" type="curve"/>
			<point x="83.476" y="95.943" type="line"/>
			<point x="75.258" y="85.677"/>
			<point x="70.343" y="72.651"/>
			<point x="70.343" y="58.476" type="curve"/>
			<point x="70.343" y="25.339"/>
			<point x="97.206" y="-1.524"/>
			<point x="130.343" y="-1.524" type="curve"/>
			<point x="149.306" y="-1.524"/>
			<point x="166.215" y="7.274"/>
			<point x="177.21" y="21.01" type="curve"/>
			<point x="447.197" y="364.951" type="line"/>
			<point x="455.217" y="375.152"/>
			<point x="460" y="388.017"/>
			<point x="460" y="402" type="curve"/>
			<point x="460" y="435.137"/>
			<point x="433.137" y="462"/>
			<point x="400" y="462" type="curve"/>
			<point x="380.845" y="462"/>
			<point x="363.787" y="453.024"/>
		</contour>
		<contour>
			<point x="85.486" y="1302.055" type="curve"/>
			<point x="1089.789" y="23" type="line"/>
			<point x="1100.784" y="9.267"/>
			<point x="1117.691" y="0.472"/>
			<point x="1136.651" y="0.472" type="curve"/>
			<point x="1169.789" y="0.472"/>
			<point x="1196.651" y="27.335"/>
			<point x="1196.651" y="60.472" type="curve"/>
			<point x="1196.651" y="74.649"/>
			<point x="1191.735" y="87.677"/>
			<point x="1183.514" y="97.945" type="curve"/>
			<point x="179.211" y="1377" type="line"/>
			<point x="168.216" y="1390.733"/>
			<point x="151.309" y="1399.528"/>
			<point x="132.349" y="1399.528" type="curve"/>
			<point x="99.211" y="1399.528"/>
			<point x="72.349" y="1372.665"/>
			<point x="72.349" y="1339.528" type="curve"/>
			<point x="72.349" y="1325.351"/>
			<point x="77.265" y="1312.323"/>
		</contour>
		<contour>
			<point x="1089.785" y="1376.924" type="curve"/>
			<point x="821.777" y="1035.016" type="line"/>
			<point x="813.773" y="1024.82"/>
			<point x="809" y="1011.968"/>
			<point x="809" y="998" type="curve"/>
			<point x="809" y="964.863"/>
			<point x="835.863" y="938"/>
			<point x="869" y="938" type="curve"/>
			<point x="888.17" y="938"/>
			<point x="905.24" y="946.99"/>
			<point x="916.223" y="960.984" type="curve"/>
			<point x="1183.589" y="1302.078" type="line"/>
			<point x="1191.786" y="1312.338"/>
			<point x="1196.687" y="1325.347"/>
			<point x="1196.687" y="1339.5" type="curve"/>
			<point x="1196.687" y="1372.638"/>
			<point x="1169.824" y="1399.5"/>
			<point x="1136.687" y="1399.5" type="curve"/>
			<point x="1117.703" y="1399.5"/>
			<point x="1100.779" y="1390.685"/>
		</contour>
	</outline>
</glyph>
<glyph name="Y" format="2">
	<advance width="1266"/>
	<unicode hex="0059"/>
	<unicode hex="0079"/>
	<anchor x="633" y="0" name="bottom"/>
	<anchor x="633" y="1400" name="top"/>
	<anchor x="19" y="1400" name="topleft"/>
	<outline>
		<contour>
			<point x="573" y="685" type="curve"/>
			<point x="573" y="60" type="line"/>
			<point x="573" y="26.863"/>
			<point x="599.863" y="0"/>
			<point x="633" y="0" type="curve"/>
			<point x="666.137" y="0"/>
			<point x="693" y="26.863"/>
			<point x="693" y="60" type="curve"/>
			<point x="693" y="685" type="line"/>
			<point x="693" y="718.137"/>
			<point x="666.137" y="745"/>
			<point x="633" y="745" type="curve"/>
			<point x="599.863" y="745"/>
			<point x="573" y="718.137"/>
		</contour>
		<contour>
			<point x="445.223" y="1035.016" type="curve"/>
			<point x="177.205" y="1376.937" type="line"/>
			<point x="166.21" y="1390.69"/>
			<point x="149.291" y="1399.5"/>
			<point x="130.313" y="1399.5" type="curve"/>
			<point x="97.176" y="1399.5"/>
			<point x="70.313" y="1372.638"/>
			<point x="70.313" y="1339.5" type="curve"/>
			<point x="70.313" y="1325.34"/>
			<point x="75.219" y="1312.326"/>
			<point x="83.422" y="1302.064" type="curve"/>
			<point x="350.777" y="960.984" type="line"/>
			<point x="361.76" y="946.99"/>
			<point x="378.83" y="938"/>
			<point x="398" y="938" type="curve"/>
			<point x="431.137" y="938"/>
			<point x="458" y="964.863"/>
			<point x="458" y="998" type="curve"/>
			<point x="458" y="1011.968"/>
			<point x="453.227" y="1024.82"/>
		</contour>
		<contour>
			<point x="1088.79" y="1377.919" type="curve"/>
			<point x="585.772" y="736.009" type="line"/>
			<point x="577.771" y="725.815"/>
			<point x="573" y="712.965"/>
			<point x="573" y="699" type="curve"/>
			<point x="573" y="665.863"/>
			<point x="599.863" y="639"/>
			<point x="633" y="639" type="curve"/>
			<point x="652.173" y="639"/>
			<point x="669.245" y="647.993"/>
			<point x="680.228" y="661.991" type="curve"/>
			<point x="1182.595" y="1303.073" type="line"/>
			<point x="1190.792" y="1313.333"/>
			<point x="1195.693" y="1326.342"/>
			<point x="1195.693" y="1340.496" type="curve"/>
			<point x="1195.693" y="1373.633"/>
			<point x="1168.83" y="1400.496"/>
			<point x="1135.693" y="1400.496" type="curve"/>
			<point x="1116.709" y="1400.496"/>
			<point x="1099.785" y="1391.68"/>
		</contour>
	</outline>
</glyph>
<glyph name="Z" format="2">
	<advance width="1246"/>
	<unicode hex="005A"/>
	<unicode hex="007A"/>
	<anchor x="623" y="0" name="bottom"/>
	<anchor x="623" y="700" name="center"/>
	<anchor x="623" y="1400" name="top"/>
	<outline>
		<contour>
			<point x="1116" y="120" type="curve" smooth="yes"/>
			<point x="130" y="120" type="line" smooth="yes"/>
			<point x="97" y="120"/>
			<point x="70" y="93"/>
			<point x="70" y="60" type="curve" smooth="yes"/>
			<point x="70" y="27"/>
			<point x="97" y="0"/>
			<point x="130" y="0" type="curve" smooth="yes"/>
			<point x="1116" y="0" type="line" smooth="yes"/>
			<point x="1149" y="0"/>
			<point x="1176" y="27"/>
			<point x="1176" y="60" type="curve" smooth="yes"/>
			<point x="1176" y="93"/>
			<point x="1149" y="120"/>
		</contour>
		<contour>
			<point x="179" y="26" type="curve" smooth="yes"/>
			<point x="714" y="715" type="line" smooth="yes"/>
			<point x="722" y="725"/>
			<point x="727" y="738"/>
			<point x="727" y="752" type="curve" smooth="yes"/>
			<point x="727" y="785"/>
			<point x="700" y="812"/>
			<point x="667" y="812" type="curve" smooth="yes"/>
			<point x="648" y="812"/>
			<point x="631" y="803"/>
			<point x="620" y="790" type="curve" smooth="yes"/>
			<point x="85" y="101" type="line" smooth="yes"/>
			<point x="77" y="91"/>
			<point x="72" y="78"/>
			<point x="72" y="64" type="curve" smooth="yes"/>
			<point x="72" y="31"/>
			<point x="99" y="4"/>
			<point x="132" y="4" type="curve" smooth="yes"/>
			<point x="151" y="4"/>
			<point x="168" y="13"/>
		</contour>
		<contour>
			<point x="1116" y="1396" type="curve" smooth="yes"/>
			<point x="130" y="1396" type="line" smooth="yes"/>
			<point x="97" y="1396"/>
			<point x="70" y="1369"/>
			<point x="70" y="1336" type="curve" smooth="yes"/>
			<point x="70" y="1303"/>
			<point x="97" y="1276"/>
			<point x="130" y="1276" type="curve" smooth="yes"/>
			<point x="1116" y="1276" type="line" smooth="yes"/>
			<point x="1149" y="1276"/>
			<point x="1176" y="1303"/>
			<point x="1176" y="1336" type="curve" smooth="yes"/>
			<point x="1176" y="1369"/>
			<point x="1149" y="1396"/>
		</contour>
	</outline>
</glyph>
<glyph name="bracketleft" format="2">
	<advance width="615"/>
	<unicode hex="005B"/>
	<outline>
		<contour>
			<point x="455" y="120" type="curve" smooth="yes"/>
			<point x="160" y="120" type="line" smooth="yes"/>
			<point x="127" y="120"/>
			<point x="100" y="93"/>
			<point x="100" y="60" type="curve" smooth="yes"/>
			<point x="100" y="27"/>
			<point x="127" y="0"/>
			<point x="160" y="0" type="curve" smooth="yes"/>
			<point x="455" y="0" type="line" smooth="yes"/>
			<point x="488" y="0"/>
			<point x="515" y="27"/>
			<point x="515" y="60" type="curve" smooth="yes"/>
			<point x="515" y="93"/>
			<point x="488" y="120"/>
		</contour>
		<contour>
			<point x="220" y="60" type="curve" smooth="yes"/>
			<point x="220" y="1030" type="line" smooth="yes"/>
			<point x="220" y="1063"/>
			<point x="193" y="1090"/>
			<point x="160" y="1090" type="curve" smooth="yes"/>
			<point x="127" y="1090"/>
			<point x="100" y="1063"/>
			<point x="100" y="1030" type="curve" smooth="yes"/>
			<point x="100" y="60" type="line" smooth="yes"/>
			<point x="100" y="27"/>
			<point x="127" y="0"/>
			<point x="160" y="0" type="curve" smooth="yes"/>
			<point x="193" y="0"/>
			<point x="220" y="27"/>
		</contour>
		<contour>
			<point x="455" y="1400" type="curve" smooth="yes"/>
			<point x="160" y="1400" type="line" smooth="yes"/>
			<point x="127" y="1400"/>
			<point x="100" y="1373"/>
			<point x="100" y="1340" type="curve" smooth="yes"/>
			<point x="100" y="1307"/>
			<point x="127" y="1280"/>
			<point x="160" y="1280" type="curve" smooth="yes"/>
			<point x="455" y="1280" type="line" smooth="yes"/>
			<point x="488" y="1280"/>
			<point x="515" y="1307"/>
			<point x="515" y="1340" type="curve" smooth="yes"/>
			<point x="515" y="1373"/>
			<point x="488" y="1400"/>
		</contour>
	</outline>
</glyph>
<glyph name="asciicircum" format="2">
	<advance width="816"/>
	<unicode hex="005E"/>
	<outline>
		<contour>
			<point x="363.449" y="1380.478" type="curve"/>
			<point x="115.985" y="1107.494" type="line"/>
			<point x="106.223" y="1096.823"/>
			<point x="100.268" y="1082.611"/>
			<point x="100.268" y="1067.008" type="curve"/>
			<point x="100.268" y="1033.871"/>
			<point x="127.13" y="1007.008"/>
			<point x="160.268" y="1007.008" type="curve"/>
			<point x="177.802" y="1007.008"/>
			<point x="193.58" y="1014.529"/>
			<point x="204.55" y="1026.522" type="curve"/>
			<point x="452.015" y="1299.506" type="line"/>
			<point x="461.777" y="1310.177"/>
			<point x="467.732" y="1324.389"/>
			<point x="467.732" y="1339.992" type="curve"/>
			<point x="467.732" y="1373.129"/>
			<point x="440.87" y="1399.992"/>
			<point x="407.732" y="1399.992" type="curve"/>
			<point x="390.198" y="1399.992"/>
			<point x="374.42" y="1392.471"/>
		</contour>
		<contour>
			<point x="363.985" y="1299.506" type="curve"/>
			<point x="611.45" y="1026.522" type="line"/>
			<point x="622.42" y="1014.529"/>
			<point x="638.198" y="1007.008"/>
			<point x="655.732" y="1007.008" type="curve"/>
			<point x="688.87" y="1007.008"/>
			<point x="715.732" y="1033.871"/>
			<point x="715.732" y="1067.008" type="curve"/>
			<point x="715.732" y="1082.611"/>
			<point x="709.777" y="1096.822"/>
			<point x="700.015" y="1107.494" type="curve"/>
			<point x="452.551" y="1380.478" type="line"/>
			<point x="441.58" y="1392.471"/>
			<point x="425.802" y="1399.992"/>
			<point x="408.268" y="1399.992" type="curve"/>
			<point x="375.13" y="1399.992"/>
			<point x="348.268" y="1373.129"/>
			<point x="348.268" y="1339.992" type="curve"/>
			<point x="348.268" y="1324.389"/>
			<point x="354.223" y="1310.177"/>
		</contour>
	</outline>
</glyph>
<glyph name="underscore" format="2">
	<advance width="1307"/>
	<unicode hex="005F"/>
	<outline>
		<contour>
			<point x="1147" y="0" type="curve" smooth="yes"/>
			<point x="160" y="0" type="line" smooth="yes"/>
			<point x="127" y="0"/>
			<point x="100" y="-27"/>
			<point x="100" y="-60" type="curve" smooth="yes"/>
			<point x="100" y="-93"/>
			<point x="127" y="-120"/>
			<point x="160" y="-120" type="curve" smooth="yes"/>
			<point x="1147" y="-120" type="line" smooth="yes"/>
			<point x="1180" y="-120"/>
			<point x="1207" y="-93"/>
			<point x="1207" y="-60" type="curve" smooth="yes"/>
			<point x="1207" y="-27"/>
			<point x="1180" y="0"/>
		</contour>
	</outline>
</glyph>
<glyph name="grave" format="2">
	<advance width="488"/>
	<unicode hex="0060"/>
	<outline>
		<contour>
			<point x="76" y="1300" type="curve" smooth="yes"/>
			<point x="323" y="1027" type="line" smooth="yes"/>
			<point x="334" y="1015"/>
			<point x="350" y="1007"/>
			<point x="368" y="1007" type="curve" smooth="yes"/>
			<point x="401" y="1007"/>
			<point x="428" y="1034"/>
			<point x="428" y="1067" type="curve" smooth="yes"/>
			<point x="428" y="1083"/>
			<point x="422" y="1097"/>
			<point x="412" y="1107" type="curve" smooth="yes"/>
			<point x="165" y="1380" type="line" smooth="yes"/>
			<point x="154" y="1392"/>
			<point x="138" y="1400"/>
			<point x="120" y="1400" type="curve" smooth="yes"/>
			<point x="87" y="1400"/>
			<point x="60" y="1373"/>
			<point x="60" y="1340" type="curve" smooth="yes"/>
			<point x="60" y="1324"/>
			<point x="66" y="1310"/>
		</contour>
	</outline>
</glyph>
<glyph name="braceleft" format="2">
	<advance width="700"/>
	<unicode hex="007B"/>
	<outline>
		<contour>
			<point x="160" y="640" type="curve" smooth="yes"/>
			<point x="193" y="640"/>
			<point x="220" y="667"/>
			<point x="220" y="700" type="curve" smooth="yes"/>
			<point x="220" y="733"/>
			<point x="193" y="760"/>
			<point x="160" y="760" type="curve" smooth="yes"/>
			<point x="127" y="760"/>
			<point x="100" y="733"/>
			<point x="100" y="700" type="curve" smooth="yes"/>
			<point x="100" y="667"/>
			<point x="127" y="640"/>
		</contour>
		<contour>
			<point x="540" y="120" type="curve" smooth="yes"/>
			<point x="443" y="120"/>
			<point x="366" y="198"/>
			<point x="366" y="293" type="curve" smooth="yes"/>
			<point x="366" y="522" type="line" smooth="yes"/>
			<point x="366" y="555"/>
			<point x="339" y="582"/>
			<point x="306" y="582" type="curve" smooth="yes"/>
			<point x="273" y="582"/>
			<point x="246" y="555"/>
			<point x="246" y="522" type="curve" smooth="yes"/>
			<point x="246" y="293" type="line" smooth="yes"/>
			<point x="246" y="132"/>
			<point x="377" y="0"/>
			<point x="540" y="0" type="curve" smooth="yes"/>
			<point x="573" y="0"/>
			<point x="600" y="27"/>
			<point x="600" y="60" type="curve" smooth="yes"/>
			<point x="600" y="93"/>
			<point x="573" y="120"/>
		</contour>
		<contour>
			<point x="366" y="878" type="curve" smooth="yes"/>
			<point x="366" y="1107" type="line" smooth="yes"/>
			<point x="366" y="1202"/>
			<point x="443" y="1280"/>
			<point x="540" y="1280" type="curve" smooth="yes"/>
			<point x="573" y="1280"/>
			<point x="600" y="1307"/>
			<point x="600" y="1340" type="curve" smooth="yes"/>
			<point x="600" y="1373"/>
			<point x="573" y="1400"/>
			<point x="540" y="1400" type="curve" smooth="yes"/>
			<point x="377" y="1400"/>
			<point x="246" y="1268"/>
			<point x="246" y="1107" type="curve" smooth="yes"/>
			<point x="246" y="878" type="line" smooth="yes"/>
			<point x="246" y="845"/>
			<point x="273" y="818"/>
			<point x="306" y="818" type="curve" smooth="yes"/>
			<point x="339" y="818"/>
			<point x="366" y="845"/>
		</contour>
	</outline>
</glyph>
<glyph name="bar" format="2">
	<advance width="320"/>
	<unicode hex="007C"/>
	<outline>
		<contour>
			<point x="220" y="60" type="curve" smooth="yes"/>
			<point x="220" y="1340" type="line" smooth="yes"/>
			<point x="220" y="1373"/>
			<point x="193" y="1400"/>
			<point x="160" y="1400" type="curve" smooth="yes"/>
			<point x="127" y="1400"/>
			<point x="100" y="1373"/>
			<point x="100" y="1340" type="curve" smooth="yes"/>
			<point x="100" y="60" type="line" smooth="yes"/>
			<point x="100" y="27"/>
			<point x="127" y="0"/>
			<point x="160" y="0" type="curve" smooth="yes"/>
			<point x="193" y="0"/>
			<point x="220" y="27"/>
		</contour>
	</outline>
</glyph>
<glyph name="asciitilde" format="2">
	<advance width="868"/>
	<unicode hex="007E"/>
	<outline>
		<contour>
			<point x="656.247" y="764.368" type="curve"/>
			<point x="603.845" y="675.054"/>
			<point x="557.617" y="677.773"/>
			<point x="471.538" y="746.807" type="curve"/>
			<point x="349.376" y="844.778"/>
			<point x="201.894" y="855.954"/>
			<point x="108.247" y="696.368" type="curve"/>
			<point x="103.004" y="687.462"/>
			<point x="100" y="677.082"/>
			<point x="100" y="666" type="curve"/>
			<point x="100" y="632.863"/>
			<point x="126.863" y="606"/>
			<point x="160" y="606" type="curve"/>
			<point x="182.056" y="606"/>
			<point x="201.332" y="617.9"/>
			<point x="211.753" y="635.632" type="curve"/>
			<point x="264.155" y="724.946"/>
			<point x="310.383" y="722.227"/>
			<point x="396.462" y="653.193" type="curve"/>
			<point x="518.624" y="555.222"/>
			<point x="666.106" y="544.046"/>
			<point x="759.753" y="703.632" type="curve"/>
			<point x="764.996" y="712.538"/>
			<point x="768" y="722.918"/>
			<point x="768" y="734" type="curve"/>
			<point x="768" y="767.137"/>
			<point x="741.137" y="794"/>
			<point x="708" y="794" type="curve"/>
			<point x="685.944" y="794"/>
			<point x="666.668" y="782.1"/>
		</contour>
	</outline>
</glyph>
<glyph name="sterling" format="2">
	<advance width="1348"/>
	<unicode hex="00A3"/>
	<outline>
		<contour>
			<point x="160" y="1" type="curve" smooth="yes"/>
			<point x="1188" y="0" type="line" smooth="yes"/>
			<point x="1221" y="0"/>
			<point x="1248" y="27"/>
			<point x="1248" y="60" type="curve" smooth="yes"/>
			<point x="1248" y="93"/>
			<point x="1221" y="120"/>
			<point x="1188" y="120" type="curve" smooth="yes"/>
			<point x="160" y="121" type="line" smooth="yes"/>
			<point x="127" y="121"/>
			<point x="100" y="94"/>
			<point x="100" y="61" type="curve" smooth="yes"/>
			<point x="100" y="28"/>
			<point x="127" y="1"/>
		</contour>
		<contour>
			<point x="160" y="423" type="curve" smooth="yes"/>
			<point x="542" y="423" type="line" smooth="yes"/>
			<point x="575" y="423"/>
			<point x="602" y="450"/>
			<point x="602" y="483" type="curve" smooth="yes"/>
			<point x="602" y="516"/>
			<point x="575" y="543"/>
			<point x="542" y="543" type="curve" smooth="yes"/>
			<point x="160" y="543" type="line" smooth="yes"/>
			<point x="127" y="543"/>
			<point x="100" y="516"/>
			<point x="100" y="483" type="curve" smooth="yes"/>
			<point x="100" y="450"/>
			<point x="127" y="423"/>
		</contour>
		<contour>
			<point x="372" y="898" type="curve" smooth="yes"/>
			<point x="372" y="1107"/>
			<point x="541" y="1276"/>
			<point x="749" y="1276" type="curve" smooth="yes"/>
			<point x="958" y="1276"/>
			<point x="1127" y="1107"/>
			<point x="1127" y="898" type="curve" smooth="yes"/>
			<point x="1127" y="865"/>
			<point x="1154" y="838"/>
			<point x="1187" y="838" type="curve" smooth="yes"/>
			<point x="1220" y="838"/>
			<point x="1247" y="865"/>
			<point x="1247" y="898" type="curve" smooth="yes"/>
			<point x="1247" y="1173"/>
			<point x="1024" y="1396"/>
			<point x="749" y="1396" type="curve" smooth="yes"/>
			<point x="475" y="1396"/>
			<point x="252" y="1173"/>
			<point x="252" y="898" type="curve" smooth="yes"/>
			<point x="252" y="865"/>
			<point x="279" y="838"/>
			<point x="312" y="838" type="curve" smooth="yes"/>
			<point x="345" y="838"/>
			<point x="372" y="865"/>
		</contour>
	</outline>
</glyph>
<glyph name="yen" format="2">
	<advance width="1258"/>
	<unicode hex="00A5"/>
	<outline>
		<contour>
			<point x="260" y="203" type="curve" smooth="yes"/>
			<point x="998" y="203" type="line" smooth="yes"/>
			<point x="1031" y="203"/>
			<point x="1058" y="230"/>
			<point x="1058" y="263" type="curve" smooth="yes"/>
			<point x="1058" y="296"/>
			<point x="1031" y="323"/>
			<point x="998" y="323" type="curve" smooth="yes"/>
			<point x="260" y="323" type="line" smooth="yes"/>
			<point x="227" y="323"/>
			<point x="200" y="296"/>
			<point x="200" y="263" type="curve" smooth="yes"/>
			<point x="200" y="230"/>
			<point x="227" y="203"/>
		</contour>
		<contour>
			<point x="260" y="463" type="curve" smooth="yes"/>
			<point x="998" y="463" type="line" smooth="yes"/>
			<point x="1031" y="463"/>
			<point x="1058" y="490"/>
			<point x="1058" y="523" type="curve" smooth="yes"/>
			<point x="1058" y="556"/>
			<point x="1031" y="583"/>
			<point x="998" y="583" type="curve" smooth="yes"/>
			<point x="260" y="583" type="line" smooth="yes"/>
			<point x="227" y="583"/>
			<point x="200" y="556"/>
			<point x="200" y="523" type="curve" smooth="yes"/>
			<point x="200" y="490"/>
			<point x="227" y="463"/>
		</contour>
		<contour>
			<point x="437" y="1110" type="curve" smooth="yes"/>
			<point x="174" y="1385" type="line" smooth="yes"/>
			<point x="163" y="1396"/>
			<point x="147" y="1403"/>
			<point x="130" y="1403" type="curve" smooth="yes"/>
			<point x="97" y="1403"/>
			<point x="70" y="1376"/>
			<point x="70" y="1343" type="curve" smooth="yes"/>
			<point x="70" y="1327"/>
			<point x="77" y="1312"/>
			<point x="87" y="1301" type="curve" smooth="yes"/>
			<point x="351" y="1026" type="line" smooth="yes"/>
			<point x="362" y="1015"/>
			<point x="377" y="1008"/>
			<point x="394" y="1008" type="curve" smooth="yes"/>
			<point x="427" y="1008"/>
			<point x="454" y="1035"/>
			<point x="454" y="1068" type="curve" smooth="yes"/>
			<point x="454" y="1084"/>
			<point x="448" y="1099"/>
		</contour>
		<contour>
			<point x="1084" y="1386" type="curve" smooth="yes"/>
			<point x="586" y="864" type="line"/>
			<point x="575" y="854"/>
			<point x="569" y="839"/>
			<point x="569" y="823" type="curve" smooth="yes"/>
			<point x="569" y="790"/>
			<point x="596" y="763"/>
			<point x="629" y="763" type="curve" smooth="yes"/>
			<point x="646" y="763"/>
			<point x="661" y="770"/>
			<point x="672" y="782" type="curve" smooth="yes"/>
			<point x="1171" y="1303" type="line" smooth="yes"/>
			<point x="1181" y="1313"/>
			<point x="1188" y="1328"/>
			<point x="1188" y="1344" type="curve" smooth="yes"/>
			<point x="1188" y="1377"/>
			<point x="1161" y="1404"/>
			<point x="1128" y="1404" type="curve" smooth="yes"/>
			<point x="1111" y="1404"/>
			<point x="1095" y="1397"/>
		</contour>
	</outline>
</glyph>
<glyph name="brokenbar" format="2">
	<advance width="320"/>
	<unicode hex="00A6"/>
	<outline>
		<contour>
			<point x="220" y="60" type="curve"/>
			<point x="220" y="350" type="line"/>
			<point x="220" y="383.137"/>
			<point x="193.137" y="410"/>
			<point x="160" y="410" type="curve"/>
			<point x="126.863" y="410"/>
			<point x="100" y="383.137"/>
			<point x="100" y="350" type="curve"/>
			<point x="100" y="60" type="line"/>
			<point x="100" y="26.863"/>
			<point x="126.863" y="0"/>
			<point x="160" y="0" type="curve"/>
			<point x="193.137" y="0"/>
			<point x="220" y="26.863"/>
		</contour>
		<contour>
			<point x="220" y="1050" type="curve"/>
			<point x="220" y="1340" type="line"/>
			<point x="220" y="1373.137"/>
			<point x="193.137" y="1400"/>
			<point x="160" y="1400" type="curve"/>
			<point x="126.863" y="1400"/>
			<point x="100" y="1373.137"/>
			<point x="100" y="1340" type="curve"/>
			<point x="100" y="1050" type="line"/>
			<point x="100" y="1016.863"/>
			<point x="126.863" y="990"/>
			<point x="160" y="990" type="curve"/>
			<point x="193.137" y="990"/>
			<point x="220" y="1016.863"/>
		</contour>
	</outline>
</glyph>
<glyph name="section" format="2">
	<advance width="906"/>
	<unicode hex="00A7"/>
	<outline>
		<contour>
			<point x="453" y="539" type="curve"/>
			<point x="365" y="539"/>
			<point x="292" y="612"/>
			<point x="292" y="700" type="curve"/>
			<point x="292" y="788"/>
			<point x="365" y="861"/>
			<point x="453" y="861" type="curve"/>
			<point x="541" y="861"/>
			<point x="614" y="788"/>
			<point x="614" y="700" type="curve"/>
			<point x="614" y="612"/>
			<point x="541" y="539"/>
		</contour>
		<contour>
			<point x="453" y="419" type="curve"/>
			<point x="607.2" y="419"/>
			<point x="734" y="545.8"/>
			<point x="734" y="700" type="curve"/>
			<point x="734" y="854.2"/>
			<point x="607.2" y="981"/>
			<point x="453" y="981" type="curve"/>
			<point x="298.8" y="981"/>
			<point x="172" y="854.2"/>
			<point x="172" y="700" type="curve"/>
			<point x="172" y="545.8"/>
			<point x="298.8" y="419"/>
		</contour>
		<contour>
			<point x="680" y="348" type="curve"/>
			<point x="680" y="222"/>
			<point x="578" y="120"/>
			<point x="452" y="120" type="curve"/>
			<point x="160" y="120" type="line"/>
			<point x="126.863" y="120"/>
			<point x="100" y="93.137"/>
			<point x="100" y="60" type="curve"/>
			<point x="100" y="26.863"/>
			<point x="126.863" y="0"/>
			<point x="160" y="0" type="curve"/>
			<point x="452" y="0" type="line"/>
			<point x="644.106" y="0"/>
			<point x="800" y="155.894"/>
			<point x="800" y="348" type="curve"/>
			<point x="800" y="381.137"/>
			<point x="773.137" y="408"/>
			<point x="740" y="408" type="curve"/>
			<point x="706.863" y="408"/>
			<point x="680" y="381.137"/>
		</contour>
		<contour>
			<point x="226" y="1052" type="curve"/>
			<point x="226" y="1178"/>
			<point x="328" y="1280"/>
			<point x="454" y="1280" type="curve"/>
			<point x="746" y="1280" type="line"/>
			<point x="779.137" y="1280"/>
			<point x="806" y="1306.863"/>
			<point x="806" y="1340" type="curve"/>
			<point x="806" y="1373.137"/>
			<point x="779.137" y="1400"/>
			<point x="746" y="1400" type="curve"/>
			<point x="454" y="1400" type="line"/>
			<point x="261.894" y="1400"/>
			<point x="106" y="1244.106"/>
			<point x="106" y="1052" type="curve"/>
			<point x="106" y="1018.863"/>
			<point x="132.863" y="992"/>
			<point x="166" y="992" type="curve"/>
			<point x="199.137" y="992"/>
			<point x="226" y="1018.863"/>
		</contour>
	</outline>
</glyph>
<glyph name="copyright" format="2">
	<advance width="1560"/>
	<unicode hex="00A9"/>
	<outline>
		<contour>
			<point x="962" y="952" type="curve" smooth="yes"/>
			<point x="995" y="952"/>
			<point x="1022" y="979"/>
			<point x="1022" y="1012" type="curve" smooth="yes"/>
			<point x="1022" y="1046"/>
			<point x="995" y="1072"/>
			<point x="962" y="1072" type="curve" smooth="yes"/>
			<point x="931" y="1072"/>
			<point x="902" y="1046"/>
			<point x="902" y="1012" type="curve" smooth="yes"/>
			<point x="902" y="979"/>
			<point x="931" y="952"/>
		</contour>
		<contour>
			<point x="962" y="430" type="curve"/>
			<point x="787" y="430" type="line"/>
			<point x="643" y="430"/>
			<point x="526" y="547"/>
			<point x="526" y="691" type="curve"/>
			<point x="526" y="835"/>
			<point x="643" y="952"/>
			<point x="787" y="952" type="curve"/>
			<point x="820.137" y="952"/>
			<point x="847" y="978.863"/>
			<point x="847" y="1012" type="curve"/>
			<point x="847" y="1045.137"/>
			<point x="820.137" y="1072"/>
			<point x="787" y="1072" type="curve"/>
			<point x="576.894" y="1072"/>
			<point x="406" y="901.106"/>
			<point x="406" y="691" type="curve"/>
			<point x="406" y="480.894"/>
			<point x="576.894" y="310"/>
			<point x="787" y="310" type="curve"/>
			<point x="962" y="310" type="line"/>
			<point x="995.137" y="310"/>
			<point x="1022" y="336.863"/>
			<point x="1022" y="370" type="curve"/>
			<point x="1022" y="403.137"/>
			<point x="995.137" y="430"/>
		</contour>
		<contour>
			<point x="1216" y="1194" type="curve" smooth="yes"/>
			<point x="1216" y="1161"/>
			<point x="1243" y="1134"/>
			<point x="1276" y="1134" type="curve" smooth="yes"/>
			<point x="1309" y="1134"/>
			<point x="1336" y="1161"/>
			<point x="1336" y="1194" type="curve" smooth="yes"/>
			<point x="1336" y="1227"/>
			<point x="1309" y="1254"/>
			<point x="1276" y="1254" type="curve" smooth="yes"/>
			<point x="1243" y="1254"/>
			<point x="1216" y="1227"/>
		</contour>
		<contour>
			<point x="1360" y="699" type="curve"/>
			<point x="1360" y="378"/>
			<point x="1101" y="119"/>
			<point x="780" y="119" type="curve"/>
			<point x="459" y="119"/>
			<point x="200" y="378"/>
			<point x="200" y="699" type="curve"/>
			<point x="200" y="1020"/>
			<point x="459" y="1279"/>
			<point x="780" y="1279" type="curve"/>
			<point x="813.137" y="1279"/>
			<point x="840" y="1305.863"/>
			<point x="840" y="1339" type="curve"/>
			<point x="840" y="1372.137"/>
			<point x="813.137" y="1399"/>
			<point x="780" y="1399" type="curve"/>
			<point x="392.894" y="1399"/>
			<point x="80" y="1086.106"/>
			<point x="80" y="699" type="curve"/>
			<point x="80" y="311.894"/>
			<point x="392.894" y="-1"/>
			<point x="780" y="-1" type="curve"/>
			<point x="1167.106" y="-1"/>
			<point x="1480" y="311.894"/>
			<point x="1480" y="699" type="curve"/>
			<point x="1480" y="732.137"/>
			<point x="1453.137" y="759"/>
			<point x="1420" y="759" type="curve"/>
			<point x="1386.863" y="759"/>
			<point x="1360" y="732.137"/>
		</contour>
	</outline>
</glyph>
<glyph name="ordfeminine" format="2">
	<advance width="697"/>
	<unicode hex="00AA"/>
	<outline>
		<contour>
			<point x="185" y="862" type="curve" smooth="yes"/>
			<point x="262" y="1044" type="line" smooth="yes"/>
			<point x="265" y="1051"/>
			<point x="267" y="1059"/>
			<point x="267" y="1068" type="curve" smooth="yes"/>
			<point x="267" y="1101"/>
			<point x="240" y="1128"/>
			<point x="207" y="1128" type="curve" smooth="yes"/>
			<point x="183" y="1128"/>
			<point x="162" y="1114"/>
			<point x="152" y="1093" type="curve" smooth="yes"/>
			<point x="75" y="911" type="line" smooth="yes"/>
			<point x="72" y="904"/>
			<point x="70" y="896"/>
			<point x="70" y="887" type="curve" smooth="yes"/>
			<point x="70" y="854"/>
			<point x="97" y="827"/>
			<point x="130" y="827" type="curve" smooth="yes"/>
			<point x="154" y="827"/>
			<point x="175" y="841"/>
		</contour>
		<contour>
			<point x="621" y="911" type="curve"/>
			<point x="427" y="1365" type="line" smooth="yes"/>
			<point x="417" y="1386"/>
			<point x="397" y="1400"/>
			<point x="372" y="1400" type="curve" smooth="yes"/>
			<point x="339" y="1400"/>
			<point x="312" y="1374"/>
			<point x="312" y="1340" type="curve" smooth="yes"/>
			<point x="312" y="1331"/>
			<point x="314" y="1323"/>
			<point x="318" y="1316" type="curve"/>
			<point x="512" y="862" type="line" smooth="yes"/>
			<point x="522" y="841"/>
			<point x="542" y="827"/>
			<point x="567" y="827" type="curve" smooth="yes"/>
			<point x="600" y="827"/>
			<point x="627" y="853"/>
			<point x="627" y="887" type="curve" smooth="yes"/>
			<point x="627" y="896"/>
			<point x="625" y="904"/>
		</contour>
	</outline>
</glyph>
<glyph name="logicalnot" format="2">
	<advance width="1007"/>
	<unicode hex="00AC"/>
	<outline>
		<contour>
			<point x="867" y="890" type="curve"/>
			<point x="120" y="890" type="line"/>
			<point x="86.863" y="890"/>
			<point x="60" y="863.137"/>
			<point x="60" y="830" type="curve"/>
			<point x="60" y="796.863"/>
			<point x="86.863" y="770"/>
			<point x="120" y="770" type="curve"/>
			<point x="867" y="770" type="line"/>
			<point x="900.137" y="770"/>
			<point x="927" y="796.863"/>
			<point x="927" y="830" type="curve"/>
			<point x="927" y="863.137"/>
			<point x="900.137" y="890"/>
		</contour>
		<contour>
			<point x="927" y="424" type="curve"/>
			<point x="927" y="824" type="line"/>
			<point x="807" y="824" type="line"/>
			<point x="807" y="424" type="line"/>
			<point x="807" y="390.863"/>
			<point x="833.863" y="364"/>
			<point x="867" y="364" type="curve"/>
			<point x="900.137" y="364"/>
			<point x="927" y="390.863"/>
		</contour>
	</outline>
</glyph>
<glyph name="registered" format="2">
	<advance width="1560"/>
	<unicode hex="00AE"/>
	<outline>
		<contour>
			<point x="626" y="432" type="curve" smooth="yes"/>
			<point x="626" y="672" type="line" smooth="yes"/>
			<point x="626" y="705"/>
			<point x="599" y="732"/>
			<point x="566" y="732" type="curve" smooth="yes"/>
			<point x="533" y="732"/>
			<point x="506" y="705"/>
			<point x="506" y="672" type="curve" smooth="yes"/>
			<point x="506" y="432" type="line" smooth="yes"/>
			<point x="506" y="399"/>
			<point x="533" y="372"/>
			<point x="566" y="372" type="curve" smooth="yes"/>
			<point x="599" y="372"/>
			<point x="626" y="399"/>
		</contour>
		<contour>
			<point x="1001" y="463" type="curve" smooth="yes"/>
			<point x="817" y="678" type="line" smooth="yes"/>
			<point x="806" y="691"/>
			<point x="789" y="699"/>
			<point x="771" y="699" type="curve" smooth="yes"/>
			<point x="738" y="699"/>
			<point x="711" y="672"/>
			<point x="711" y="639" type="curve" smooth="yes"/>
			<point x="711" y="624"/>
			<point x="716" y="610"/>
			<point x="725" y="600" type="curve" smooth="yes"/>
			<point x="911" y="385" type="line" smooth="yes"/>
			<point x="922" y="372"/>
			<point x="938" y="364"/>
			<point x="956" y="364" type="curve" smooth="yes"/>
			<point x="989" y="364"/>
			<point x="1016" y="391"/>
			<point x="1016" y="424" type="curve" smooth="yes"/>
			<point x="1016" y="439"/>
			<point x="1010" y="453"/>
		</contour>
		<component base="O"/>
		<contour>
			<point x="771" y="579" type="curve" smooth="yes"/>
			<point x="808" y="579" type="line" smooth="yes"/>
			<point x="943" y="579"/>
			<point x="1053" y="689"/>
			<point x="1053" y="825" type="curve" smooth="yes"/>
			<point x="1053" y="959"/>
			<point x="943" y="1069"/>
			<point x="808" y="1069" type="curve" smooth="yes"/>
			<point x="566" y="1069" type="line" smooth="yes"/>
			<point x="533" y="1069"/>
			<point x="506" y="1042"/>
			<point x="506" y="1009" type="curve" smooth="yes"/>
			<point x="506" y="976"/>
			<point x="533" y="949"/>
			<point x="566" y="949" type="curve" smooth="yes"/>
			<point x="808" y="949" type="line" smooth="yes"/>
			<point x="877" y="949"/>
			<point x="933" y="893"/>
			<point x="933" y="825" type="curve" smooth="yes"/>
			<point x="933" y="755"/>
			<point x="877" y="699"/>
			<point x="808" y="699" type="curve" smooth="yes"/>
			<point x="771" y="699" type="line" smooth="yes"/>
			<point x="738" y="699"/>
			<point x="711" y="672"/>
			<point x="711" y="639" type="curve" smooth="yes"/>
			<point x="711" y="606"/>
			<point x="738" y="579"/>
		</contour>
	</outline>
</glyph>
<glyph name="plusminus" format="2">
	<advance width="1007"/>
	<unicode hex="00B1"/>
	<outline>
		<contour>
			<point x="120" y="217" type="curve"/>
			<point x="887" y="217" type="line"/>
			<point x="920.137" y="217"/>
			<point x="947" y="243.863"/>
			<point x="947" y="277" type="curve"/>
			<point x="947" y="310.137"/>
			<point x="920.137" y="337"/>
			<point x="887" y="337" type="curve"/>
			<point x="120" y="337" type="line"/>
			<point x="86.863" y="337"/>
			<point x="60" y="310.137"/>
			<point x="60" y="277" type="curve"/>
			<point x="60" y="243.863"/>
			<point x="86.863" y="217"/>
		</contour>
		<contour>
			<point x="120" y="740" type="curve"/>
			<point x="275" y="740" type="line"/>
			<point x="308.137" y="740"/>
			<point x="335" y="766.863"/>
			<point x="335" y="800" type="curve"/>
			<point x="335" y="833.137"/>
			<point x="308.137" y="860"/>
			<point x="275" y="860" type="curve"/>
			<point x="120" y="860" type="line"/>
			<point x="86.863" y="860"/>
			<point x="60" y="833.137"/>
			<point x="60" y="800" type="curve"/>
			<point x="60" y="766.863"/>
			<point x="86.863" y="740"/>
		</contour>
		<contour>
			<point x="564" y="477" type="curve"/>
			<point x="564" y="1124" type="line"/>
			<point x="564" y="1157.137"/>
			<point x="537.137" y="1184"/>
			<point x="504" y="1184" type="curve"/>
			<point x="470.863" y="1184"/>
			<point x="444" y="1157.137"/>
			<point x="444" y="1124" type="curve"/>
			<point x="444" y="477" type="line"/>
			<point x="444" y="443.863"/>
			<point x="470.863" y="417"/>
			<point x="504" y="417" type="curve"/>
			<point x="537.137" y="417"/>
			<point x="564" y="443.863"/>
		</contour>
		<contour>
			<point x="733" y="740" type="curve"/>
			<point x="888" y="740" type="line"/>
			<point x="921.137" y="740"/>
			<point x="948" y="766.863"/>
			<point x="948" y="800" type="curve"/>
			<point x="948" y="833.137"/>
			<point x="921.137" y="860"/>
			<point x="888" y="860" type="curve"/>
			<point x="733" y="860" type="line"/>
			<point x="699.863" y="860"/>
			<point x="673" y="833.137"/>
			<point x="673" y="800" type="curve"/>
			<point x="673" y="766.863"/>
			<point x="699.863" y="740"/>
		</contour>
	</outline>
</glyph>
<glyph name="twosuperior" format="2">
	<advance width="540"/>
	<unicode hex="00B2"/>
	<outline>
		<contour>
			<point x="101" y="1024" type="curve"/>
			<point x="433" y="1024" type="line"/>
			<point x="460.614" y="1024"/>
			<point x="483" y="1046.386"/>
			<point x="483" y="1074" type="curve"/>
			<point x="483" y="1101.614"/>
			<point x="460.614" y="1124"/>
			<point x="433" y="1124" type="curve"/>
			<point x="101" y="1124" type="line"/>
			<point x="73.386" y="1124"/>
			<point x="51" y="1101.614"/>
			<point x="51" y="1074" type="curve"/>
			<point x="51" y="1046.386"/>
			<point x="73.386" y="1024"/>
		</contour>
		<contour>
			<point x="140.835" y="1045.385" type="curve"/>
			<point x="301.424" y="1251.246" type="line"/>
			<point x="308.051" y="1259.727"/>
			<point x="312" y="1270.402"/>
			<point x="312" y="1282" type="curve"/>
			<point x="312" y="1309.614"/>
			<point x="289.614" y="1332"/>
			<point x="262" y="1332" type="curve"/>
			<point x="245.983" y="1332"/>
			<point x="231.725" y="1324.469"/>
			<point x="222.576" y="1312.754" type="curve"/>
			<point x="62.522" y="1107.577" type="line"/>
			<point x="55.734" y="1099.041"/>
			<point x="51.678" y="1088.235"/>
			<point x="51.678" y="1076.481" type="curve"/>
			<point x="51.678" y="1048.867"/>
			<point x="74.064" y="1026.481"/>
			<point x="101.678" y="1026.481" type="curve"/>
			<point x="117.539" y="1026.481"/>
			<point x="131.675" y="1033.866"/>
		</contour>
		<contour>
			<point x="151" y="1585" type="curve"/>
			<point x="151" y="1648"/>
			<point x="203" y="1700"/>
			<point x="266" y="1700" type="curve"/>
			<point x="329" y="1700"/>
			<point x="381" y="1648"/>
			<point x="381" y="1585" type="curve"/>
			<point x="381" y="1557.386"/>
			<point x="403.386" y="1535"/>
			<point x="431" y="1535" type="curve"/>
			<point x="458.614" y="1535"/>
			<point x="481" y="1557.386"/>
			<point x="481" y="1585" type="curve"/>
			<point x="481" y="1703"/>
			<point x="384" y="1800"/>
			<point x="266" y="1800" type="curve"/>
			<point x="148" y="1800"/>
			<point x="51" y="1703"/>
			<point x="51" y="1585" type="curve"/>
			<point x="51" y="1557.386"/>
			<point x="73.386" y="1535"/>
			<point x="101" y="1535" type="curve"/>
			<point x="128.614" y="1535"/>
			<point x="151" y="1557.386"/>
		</contour>
	</outline>
</glyph>
<glyph name="uni00B2" format="2">
	<advance width="540"/>
	<unicode hex="00B2"/>
	<outline>
		<contour>
			<point x="101" y="1024" type="curve" smooth="yes"/>
			<point x="433" y="1024" type="line" smooth="yes"/>
			<point x="461" y="1024"/>
			<point x="483" y="1046"/>
			<point x="483" y="1074" type="curve" smooth="yes"/>
			<point x="483" y="1102"/>
			<point x="461" y="1124"/>
			<point x="433" y="1124" type="curve" smooth="yes"/>
			<point x="101" y="1124" type="line" smooth="yes"/>
			<point x="73" y="1124"/>
			<point x="51" y="1102"/>
			<point x="51" y="1074" type="curve" smooth="yes"/>
			<point x="51" y="1046"/>
			<point x="73" y="1024"/>
		</contour>
		<contour>
			<point x="141" y="1045" type="curve" smooth="yes"/>
			<point x="301" y="1251" type="line" smooth="yes"/>
			<point x="308" y="1260"/>
			<point x="312" y="1270"/>
			<point x="312" y="1282" type="curve" smooth="yes"/>
			<point x="312" y="1310"/>
			<point x="290" y="1332"/>
			<point x="262" y="1332" type="curve" smooth="yes"/>
			<point x="246" y="1332"/>
			<point x="232" y="1324"/>
			<point x="223" y="1313" type="curve" smooth="yes"/>
			<point x="63" y="1108" type="line" smooth="yes"/>
			<point x="56" y="1099"/>
			<point x="52" y="1088"/>
			<point x="52" y="1076" type="curve" smooth="yes"/>
			<point x="52" y="1049"/>
			<point x="74" y="1026"/>
			<point x="102" y="1026" type="curve" smooth="yes"/>
			<point x="118" y="1026"/>
			<point x="132" y="1034"/>
		</contour>
		<contour>
			<point x="151" y="1585" type="curve" smooth="yes"/>
			<point x="151" y="1648"/>
			<point x="203" y="1700"/>
			<point x="266" y="1700" type="curve" smooth="yes"/>
			<point x="329" y="1700"/>
			<point x="381" y="1648"/>
			<point x="381" y="1585" type="curve" smooth="yes"/>
			<point x="381" y="1557"/>
			<point x="403" y="1535"/>
			<point x="431" y="1535" type="curve" smooth="yes"/>
			<point x="459" y="1535"/>
			<point x="481" y="1557"/>
			<point x="481" y="1585" type="curve" smooth="yes"/>
			<point x="481" y="1703"/>
			<point x="384" y="1800"/>
			<point x="266" y="1800" type="curve" smooth="yes"/>
			<point x="148" y="1800"/>
			<point x="51" y="1703"/>
			<point x="51" y="1585" type="curve" smooth="yes"/>
			<point x="51" y="1557"/>
			<point x="73" y="1535"/>
			<point x="101" y="1535" type="curve" smooth="yes"/>
			<point x="129" y="1535"/>
			<point x="151" y="1557"/>
		</contour>
	</outline>
</glyph>
<glyph name="threesuperior" format="2">
	<advance width="540"/>
	<unicode hex="00B3"/>
	<outline>
		<contour>
			<point x="382" y="1241" type="curve"/>
			<point x="382" y="1178"/>
			<point x="331" y="1126"/>
			<point x="267" y="1126" type="curve"/>
			<point x="204" y="1126"/>
			<point x="152" y="1178"/>
			<point x="152" y="1241" type="curve"/>
			<point x="152" y="1268.614"/>
			<point x="129.614" y="1291"/>
			<point x="102" y="1291" type="curve"/>
			<point x="74.386" y="1291"/>
			<point x="52" y="1268.614"/>
			<point x="52" y="1241" type="curve"/>
			<point x="52" y="1123"/>
			<point x="149" y="1026"/>
			<point x="267" y="1026" type="curve"/>
			<point x="386" y="1026"/>
			<point x="482" y="1123"/>
			<point x="482" y="1241" type="curve"/>
			<point x="482" y="1268.614"/>
			<point x="459.614" y="1291"/>
			<point x="432" y="1291" type="curve"/>
			<point x="404.386" y="1291"/>
			<point x="382" y="1268.614"/>
		</contour>
		<contour>
			<point x="153" y="1589" type="curve"/>
			<point x="153" y="1652"/>
			<point x="205" y="1704"/>
			<point x="268" y="1704" type="curve"/>
			<point x="331" y="1704"/>
			<point x="383" y="1652"/>
			<point x="383" y="1589" type="curve"/>
			<point x="383" y="1526"/>
			<point x="331" y="1474"/>
			<point x="268" y="1474" type="curve"/>
			<point x="240.386" y="1474"/>
			<point x="218" y="1451.614"/>
			<point x="218" y="1424" type="curve"/>
			<point x="218" y="1396.386"/>
			<point x="240.386" y="1374"/>
			<point x="268" y="1374" type="curve"/>
			<point x="386" y="1374"/>
			<point x="483" y="1471"/>
			<point x="483" y="1589" type="curve"/>
			<point x="483" y="1707"/>
			<point x="386" y="1804"/>
			<point x="268" y="1804" type="curve"/>
			<point x="150" y="1804"/>
			<point x="53" y="1707"/>
			<point x="53" y="1589" type="curve"/>
			<point x="53" y="1561.386"/>
			<point x="75.386" y="1539"/>
			<point x="103" y="1539" type="curve"/>
			<point x="130.614" y="1539"/>
			<point x="153" y="1561.386"/>
		</contour>
	</outline>
</glyph>
<glyph name="uni00B3" format="2">
	<advance width="540"/>
	<unicode hex="00B3"/>
	<outline>
		<contour>
			<point x="382" y="841" type="curve" smooth="yes"/>
			<point x="382" y="778"/>
			<point x="331" y="726"/>
			<point x="267" y="726" type="curve" smooth="yes"/>
			<point x="204" y="726"/>
			<point x="152" y="778"/>
			<point x="152" y="841" type="curve" smooth="yes"/>
			<point x="152" y="869"/>
			<point x="130" y="891"/>
			<point x="102" y="891" type="curve" smooth="yes"/>
			<point x="74" y="891"/>
			<point x="52" y="869"/>
			<point x="52" y="841" type="curve" smooth="yes"/>
			<point x="52" y="723"/>
			<point x="149" y="626"/>
			<point x="267" y="626" type="curve" smooth="yes"/>
			<point x="386" y="626"/>
			<point x="482" y="723"/>
			<point x="482" y="841" type="curve" smooth="yes"/>
			<point x="482" y="869"/>
			<point x="460" y="891"/>
			<point x="432" y="891" type="curve" smooth="yes"/>
			<point x="404" y="891"/>
			<point x="382" y="869"/>
		</contour>
		<contour>
			<point x="153" y="1189" type="curve" smooth="yes"/>
			<point x="153" y="1252"/>
			<point x="205" y="1304"/>
			<point x="268" y="1304" type="curve" smooth="yes"/>
			<point x="331" y="1304"/>
			<point x="383" y="1252"/>
			<point x="383" y="1189" type="curve" smooth="yes"/>
			<point x="383" y="1126"/>
			<point x="331" y="1074"/>
			<point x="268" y="1074" type="curve" smooth="yes"/>
			<point x="240" y="1074"/>
			<point x="218" y="1052"/>
			<point x="218" y="1024" type="curve" smooth="yes"/>
			<point x="218" y="996"/>
			<point x="240" y="974"/>
			<point x="268" y="974" type="curve" smooth="yes"/>
			<point x="386" y="974"/>
			<point x="483" y="1071"/>
			<point x="483" y="1189" type="curve" smooth="yes"/>
			<point x="483" y="1307"/>
			<point x="386" y="1404"/>
			<point x="268" y="1404" type="curve" smooth="yes"/>
			<point x="150" y="1404"/>
			<point x="53" y="1307"/>
			<point x="53" y="1189" type="curve" smooth="yes"/>
			<point x="53" y="1161"/>
			<point x="75" y="1139"/>
			<point x="103" y="1139" type="curve" smooth="yes"/>
			<point x="131" y="1139"/>
			<point x="153" y="1161"/>
		</contour>
	</outline>
</glyph>
<glyph name="micro" format="2">
	<advance width="1195"/>
	<unicode hex="00B5"/>
	<outline>
		<contour>
			<point x="220" y="-340" type="curve"/>
			<point x="220" y="100" type="line"/>
			<point x="220" y="133.137"/>
			<point x="193.137" y="160"/>
			<point x="160" y="160" type="curve"/>
			<point x="126.863" y="160"/>
			<point x="100" y="133.137"/>
			<point x="100" y="100" type="curve"/>
			<point x="100" y="-340" type="line"/>
			<point x="100" y="-373.137"/>
			<point x="126.863" y="-400"/>
			<point x="160" y="-400" type="curve"/>
			<point x="193.137" y="-400"/>
			<point x="220" y="-373.137"/>
		</contour>
		<contour>
			<point x="220" y="500" type="curve"/>
			<point x="220" y="940" type="line"/>
			<point x="220" y="973.137"/>
			<point x="193.137" y="1000"/>
			<point x="160" y="1000" type="curve"/>
			<point x="126.863" y="1000"/>
			<point x="100" y="973.137"/>
			<point x="100" y="940" type="curve"/>
			<point x="100" y="500" type="line"/>
			<point x="100" y="466.863"/>
			<point x="126.863" y="440"/>
			<point x="160" y="440" type="curve"/>
			<point x="193.137" y="440"/>
			<point x="220" y="466.863"/>
		</contour>
		<contour>
			<point x="598" y="4" type="curve"/>
			<point x="872.106" y="4"/>
			<point x="1095" y="226.894"/>
			<point x="1095" y="502" type="curve"/>
			<point x="1095" y="942" type="line"/>
			<point x="1095" y="975.137"/>
			<point x="1068.137" y="1002"/>
			<point x="1035" y="1002" type="curve"/>
			<point x="1001.863" y="1002"/>
			<point x="975" y="975.137"/>
			<point x="975" y="942" type="curve"/>
			<point x="975" y="502" type="line"/>
			<point x="975" y="293"/>
			<point x="806" y="124"/>
			<point x="598" y="124" type="curve"/>
			<point x="564.863" y="124"/>
			<point x="538" y="97.137"/>
			<point x="538" y="64" type="curve"/>
			<point x="538" y="30.863"/>
			<point x="564.863" y="4"/>
		</contour>
	</outline>
</glyph>
<glyph name="paragraph" format="2">
	<advance width="1084"/>
	<unicode hex="00B6"/>
	<outline>
		<contour>
			<point x="385" y="706" type="curve" smooth="yes"/>
			<point x="420" y="700"/>
			<point x="456" y="725"/>
			<point x="456" y="765" type="curve" smooth="yes"/>
			<point x="456" y="794"/>
			<point x="435" y="819"/>
			<point x="407" y="824" type="curve" smooth="yes"/>
			<point x="301" y="844"/>
			<point x="220" y="938"/>
			<point x="220" y="1050" type="curve" smooth="yes"/>
			<point x="220" y="1162"/>
			<point x="301" y="1256"/>
			<point x="407" y="1276" type="curve" smooth="yes"/>
			<point x="435" y="1281"/>
			<point x="456" y="1306"/>
			<point x="456" y="1335" type="curve" smooth="yes"/>
			<point x="456" y="1375"/>
			<point x="420" y="1400"/>
			<point x="385" y="1394" type="curve" smooth="yes"/>
			<point x="223" y="1364"/>
			<point x="100" y="1221"/>
			<point x="100" y="1050" type="curve" smooth="yes"/>
			<point x="100" y="879"/>
			<point x="223" y="736"/>
		</contour>
		<contour>
			<point x="684" y="60" type="curve" smooth="yes"/>
			<point x="684" y="1340" type="line" smooth="yes"/>
			<point x="684" y="1373"/>
			<point x="657" y="1400"/>
			<point x="624" y="1400" type="curve" smooth="yes"/>
			<point x="591" y="1400"/>
			<point x="564" y="1373"/>
			<point x="564" y="1340" type="curve" smooth="yes"/>
			<point x="564" y="60" type="line" smooth="yes"/>
			<point x="564" y="27"/>
			<point x="591" y="0"/>
			<point x="624" y="0" type="curve" smooth="yes"/>
			<point x="657" y="0"/>
			<point x="684" y="27"/>
		</contour>
		<contour>
			<point x="984" y="60" type="curve" smooth="yes"/>
			<point x="984" y="1340" type="line" smooth="yes"/>
			<point x="984" y="1373"/>
			<point x="957" y="1400"/>
			<point x="924" y="1400" type="curve" smooth="yes"/>
			<point x="891" y="1400"/>
			<point x="864" y="1373"/>
			<point x="864" y="1340" type="curve" smooth="yes"/>
			<point x="864" y="60" type="line" smooth="yes"/>
			<point x="864" y="27"/>
			<point x="891" y="0"/>
			<point x="924" y="0" type="curve" smooth="yes"/>
			<point x="957" y="0"/>
			<point x="984" y="27"/>
		</contour>
	</outline>
</glyph>
<glyph name="onesuperior" format="2">
	<advance width="540"/>
	<unicode hex="00B9"/>
	<outline>
		<contour>
			<point x="354" y="1074" type="curve"/>
			<point x="354" y="1302" type="line"/>
			<point x="354" y="1329.614"/>
			<point x="331.614" y="1352"/>
			<point x="304" y="1352" type="curve"/>
			<point x="276.386" y="1352"/>
			<point x="254" y="1329.614"/>
			<point x="254" y="1302" type="curve"/>
			<point x="254" y="1074" type="line"/>
			<point x="254" y="1046.386"/>
			<point x="276.386" y="1024"/>
			<point x="304" y="1024" type="curve"/>
			<point x="331.614" y="1024"/>
			<point x="354" y="1046.386"/>
		</contour>
		<contour>
			<point x="275.625" y="1791.172" type="curve"/>
			<point x="127.625" y="1689.172" type="line"/>
			<point x="114.56" y="1680.153"/>
			<point x="106" y="1665.076"/>
			<point x="106" y="1648" type="curve"/>
			<point x="106" y="1620.386"/>
			<point x="128.386" y="1598"/>
			<point x="156" y="1598" type="curve"/>
			<point x="166.538" y="1598"/>
			<point x="176.315" y="1601.26"/>
			<point x="184.375" y="1606.828" type="curve"/>
			<point x="332.375" y="1708.828" type="line"/>
			<point x="345.44" y="1717.847"/>
			<point x="354" y="1732.924"/>
			<point x="354" y="1750" type="curve"/>
			<point x="354" y="1777.614"/>
			<point x="331.614" y="1800"/>
			<point x="304" y="1800" type="curve"/>
			<point x="293.462" y="1800"/>
			<point x="283.685" y="1796.74"/>
		</contour>
		<contour>
			<point x="354" y="1502" type="curve"/>
			<point x="354" y="1750" type="line"/>
			<point x="354" y="1777.614"/>
			<point x="331.614" y="1800"/>
			<point x="304" y="1800" type="curve"/>
			<point x="276.386" y="1800"/>
			<point x="254" y="1777.614"/>
			<point x="254" y="1750" type="curve"/>
			<point x="254" y="1502" type="line"/>
			<point x="254" y="1474.386"/>
			<point x="276.386" y="1452"/>
			<point x="304" y="1452" type="curve"/>
			<point x="331.614" y="1452"/>
			<point x="354" y="1474.386"/>
		</contour>
	</outline>
</glyph>
<glyph name="uni00B9" format="2">
	<advance width="540"/>
	<unicode hex="00B9"/>
	<outline>
		<contour>
			<point x="354" y="1074" type="curve" smooth="yes"/>
			<point x="354" y="1302" type="line" smooth="yes"/>
			<point x="354" y="1330"/>
			<point x="332" y="1352"/>
			<point x="304" y="1352" type="curve" smooth="yes"/>
			<point x="276" y="1352"/>
			<point x="254" y="1330"/>
			<point x="254" y="1302" type="curve" smooth="yes"/>
			<point x="254" y="1074" type="line" smooth="yes"/>
			<point x="254" y="1046"/>
			<point x="276" y="1024"/>
			<point x="304" y="1024" type="curve" smooth="yes"/>
			<point x="332" y="1024"/>
			<point x="354" y="1046"/>
		</contour>
		<contour>
			<point x="276" y="1791" type="curve" smooth="yes"/>
			<point x="128" y="1689" type="line" smooth="yes"/>
			<point x="115" y="1680"/>
			<point x="106" y="1665"/>
			<point x="106" y="1648" type="curve" smooth="yes"/>
			<point x="106" y="1620"/>
			<point x="128" y="1598"/>
			<point x="156" y="1598" type="curve" smooth="yes"/>
			<point x="167" y="1598"/>
			<point x="176" y="1601"/>
			<point x="184" y="1607" type="curve" smooth="yes"/>
			<point x="332" y="1709" type="line" smooth="yes"/>
			<point x="345" y="1718"/>
			<point x="354" y="1733"/>
			<point x="354" y="1750" type="curve" smooth="yes"/>
			<point x="354" y="1778"/>
			<point x="332" y="1800"/>
			<point x="304" y="1800" type="curve" smooth="yes"/>
			<point x="293" y="1800"/>
			<point x="284" y="1797"/>
		</contour>
		<contour>
			<point x="354" y="1502" type="curve" smooth="yes"/>
			<point x="354" y="1750" type="line" smooth="yes"/>
			<point x="354" y="1778"/>
			<point x="332" y="1800"/>
			<point x="304" y="1800" type="curve" smooth="yes"/>
			<point x="276" y="1800"/>
			<point x="254" y="1778"/>
			<point x="254" y="1750" type="curve" smooth="yes"/>
			<point x="254" y="1502" type="line" smooth="yes"/>
			<point x="254" y="1474"/>
			<point x="276" y="1452"/>
			<point x="304" y="1452" type="curve" smooth="yes"/>
			<point x="332" y="1452"/>
			<point x="354" y="1474"/>
		</contour>
	</outline>
</glyph>
<glyph name="ordmasculine" format="2">
	<advance width="701"/>
	<unicode hex="00BA"/>
	<outline>
		<contour>
			<point x="153" y="1259" type="curve" smooth="yes"/>
			<point x="185" y="1259"/>
			<point x="212" y="1286"/>
			<point x="212" y="1318" type="curve" smooth="yes"/>
			<point x="212" y="1351"/>
			<point x="185" y="1378"/>
			<point x="153" y="1378" type="curve" smooth="yes"/>
			<point x="120" y="1378"/>
			<point x="93" y="1351"/>
			<point x="93" y="1318" type="curve" smooth="yes"/>
			<point x="93" y="1286"/>
			<point x="120" y="1259"/>
		</contour>
		<contour>
			<point x="351" y="1280" type="curve" smooth="yes"/>
			<point x="440" y="1280"/>
			<point x="511" y="1208"/>
			<point x="511" y="1119" type="curve" smooth="yes"/>
			<point x="511" y="1030"/>
			<point x="440" y="959"/>
			<point x="351" y="959" type="curve" smooth="yes"/>
			<point x="262" y="959"/>
			<point x="190" y="1030"/>
			<point x="190" y="1119" type="curve" smooth="yes"/>
			<point x="190" y="1152"/>
			<point x="163" y="1179"/>
			<point x="130" y="1179" type="curve" smooth="yes"/>
			<point x="97" y="1179"/>
			<point x="70" y="1152"/>
			<point x="70" y="1119" type="curve" smooth="yes"/>
			<point x="70" y="964"/>
			<point x="196" y="839"/>
			<point x="351" y="839" type="curve" smooth="yes"/>
			<point x="506" y="839"/>
			<point x="631" y="964"/>
			<point x="631" y="1119" type="curve" smooth="yes"/>
			<point x="631" y="1274"/>
			<point x="506" y="1400"/>
			<point x="351" y="1400" type="curve" smooth="yes"/>
			<point x="318" y="1400"/>
			<point x="291" y="1373"/>
			<point x="291" y="1340" type="curve" smooth="yes"/>
			<point x="291" y="1307"/>
			<point x="318" y="1280"/>
		</contour>
	</outline>
</glyph>
<glyph name="AE" format="2">
	<advance width="1680"/>
	<unicode hex="00C6"/>
	<unicode hex="00E6"/>
	<outline>
		<contour>
			<point x="184.217" y="37.817" type="curve"/>
			<point x="749.401" y="1311.105" type="line"/>
			<point x="753.051" y="1318.854"/>
			<point x="755.092" y="1327.51"/>
			<point x="755.092" y="1336.644" type="curve"/>
			<point x="755.092" y="1369.781"/>
			<point x="728.229" y="1396.644"/>
			<point x="695.092" y="1396.644" type="curve"/>
			<point x="671.088" y="1396.644"/>
			<point x="650.376" y="1382.548"/>
			<point x="640.783" y="1362.183" type="curve"/>
			<point x="75.599" y="88.895" type="line"/>
			<point x="71.949" y="81.146"/>
			<point x="69.908" y="72.49"/>
			<point x="69.908" y="63.356" type="curve"/>
			<point x="69.908" y="30.219"/>
			<point x="96.771" y="3.356"/>
			<point x="129.908" y="3.356" type="curve"/>
			<point x="153.912" y="3.356"/>
			<point x="174.624" y="17.452"/>
		</contour>
		<contour>
			<point x="1540" y="120" type="curve"/>
			<point x="897" y="120" type="line"/>
			<point x="863.863" y="120"/>
			<point x="837" y="93.137"/>
			<point x="837" y="60" type="curve"/>
			<point x="837" y="26.863"/>
			<point x="863.863" y="0"/>
			<point x="897" y="0" type="curve"/>
			<point x="1540" y="0" type="line"/>
			<point x="1573.137" y="0"/>
			<point x="1600" y="26.863"/>
			<point x="1600" y="60" type="curve"/>
			<point x="1600" y="93.137"/>
			<point x="1573.137" y="120"/>
		</contour>
		<contour>
			<point x="957" y="60" type="line"/>
			<point x="957" y="706" type="line"/>
			<point x="957" y="739.137"/>
			<point x="930.137" y="766"/>
			<point x="897" y="766" type="curve"/>
			<point x="863.863" y="766"/>
			<point x="837" y="739.137"/>
			<point x="837" y="706" type="curve"/>
			<point x="837" y="60" type="line"/>
		</contour>
		<contour>
			<point x="1224" y="640" type="curve"/>
			<point x="1539" y="640" type="line"/>
			<point x="1572.137" y="640"/>
			<point x="1599" y="666.863"/>
			<point x="1599" y="700" type="curve"/>
			<point x="1599" y="733.137"/>
			<point x="1572.137" y="760"/>
			<point x="1539" y="760" type="curve"/>
			<point x="1224" y="760" type="line"/>
			<point x="1190.863" y="760"/>
			<point x="1164" y="733.137"/>
			<point x="1164" y="700" type="curve"/>
			<point x="1164" y="666.863"/>
			<point x="1190.863" y="640"/>
		</contour>
		<contour>
			<point x="697" y="1280" type="curve"/>
			<point x="1540" y="1280" type="line"/>
			<point x="1573.137" y="1280"/>
			<point x="1600" y="1306.863"/>
			<point x="1600" y="1340" type="curve"/>
			<point x="1600" y="1373.137"/>
			<point x="1573.137" y="1400"/>
			<point x="1540" y="1400" type="curve"/>
			<point x="697" y="1400" type="line"/>
			<point x="663.863" y="1400"/>
			<point x="637" y="1373.137"/>
			<point x="637" y="1340" type="curve"/>
			<point x="637" y="1306.863"/>
			<point x="663.863" y="1280"/>
		</contour>
	</outline>
</glyph>
<glyph name="Eth" format="2">
	<advance width="1384"/>
	<unicode hex="00D0"/>
	<unicode hex="00F0"/>
	<anchor x="722" y="0" name="bottom"/>
	<anchor x="722" y="700" name="center"/>
	<anchor x="662" y="1400" name="top"/>
	<outline>
		<contour>
			<point x="179" y="437" type="curve"/>
			<point x="179" y="60" type="line"/>
			<point x="179" y="26.863"/>
			<point x="205.863" y="0"/>
			<point x="239" y="0" type="curve"/>
			<point x="272.137" y="0"/>
			<point x="299" y="26.863"/>
			<point x="299" y="60" type="curve"/>
			<point x="299" y="437" type="line"/>
			<point x="299" y="470.137"/>
			<point x="272.137" y="497"/>
			<point x="239" y="497" type="curve"/>
			<point x="205.863" y="497"/>
			<point x="179" y="470.137"/>
		</contour>
		<contour>
			<point x="538" y="760" type="curve"/>
			<point x="60" y="760" type="line"/>
			<point x="26.863" y="760"/>
			<point x="0" y="733.137"/>
			<point x="0" y="700" type="curve"/>
			<point x="0" y="666.863"/>
			<point x="26.863" y="640"/>
			<point x="60" y="640" type="curve"/>
			<point x="538" y="640" type="line"/>
			<point x="571.137" y="640"/>
			<point x="598" y="666.863"/>
			<point x="598" y="700" type="curve"/>
			<point x="598" y="733.137"/>
			<point x="571.137" y="760"/>
		</contour>
		<contour>
			<point x="604" y="0" type="curve"/>
			<point x="990.106" y="0"/>
			<point x="1304" y="313.894"/>
			<point x="1304" y="700" type="curve"/>
			<point x="1304" y="1086.106"/>
			<point x="990.106" y="1400"/>
			<point x="604" y="1400" type="curve"/>
			<point x="239" y="1400" type="line"/>
			<point x="205.863" y="1400"/>
			<point x="179" y="1373.137"/>
			<point x="179" y="1340" type="curve"/>
			<point x="179" y="1306.863"/>
			<point x="205.863" y="1280"/>
			<point x="239" y="1280" type="curve"/>
			<point x="604" y="1280" type="line"/>
			<point x="924" y="1280"/>
			<point x="1184" y="1020"/>
			<point x="1184" y="700" type="curve"/>
			<point x="1184" y="380"/>
			<point x="924" y="120"/>
			<point x="604" y="120" type="curve"/>
			<point x="570.863" y="120"/>
			<point x="544" y="93.137"/>
			<point x="544" y="60" type="curve"/>
			<point x="544" y="26.863"/>
			<point x="570.863" y="0"/>
		</contour>
	</outline>
</glyph>
<glyph name="multiply" format="2">
	<advance width="1007"/>
	<unicode hex="00D7"/>
	<outline>
		<contour>
			<point x="622" y="496" type="curve" smooth="yes"/>
			<point x="779" y="340" type="line" smooth="yes"/>
			<point x="790" y="329"/>
			<point x="805" y="322"/>
			<point x="822" y="322" type="curve" smooth="yes"/>
			<point x="855" y="322"/>
			<point x="882" y="349"/>
			<point x="882" y="382" type="curve" smooth="yes"/>
			<point x="882" y="398"/>
			<point x="875" y="413"/>
			<point x="865" y="424" type="curve" smooth="yes"/>
			<point x="707" y="581" type="line" smooth="yes"/>
			<point x="696" y="591"/>
			<point x="682" y="598"/>
			<point x="665" y="598" type="curve" smooth="yes"/>
			<point x="632" y="598"/>
			<point x="605" y="571"/>
			<point x="605" y="538" type="curve" smooth="yes"/>
			<point x="605" y="522"/>
			<point x="612" y="507"/>
		</contour>
		<contour>
			<point x="228" y="339" type="curve" smooth="yes"/>
			<point x="864" y="976" type="line" smooth="yes"/>
			<point x="875" y="987"/>
			<point x="882" y="1002"/>
			<point x="882" y="1019" type="curve" smooth="yes"/>
			<point x="882" y="1052"/>
			<point x="855" y="1079"/>
			<point x="822" y="1079" type="curve" smooth="yes"/>
			<point x="805" y="1079"/>
			<point x="791" y="1072"/>
			<point x="780" y="1062" type="curve" smooth="yes"/>
			<point x="144" y="425" type="line" smooth="yes"/>
			<point x="133" y="414"/>
			<point x="126" y="399"/>
			<point x="126" y="382" type="curve" smooth="yes"/>
			<point x="126" y="349"/>
			<point x="153" y="322"/>
			<point x="186" y="322" type="curve" smooth="yes"/>
			<point x="203" y="322"/>
			<point x="217" y="329"/>
		</contour>
		<contour>
			<point x="142" y="977" type="curve" smooth="yes"/>
			<point x="299" y="821" type="line" smooth="yes"/>
			<point x="310" y="810"/>
			<point x="325" y="803"/>
			<point x="342" y="803" type="curve" smooth="yes"/>
			<point x="375" y="803"/>
			<point x="402" y="830"/>
			<point x="402" y="863" type="curve" smooth="yes"/>
			<point x="402" y="879"/>
			<point x="395" y="894"/>
			<point x="385" y="905" type="curve" smooth="yes"/>
			<point x="227" y="1062" type="line" smooth="yes"/>
			<point x="216" y="1072"/>
			<point x="202" y="1079"/>
			<point x="185" y="1079" type="curve" smooth="yes"/>
			<point x="152" y="1079"/>
			<point x="125" y="1052"/>
			<point x="125" y="1019" type="curve" smooth="yes"/>
			<point x="125" y="1003"/>
			<point x="132" y="988"/>
		</contour>
	</outline>
</glyph>
<glyph name="Oslash" format="2">
	<advance width="1521"/>
	<unicode hex="00D8"/>
	<unicode hex="00F8"/>
	<outline>
		<contour>
			<point x="121" y="0" type="curve" smooth="yes"/>
			<point x="138" y="0"/>
			<point x="153" y="7"/>
			<point x="163" y="18" type="curve" smooth="yes"/>
			<point x="1443" y="1297" type="line" smooth="yes"/>
			<point x="1454" y="1308"/>
			<point x="1461" y="1323"/>
			<point x="1461" y="1340" type="curve" smooth="yes"/>
			<point x="1461" y="1373"/>
			<point x="1434" y="1400"/>
			<point x="1401" y="1400" type="curve" smooth="yes"/>
			<point x="1384" y="1400"/>
			<point x="1369" y="1393"/>
			<point x="1358" y="1382" type="curve" smooth="yes"/>
			<point x="79" y="102" type="line" smooth="yes"/>
			<point x="68" y="92"/>
			<point x="61" y="77"/>
			<point x="61" y="60" type="curve" smooth="yes"/>
			<point x="61" y="27"/>
			<point x="88" y="0"/>
		</contour>
		<contour>
			<point x="149" y="446" type="curve" smooth="yes"/>
			<point x="190" y="446"/>
			<point x="219" y="485"/>
			<point x="206" y="524" type="curve" smooth="yes"/>
			<point x="188" y="581"/>
			<point x="178" y="641"/>
			<point x="178" y="701" type="curve" smooth="yes"/>
			<point x="178" y="1008"/>
			<point x="428" y="1280"/>
			<point x="759" y="1280" type="curve" smooth="yes"/>
			<point x="818" y="1280"/>
			<point x="878" y="1271"/>
			<point x="936" y="1253" type="curve" smooth="yes"/>
			<point x="974" y="1241"/>
			<point x="1014" y="1270"/>
			<point x="1014" y="1310" type="curve" smooth="yes"/>
			<point x="1014" y="1337"/>
			<point x="996" y="1359"/>
			<point x="972" y="1367" type="curve" smooth="yes"/>
			<point x="902" y="1389"/>
			<point x="830" y="1400"/>
			<point x="759" y="1400" type="curve" smooth="yes"/>
			<point x="359" y="1400"/>
			<point x="58" y="1071"/>
			<point x="58" y="701" type="curve" smooth="yes"/>
			<point x="58" y="628"/>
			<point x="70" y="556"/>
			<point x="92" y="487" type="curve" smooth="yes"/>
			<point x="100" y="463"/>
			<point x="122" y="446"/>
		</contour>
		<contour>
			<point x="762" y="0" type="curve" smooth="yes"/>
			<point x="1162" y="0"/>
			<point x="1463" y="329"/>
			<point x="1463" y="699" type="curve" smooth="yes"/>
			<point x="1463" y="772"/>
			<point x="1451" y="844"/>
			<point x="1429" y="913" type="curve" smooth="yes"/>
			<point x="1421" y="937"/>
			<point x="1399" y="954"/>
			<point x="1372" y="954" type="curve" smooth="yes"/>
			<point x="1331" y="954"/>
			<point x="1302" y="915"/>
			<point x="1315" y="876" type="curve" smooth="yes"/>
			<point x="1333" y="819"/>
			<point x="1343" y="759"/>
			<point x="1343" y="699" type="curve" smooth="yes"/>
			<point x="1343" y="392"/>
			<point x="1093" y="120"/>
			<point x="762" y="120" type="curve" smooth="yes"/>
			<point x="703" y="120"/>
			<point x="643" y="129"/>
			<point x="585" y="147" type="curve" smooth="yes"/>
			<point x="547" y="159"/>
			<point x="507" y="130"/>
			<point x="507" y="90" type="curve" smooth="yes"/>
			<point x="507" y="63"/>
			<point x="525" y="41"/>
			<point x="549" y="33" type="curve" smooth="yes"/>
			<point x="619" y="11"/>
			<point x="691" y="0"/>
		</contour>
	</outline>
</glyph>
<glyph name="Thorn" format="2">
	<advance width="1130"/>
	<unicode hex="00DE"/>
	<unicode hex="00FE"/>
	<outline>
		<contour>
			<point x="220" y="60" type="curve"/>
			<point x="220" y="363" type="line"/>
			<point x="220" y="396.137"/>
			<point x="193.137" y="423"/>
			<point x="160" y="423" type="curve"/>
			<point x="126.863" y="423"/>
			<point x="100" y="396.137"/>
			<point x="100" y="363" type="curve"/>
			<point x="100" y="60" type="line"/>
			<point x="100" y="26.863"/>
			<point x="126.863" y="0"/>
			<point x="160" y="0" type="curve"/>
			<point x="193.137" y="0"/>
			<point x="220" y="26.863"/>
		</contour>
		<contour>
			<point x="100" y="1340" type="curve"/>
			<point x="100" y="717" type="line"/>
			<point x="100" y="683.863"/>
			<point x="126.863" y="657"/>
			<point x="160" y="657" type="curve"/>
			<point x="193.137" y="657"/>
			<point x="220" y="683.863"/>
			<point x="220" y="717" type="curve"/>
			<point x="220" y="1340" type="line"/>
			<point x="220" y="1373.137"/>
			<point x="193.137" y="1400"/>
			<point x="160" y="1400" type="curve"/>
			<point x="126.863" y="1400"/>
			<point x="100" y="1373.137"/>
		</contour>
		<contour>
			<point x="160" y="303" type="curve"/>
			<point x="658" y="303" type="line"/>
			<point x="877.106" y="303"/>
			<point x="1055" y="480.894"/>
			<point x="1055" y="701" type="curve"/>
			<point x="1055" y="920.106"/>
			<point x="877.106" y="1098"/>
			<point x="658" y="1098" type="curve"/>
			<point x="500" y="1098" type="line"/>
			<point x="466.863" y="1098"/>
			<point x="440" y="1071.137"/>
			<point x="440" y="1038" type="curve"/>
			<point x="440" y="1004.863"/>
			<point x="466.863" y="978"/>
			<point x="500" y="978" type="curve"/>
			<point x="658" y="978" type="line"/>
			<point x="811" y="978"/>
			<point x="935" y="854"/>
			<point x="935" y="701" type="curve"/>
			<point x="935" y="547"/>
			<point x="811" y="423"/>
			<point x="658" y="423" type="curve"/>
			<point x="160" y="423" type="line"/>
			<point x="126.863" y="423"/>
			<point x="100" y="396.137"/>
			<point x="100" y="363" type="curve"/>
			<point x="100" y="329.863"/>
			<point x="126.863" y="303"/>
		</contour>
	</outline>
</glyph>
<glyph name="divide" format="2">
	<advance width="1007"/>
	<unicode hex="00F7"/>
	<outline>
		<contour>
			<point x="504" y="963" type="curve" smooth="yes"/>
			<point x="545" y="963"/>
			<point x="579" y="997"/>
			<point x="579" y="1038" type="curve" smooth="yes"/>
			<point x="579" y="1079"/>
			<point x="545" y="1113"/>
			<point x="504" y="1113" type="curve" smooth="yes"/>
			<point x="463" y="1113"/>
			<point x="429" y="1079"/>
			<point x="429" y="1038" type="curve" smooth="yes"/>
			<point x="429" y="997"/>
			<point x="463" y="963"/>
		</contour>
		<contour>
			<point x="504" y="287" type="curve" smooth="yes"/>
			<point x="545" y="287"/>
			<point x="579" y="321"/>
			<point x="579" y="362" type="curve" smooth="yes"/>
			<point x="579" y="403"/>
			<point x="545" y="437"/>
			<point x="504" y="437" type="curve" smooth="yes"/>
			<point x="463" y="437"/>
			<point x="429" y="403"/>
			<point x="429" y="362" type="curve" smooth="yes"/>
			<point x="429" y="321"/>
			<point x="463" y="287"/>
		</contour>
		<contour>
			<point x="120" y="641" type="curve"/>
			<point x="887" y="641" type="line"/>
			<point x="920.137" y="641"/>
			<point x="947" y="667.863"/>
			<point x="947" y="701" type="curve"/>
			<point x="947" y="734.137"/>
			<point x="920.137" y="761"/>
			<point x="887" y="761" type="curve"/>
			<point x="120" y="761" type="line"/>
			<point x="86.863" y="761"/>
			<point x="60" y="734.137"/>
			<point x="60" y="701" type="curve"/>
			<point x="60" y="667.863"/>
			<point x="86.863" y="641"/>
		</contour>
	</outline>
</glyph>
<glyph name="Idotaccent" format="2">
	<advance width="350"/>
	<unicode hex="0130"/>
	<anchor x="175" y="1400" name="_top"/>
	<anchor x="175" y="1744" name="top"/>
	<outline>
		<contour>
			<point x="175" y="1594" type="curve" smooth="yes"/>
			<point x="216" y="1594"/>
			<point x="250" y="1628"/>
			<point x="250" y="1669" type="curve" smooth="yes"/>
			<point x="250" y="1710"/>
			<point x="216" y="1744"/>
			<point x="175" y="1744" type="curve" smooth="yes"/>
			<point x="134" y="1744"/>
			<point x="100" y="1710"/>
			<point x="100" y="1669" type="curve" smooth="yes"/>
			<point x="100" y="1628"/>
			<point x="134" y="1594"/>
		</contour>
		<component base="I" xOffset="15"/>
	</outline>
</glyph>
<glyph name="Lslash" format="2">
	<advance width="1266"/>
	<unicode hex="0141"/>
	<unicode hex="0142"/>
	<outline>
		<contour>
			<point x="301" y="60" type="curve"/>
			<point x="301" y="420" type="line"/>
			<point x="301" y="453.137"/>
			<point x="274.137" y="480"/>
			<point x="241" y="480" type="curve"/>
			<point x="207.863" y="480"/>
			<point x="181" y="453.137"/>
			<point x="181" y="420" type="curve"/>
			<point x="181" y="60" type="line"/>
			<point x="181" y="26.863"/>
			<point x="207.863" y="0"/>
			<point x="241" y="0" type="curve"/>
			<point x="274.137" y="0"/>
			<point x="301" y="26.863"/>
		</contour>
		<contour>
			<point x="1136" y="120" type="curve"/>
			<point x="241" y="120" type="line"/>
			<point x="207.863" y="120"/>
			<point x="181" y="93.137"/>
			<point x="181" y="60" type="curve"/>
			<point x="181" y="26.863"/>
			<point x="207.863" y="0"/>
			<point x="241" y="0" type="curve"/>
			<point x="1136" y="0" type="line"/>
			<point x="1169.137" y="0"/>
			<point x="1196" y="26.863"/>
			<point x="1196" y="60" type="curve"/>
			<point x="1196" y="93.137"/>
			<point x="1169.137" y="120"/>
		</contour>
		<contour>
			<point x="395.53" y="855.134" type="curve"/>
			<point x="29.551" y="648.276" type="line"/>
			<point x="11.871" y="637.838"/>
			<point x="0.01" y="618.59"/>
			<point x="0.01" y="596.571" type="curve"/>
			<point x="0.01" y="563.434"/>
			<point x="26.873" y="536.571"/>
			<point x="60.01" y="536.571" type="curve"/>
			<point x="71.129" y="536.571"/>
			<point x="81.542" y="539.595"/>
			<point x="90.47" y="544.866" type="curve"/>
			<point x="456.449" y="751.724" type="line"/>
			<point x="474.129" y="762.162"/>
			<point x="485.99" y="781.41"/>
			<point x="485.99" y="803.429" type="curve"/>
			<point x="485.99" y="836.566"/>
			<point x="459.127" y="863.429"/>
			<point x="425.99" y="863.429" type="curve"/>
			<point x="414.871" y="863.429"/>
			<point x="404.458" y="860.405"/>
		</contour>
		<contour>
			<point x="301" y="980" type="curve"/>
			<point x="301" y="1340" type="line"/>
			<point x="301" y="1373.137"/>
			<point x="274.137" y="1400"/>
			<point x="241" y="1400" type="curve"/>
			<point x="207.863" y="1400"/>
			<point x="181" y="1373.137"/>
			<point x="181" y="1340" type="curve"/>
			<point x="181" y="980" type="line"/>
			<point x="181" y="946.863"/>
			<point x="207.863" y="920"/>
			<point x="241" y="920" type="curve"/>
			<point x="274.137" y="920"/>
			<point x="301" y="946.863"/>
		</contour>
	</outline>
</glyph>
<glyph name="OE" format="2">
	<advance width="1819"/>
	<unicode hex="0152"/>
	<unicode hex="0153"/>
	<outline>
		<contour>
			<point x="1679" y="120" type="curve"/>
			<point x="1036" y="120" type="line"/>
			<point x="1002.863" y="120"/>
			<point x="976" y="93.137"/>
			<point x="976" y="60" type="curve"/>
			<point x="976" y="26.863"/>
			<point x="1002.863" y="0"/>
			<point x="1036" y="0" type="curve"/>
			<point x="1679" y="0" type="line"/>
			<point x="1712.137" y="0"/>
			<point x="1739" y="26.863"/>
			<point x="1739" y="60" type="curve"/>
			<point x="1739" y="93.137"/>
			<point x="1712.137" y="120"/>
		</contour>
		<contour>
			<point x="1096" y="60" type="line"/>
			<point x="1096" y="706" type="line"/>
			<point x="1096" y="739.137"/>
			<point x="1069.137" y="766"/>
			<point x="1036" y="766" type="curve"/>
			<point x="1002.863" y="766"/>
			<point x="976" y="739.137"/>
			<point x="976" y="706" type="curve"/>
			<point x="976" y="60" type="line"/>
		</contour>
		<contour>
			<point x="780" y="120" type="curve"/>
			<point x="459" y="120"/>
			<point x="200" y="379"/>
			<point x="200" y="700" type="curve"/>
			<point x="200" y="1021"/>
			<point x="459" y="1280"/>
			<point x="780" y="1280" type="curve"/>
			<point x="1679" y="1280" type="line"/>
			<point x="1712.137" y="1280"/>
			<point x="1739" y="1306.863"/>
			<point x="1739" y="1340" type="curve"/>
			<point x="1739" y="1373.137"/>
			<point x="1712.137" y="1400"/>
			<point x="1679" y="1400" type="curve"/>
			<point x="780" y="1400" type="line"/>
			<point x="392.894" y="1400"/>
			<point x="80" y="1087.106"/>
			<point x="80" y="700" type="curve"/>
			<point x="80" y="312.894"/>
			<point x="392.894" y="0"/>
			<point x="780" y="0" type="curve"/>
			<point x="813.137" y="0"/>
			<point x="840" y="26.863"/>
			<point x="840" y="60" type="curve"/>
			<point x="840" y="93.137"/>
			<point x="813.137" y="120"/>
		</contour>
		<contour>
			<point x="1363" y="640" type="curve"/>
			<point x="1678" y="640" type="line"/>
			<point x="1711.137" y="640"/>
			<point x="1738" y="666.863"/>
			<point x="1738" y="700" type="curve"/>
			<point x="1738" y="733.137"/>
			<point x="1711.137" y="760"/>
			<point x="1678" y="760" type="curve"/>
			<point x="1363" y="760" type="line"/>
			<point x="1329.863" y="760"/>
			<point x="1303" y="733.137"/>
			<point x="1303" y="700" type="curve"/>
			<point x="1303" y="666.863"/>
			<point x="1329.863" y="640"/>
		</contour>
	</outline>
</glyph>
<glyph name="Schwa" format="2">
	<advance width="1560"/>
	<unicode hex="018F"/>
	<unicode hex="0259"/>
	<anchor x="780" y="0" name="bottom"/>
	<anchor x="780" y="700" name="center"/>
	<anchor x="780" y="0" name="ogonek"/>
	<anchor x="780" y="1400" name="top"/>
	<anchor x="40" y="1400" name="topleft"/>
	<anchor x="1520" y="1400" name="topright"/>
	<outline>
		<contour>
			<point x="780" y="1280" type="curve"/>
			<point x="1101" y="1280"/>
			<point x="1360" y="1021"/>
			<point x="1360" y="700" type="curve"/>
			<point x="1360" y="379"/>
			<point x="1101" y="120"/>
			<point x="780" y="120" type="curve"/>
			<point x="459" y="120"/>
			<point x="200" y="379"/>
			<point x="200" y="700" type="curve"/>
			<point x="200" y="733.137"/>
			<point x="173.137" y="760"/>
			<point x="140" y="760" type="curve"/>
			<point x="106.863" y="760"/>
			<point x="80" y="733.137"/>
			<point x="80" y="700" type="curve"/>
			<point x="80" y="312.894"/>
			<point x="392.894" y="0"/>
			<point x="780" y="0" type="curve"/>
			<point x="1167.106" y="0"/>
			<point x="1480" y="312.894"/>
			<point x="1480" y="700" type="curve"/>
			<point x="1480" y="1087.106"/>
			<point x="1167.106" y="1400"/>
			<point x="780" y="1400" type="curve"/>
			<point x="746.863" y="1400"/>
			<point x="720" y="1373.137"/>
			<point x="720" y="1340" type="curve"/>
			<point x="720" y="1306.863"/>
			<point x="746.863" y="1280"/>
		</contour>
		<contour>
			<point x="140" y="640" type="curve"/>
			<point x="1080" y="640" type="line"/>
			<point x="1113.137" y="640"/>
			<point x="1140" y="666.863"/>
			<point x="1140" y="700" type="curve"/>
			<point x="1140" y="733.137"/>
			<point x="1113.137" y="760"/>
			<point x="1080" y="760" type="curve"/>
			<point x="140" y="760" type="line"/>
			<point x="106.863" y="760"/>
			<point x="80" y="733.137"/>
			<point x="80" y="700" type="curve"/>
			<point x="80" y="666.863"/>
			<point x="106.863" y="640"/>
		</contour>
	</outline>
</glyph>
<glyph name="florin" format="2">
	<advance width="896"/>
	<unicode hex="0192"/>
	<outline>
		<contour>
			<point x="388" y="342" type="curve" smooth="yes"/>
			<point x="388" y="-52" type="line" smooth="yes"/>
			<point x="388" y="-178"/>
			<point x="286" y="-280"/>
			<point x="160" y="-280" type="curve" smooth="yes"/>
			<point x="127" y="-280"/>
			<point x="100" y="-307"/>
			<point x="100" y="-340" type="curve" smooth="yes"/>
			<point x="100" y="-373"/>
			<point x="127" y="-400"/>
			<point x="160" y="-400" type="curve" smooth="yes"/>
			<point x="352" y="-400"/>
			<point x="508" y="-244"/>
			<point x="508" y="-52" type="curve" smooth="yes"/>
			<point x="508" y="342" type="line" smooth="yes"/>
			<point x="508" y="375"/>
			<point x="481" y="402"/>
			<point x="448" y="402" type="curve" smooth="yes"/>
			<point x="415" y="402"/>
			<point x="388" y="375"/>
		</contour>
		<contour>
			<point x="205" y="640" type="curve" smooth="yes"/>
			<point x="691" y="640" type="line" smooth="yes"/>
			<point x="724" y="640"/>
			<point x="751" y="667"/>
			<point x="751" y="700" type="curve" smooth="yes"/>
			<point x="751" y="733"/>
			<point x="724" y="760"/>
			<point x="691" y="760" type="curve" smooth="yes"/>
			<point x="205" y="760" type="line" smooth="yes"/>
			<point x="172" y="760"/>
			<point x="145" y="733"/>
			<point x="145" y="700" type="curve" smooth="yes"/>
			<point x="145" y="667"/>
			<point x="172" y="640"/>
		</contour>
		<contour>
			<point x="508" y="1052" type="curve" smooth="yes"/>
			<point x="508" y="1178"/>
			<point x="610" y="1280"/>
			<point x="736" y="1280" type="curve" smooth="yes"/>
			<point x="769" y="1280"/>
			<point x="796" y="1307"/>
			<point x="796" y="1340" type="curve" smooth="yes"/>
			<point x="796" y="1373"/>
			<point x="769" y="1400"/>
			<point x="736" y="1400" type="curve" smooth="yes"/>
			<point x="544" y="1400"/>
			<point x="388" y="1244"/>
			<point x="388" y="1052" type="curve" smooth="yes"/>
			<point x="388" y="1019"/>
			<point x="415" y="992"/>
			<point x="448" y="992" type="curve" smooth="yes"/>
			<point x="481" y="992"/>
			<point x="508" y="1019"/>
		</contour>
	</outline>
</glyph>
<glyph name="gravecomb" format="2">
	<advance width="0"/>
	<unicode hex="0300"/>
	<anchor x="0" y="1400" name="_top"/>
	<anchor x="0" y="1830" name="top"/>
	<outline>
		<contour>
			<point x="-316.436" y="1763.572" type="curve"/>
			<point x="-30.071" y="1562.321" type="line"/>
			<point x="-21.846" y="1556.377"/>
			<point x="-11.741" y="1552.874"/>
			<point x="-0.817" y="1552.874" type="curve"/>
			<point x="26.797" y="1552.874"/>
			<point x="49.183" y="1575.26"/>
			<point x="49.183" y="1602.874" type="curve"/>
			<point x="49.183" y="1619.566"/>
			<point x="41.004" y="1634.346"/>
			<point x="28.436" y="1643.428" type="curve"/>
			<point x="-257.929" y="1844.679" type="line"/>
			<point x="-266.154" y="1850.623"/>
			<point x="-276.259" y="1854.126"/>
			<point x="-287.183" y="1854.126" type="curve"/>
			<point x="-314.797" y="1854.126"/>
			<point x="-337.183" y="1831.74"/>
			<point x="-337.183" y="1804.126" type="curve"/>
			<point x="-337.183" y="1787.434"/>
			<point x="-329.004" y="1772.654"/>
		</contour>
	</outline>
</glyph>
<glyph name="acutecomb" format="2">
	<advance width="0"/>
	<unicode hex="0301"/>
	<anchor x="0" y="1400" name="_top"/>
	<anchor x="0" y="1830" name="top"/>
	<outline>
		<contour>
			<point x="30.071" y="1562.321" type="curve"/>
			<point x="316.436" y="1763.572" type="line"/>
			<point x="329.004" y="1772.654"/>
			<point x="337.183" y="1787.434"/>
			<point x="337.183" y="1804.126" type="curve"/>
			<point x="337.183" y="1831.74"/>
			<point x="314.797" y="1854.126"/>
			<point x="287.183" y="1854.126" type="curve"/>
			<point x="276.259" y="1854.126"/>
			<point x="266.154" y="1850.623"/>
			<point x="257.929" y="1844.679" type="curve"/>
			<point x="-28.436" y="1643.428" type="line"/>
			<point x="-41.004" y="1634.346"/>
			<point x="-49.183" y="1619.566"/>
			<point x="-49.183" y="1602.874" type="curve"/>
			<point x="-49.183" y="1575.26"/>
			<point x="-26.797" y="1552.874"/>
			<point x="0.817" y="1552.874" type="curve"/>
			<point x="11.741" y="1552.874"/>
			<point x="21.846" y="1556.377"/>
		</contour>
	</outline>
</glyph>
<glyph name="circumflexcomb" format="2">
	<advance width="0"/>
	<unicode hex="0302"/>
	<anchor x="0" y="1400" name="_top"/>
	<anchor x="0" y="1849" name="top"/>
	<anchor x="219" y="1594" name="top_viet"/>
	<anchor x="380" y="1613" name="top_viet_grave"/>
	<outline>
		<contour>
			<point x="-35.165" y="1835.238" type="curve"/>
			<point x="-236.836" y="1644.142" type="line"/>
			<point x="-246.385" y="1635.036"/>
			<point x="-252.335" y="1622.189"/>
			<point x="-252.335" y="1607.952" type="curve"/>
			<point x="-252.335" y="1580.337"/>
			<point x="-229.95" y="1557.952"/>
			<point x="-202.335" y="1557.952" type="curve"/>
			<point x="-188.958" y="1557.952"/>
			<point x="-176.808" y="1563.205"/>
			<point x="-167.835" y="1571.762" type="curve"/>
			<point x="33.836" y="1762.858" type="line"/>
			<point x="43.385" y="1771.964"/>
			<point x="49.335" y="1784.811"/>
			<point x="49.335" y="1799.048" type="curve"/>
			<point x="49.335" y="1826.663"/>
			<point x="26.95" y="1849.048"/>
			<point x="-0.665" y="1849.048" type="curve"/>
			<point x="-14.042" y="1849.048"/>
			<point x="-26.192" y="1843.795"/>
		</contour>
		<contour>
			<point x="-32.327" y="1760.645" type="line"/>
			<point x="167.841" y="1571.646" type="line"/>
			<point x="176.807" y="1563.124"/>
			<point x="188.933" y="1557.894"/>
			<point x="202.281" y="1557.894" type="curve"/>
			<point x="229.895" y="1557.894"/>
			<point x="252.281" y="1580.279"/>
			<point x="252.281" y="1607.894" type="curve"/>
			<point x="252.281" y="1622.161"/>
			<point x="246.305" y="1635.033"/>
			<point x="236.72" y="1644.142" type="curve"/>
			<point x="36.327" y="1833.355" type="line"/>
		</contour>
	</outline>
</glyph>
<glyph name="tildecomb" format="2">
	<advance width="0"/>
	<unicode hex="0303"/>
	<anchor x="0" y="1400" name="_top"/>
	<anchor x="0" y="1740" name="top"/>
	<outline>
		<contour>
			<point x="182" y="1729" type="curve" smooth="yes"/>
			<point x="155" y="1664"/>
			<point x="110" y="1649"/>
			<point x="32" y="1714" type="curve" smooth="yes"/>
			<point x="-95" y="1822"/>
			<point x="-226" y="1776"/>
			<point x="-274" y="1661" type="curve" smooth="yes"/>
			<point x="-277" y="1655"/>
			<point x="-278" y="1649"/>
			<point x="-278" y="1642" type="curve" smooth="yes"/>
			<point x="-278" y="1614"/>
			<point x="-256" y="1592"/>
			<point x="-228" y="1592" type="curve" smooth="yes"/>
			<point x="-207" y="1592"/>
			<point x="-189" y="1605"/>
			<point x="-182" y="1623" type="curve" smooth="yes"/>
			<point x="-155" y="1688"/>
			<point x="-110" y="1703"/>
			<point x="-32" y="1638" type="curve" smooth="yes"/>
			<point x="95" y="1530"/>
			<point x="226" y="1576"/>
			<point x="274" y="1691" type="curve" smooth="yes"/>
			<point x="277" y="1697"/>
			<point x="278" y="1703"/>
			<point x="278" y="1710" type="curve" smooth="yes"/>
			<point x="278" y="1738"/>
			<point x="256" y="1760"/>
			<point x="228" y="1760" type="curve" smooth="yes"/>
			<point x="207" y="1760"/>
			<point x="189" y="1747"/>
		</contour>
	</outline>
</glyph>
<glyph name="macroncomb" format="2">
	<advance width="0"/>
	<unicode hex="0304"/>
	<anchor x="0" y="1400" name="_top"/>
	<anchor x="0" y="1722" name="top"/>
	<outline>
		<contour>
			<point x="-223" y="1622" type="curve"/>
			<point x="223" y="1622" type="line"/>
			<point x="250.614" y="1622"/>
			<point x="273" y="1644.386"/>
			<point x="273" y="1672" type="curve"/>
			<point x="273" y="1699.614"/>
			<point x="250.614" y="1722"/>
			<point x="223" y="1722" type="curve"/>
			<point x="-223" y="1722" type="line"/>
			<point x="-250.614" y="1722"/>
			<point x="-273" y="1699.614"/>
			<point x="-273" y="1672" type="curve"/>
			<point x="-273" y="1644.386"/>
			<point x="-250.614" y="1622"/>
		</contour>
	</outline>
</glyph>
<glyph name="brevecomb" format="2">
	<advance width="0"/>
	<unicode hex="0306"/>
	<anchor x="0" y="1400" name="_top"/>
	<anchor x="0" y="1823" name="top"/>
	<outline>
		<contour>
			<point x="1" y="1523" type="curve" smooth="yes"/>
			<point x="145" y="1523"/>
			<point x="265" y="1627"/>
			<point x="290" y="1765" type="curve" smooth="yes"/>
			<point x="296" y="1795"/>
			<point x="272" y="1823"/>
			<point x="241" y="1823" type="curve" smooth="yes"/>
			<point x="216" y="1823"/>
			<point x="196" y="1805"/>
			<point x="192" y="1781" type="curve" smooth="yes"/>
			<point x="177" y="1686"/>
			<point x="103" y="1623"/>
			<point x="1" y="1623" type="curve" smooth="yes"/>
			<point x="-102" y="1623"/>
			<point x="-177" y="1686"/>
			<point x="-192" y="1781" type="curve" smooth="yes"/>
			<point x="-196" y="1805"/>
			<point x="-216" y="1823"/>
			<point x="-241" y="1823" type="curve" smooth="yes"/>
			<point x="-272" y="1823"/>
			<point x="-296" y="1795"/>
			<point x="-290" y="1765" type="curve" smooth="yes"/>
			<point x="-265" y="1627"/>
			<point x="-145" y="1523"/>
		</contour>
	</outline>
</glyph>
<glyph name="hookabovecomb" format="2">
	<advance width="0"/>
	<unicode hex="0309"/>
	<anchor x="0" y="1400" name="_top"/>
	<anchor x="0" y="1880" name="top"/>
	<outline>
		<contour>
			<point x="-53" y="1780" type="curve"/>
			<point x="-6" y="1780"/>
			<point x="32" y="1742"/>
			<point x="32" y="1695" type="curve"/>
			<point x="32" y="1648"/>
			<point x="-6" y="1610"/>
			<point x="-53" y="1610" type="curve"/>
			<point x="-80.614" y="1610"/>
			<point x="-103" y="1587.614"/>
			<point x="-103" y="1560" type="curve"/>
			<point x="-103" y="1532.386"/>
			<point x="-80.614" y="1510"/>
			<point x="-53" y="1510" type="curve"/>
			<point x="49" y="1510"/>
			<point x="132" y="1593"/>
			<point x="132" y="1695" type="curve"/>
			<point x="132" y="1797"/>
			<point x="49" y="1880"/>
			<point x="-53" y="1880" type="curve"/>
			<point x="-80.614" y="1880"/>
			<point x="-103" y="1857.614"/>
			<point x="-103" y="1830" type="curve"/>
			<point x="-103" y="1802.386"/>
			<point x="-80.614" y="1780"/>
		</contour>
	</outline>
</glyph>
<glyph name="uni030A" format="2">
	<advance width="0"/>
	<unicode hex="030A"/>
	<anchor x="0" y="1400" name="_top"/>
	<anchor x="0" y="1880" name="top"/>
	<outline>
		<contour>
			<point x="0" y="1610" type="curve" smooth="yes"/>
			<point x="-47" y="1610"/>
			<point x="-85" y="1648"/>
			<point x="-85" y="1695" type="curve" smooth="yes"/>
			<point x="-85" y="1742"/>
			<point x="-47" y="1780"/>
			<point x="0" y="1780" type="curve" smooth="yes"/>
			<point x="47" y="1780"/>
			<point x="85" y="1742"/>
			<point x="85" y="1695" type="curve" smooth="yes"/>
			<point x="85" y="1648"/>
			<point x="47" y="1610"/>
		</contour>
		<contour>
			<point x="0" y="1510" type="curve" smooth="yes"/>
			<point x="102" y="1510"/>
			<point x="185" y="1593"/>
			<point x="185" y="1695" type="curve" smooth="yes"/>
			<point x="185" y="1797"/>
			<point x="102" y="1880"/>
			<point x="0" y="1880" type="curve" smooth="yes"/>
			<point x="-102" y="1880"/>
			<point x="-185" y="1797"/>
			<point x="-185" y="1695" type="curve" smooth="yes"/>
			<point x="-185" y="1593"/>
			<point x="-102" y="1510"/>
		</contour>
	</outline>
</glyph>
<glyph name="hungarumlautcomb" format="2">
	<advance width="0"/>
	<unicode hex="030B"/>
	<anchor x="0" y="1400" name="_top"/>
	<anchor x="0" y="1849" name="top"/>
	<outline>
		<contour>
			<point x="-87.21" y="1834.364" type="curve"/>
			<point x="-282.708" y="1644.13" type="line"/>
			<point x="-291.989" y="1635.052"/>
			<point x="-297.749" y="1622.39"/>
			<point x="-297.749" y="1608.383" type="curve"/>
			<point x="-297.749" y="1580.768"/>
			<point x="-275.364" y="1558.383"/>
			<point x="-247.749" y="1558.383" type="curve"/>
			<point x="-234.142" y="1558.383"/>
			<point x="-221.805" y="1563.818"/>
			<point x="-212.79" y="1572.636" type="curve"/>
			<point x="-17.292" y="1762.87" type="line"/>
			<point x="-8.011" y="1771.948"/>
			<point x="-2.251" y="1784.61"/>
			<point x="-2.251" y="1798.617" type="curve"/>
			<point x="-2.251" y="1826.232"/>
			<point x="-24.636" y="1848.617"/>
			<point x="-52.251" y="1848.617" type="curve"/>
			<point x="-65.858" y="1848.617"/>
			<point x="-78.195" y="1843.182"/>
		</contour>
		<contour>
			<point x="212.79" y="1834.364" type="curve"/>
			<point x="17.292" y="1644.13" type="line"/>
			<point x="8.011" y="1635.052"/>
			<point x="2.251" y="1622.39"/>
			<point x="2.251" y="1608.383" type="curve"/>
			<point x="2.251" y="1580.768"/>
			<point x="24.636" y="1558.383"/>
			<point x="52.251" y="1558.383" type="curve"/>
			<point x="65.858" y="1558.383"/>
			<point x="78.195" y="1563.818"/>
			<point x="87.21" y="1572.636" type="curve"/>
			<point x="282.708" y="1762.87" type="line"/>
			<point x="291.989" y="1771.948"/>
			<point x="297.749" y="1784.61"/>
			<point x="297.749" y="1798.617" type="curve"/>
			<point x="297.749" y="1826.232"/>
			<point x="275.364" y="1848.617"/>
			<point x="247.749" y="1848.617" type="curve"/>
			<point x="234.142" y="1848.617"/>
			<point x="221.805" y="1843.182"/>
		</contour>
	</outline>
</glyph>
<glyph name="uni030B" format="2">
	<advance width="0"/>
	<unicode hex="030B"/>
	<anchor x="0" y="1400" name="_top"/>
	<anchor x="0" y="1849" name="top"/>
	<outline>
		<contour>
			<point x="-87" y="1834" type="curve" smooth="yes"/>
			<point x="-283" y="1644" type="line" smooth="yes"/>
			<point x="-292" y="1635"/>
			<point x="-298" y="1622"/>
			<point x="-298" y="1608" type="curve" smooth="yes"/>
			<point x="-298" y="1581"/>
			<point x="-275" y="1558"/>
			<point x="-248" y="1558" type="curve" smooth="yes"/>
			<point x="-234" y="1558"/>
			<point x="-222" y="1564"/>
			<point x="-213" y="1573" type="curve" smooth="yes"/>
			<point x="-17" y="1763" type="line" smooth="yes"/>
			<point x="-8" y="1772"/>
			<point x="-2" y="1785"/>
			<point x="-2" y="1799" type="curve" smooth="yes"/>
			<point x="-2" y="1826"/>
			<point x="-25" y="1849"/>
			<point x="-52" y="1849" type="curve" smooth="yes"/>
			<point x="-66" y="1849"/>
			<point x="-78" y="1843"/>
		</contour>
		<contour>
			<point x="213" y="1834" type="curve" smooth="yes"/>
			<point x="17" y="1644" type="line" smooth="yes"/>
			<point x="8" y="1635"/>
			<point x="2" y="1622"/>
			<point x="2" y="1608" type="curve" smooth="yes"/>
			<point x="2" y="1581"/>
			<point x="25" y="1558"/>
			<point x="52" y="1558" type="curve" smooth="yes"/>
			<point x="66" y="1558"/>
			<point x="78" y="1564"/>
			<point x="87" y="1573" type="curve" smooth="yes"/>
			<point x="283" y="1763" type="line" smooth="yes"/>
			<point x="292" y="1772"/>
			<point x="298" y="1785"/>
			<point x="298" y="1799" type="curve" smooth="yes"/>
			<point x="298" y="1826"/>
			<point x="275" y="1849"/>
			<point x="248" y="1849" type="curve" smooth="yes"/>
			<point x="234" y="1849"/>
			<point x="222" y="1843"/>
		</contour>
	</outline>
</glyph>
<glyph name="horncomb" format="2">
	<advance width="0"/>
	<unicode hex="031B"/>
	<anchor x="-123" y="1341" name="_topright"/>
	<anchor x="198" y="1560" name="topright"/>
	<outline>
		<contour>
			<point x="-24.762" y="1294.969" type="curve"/>
			<point x="195.472" y="1479.588" type="line"/>
			<point x="208.41" y="1490.593"/>
			<point x="216.617" y="1506.993"/>
			<point x="216.617" y="1525.309" type="curve"/>
			<point x="216.617" y="1558.447"/>
			<point x="189.754" y="1585.309"/>
			<point x="156.617" y="1585.309" type="curve"/>
			<point x="141.796" y="1585.309"/>
			<point x="128.23" y="1579.936"/>
			<point x="117.762" y="1571.031" type="curve"/>
			<point x="-102.472" y="1386.412" type="line"/>
			<point x="-115.41" y="1375.407"/>
			<point x="-123.617" y="1359.007"/>
			<point x="-123.617" y="1340.691" type="curve"/>
			<point x="-123.617" y="1307.553"/>
			<point x="-96.754" y="1280.691"/>
			<point x="-63.617" y="1280.691" type="curve"/>
			<point x="-48.796" y="1280.691"/>
			<point x="-35.23" y="1286.064"/>
		</contour>
	</outline>
</glyph>
<glyph name="uni031B" format="2">
	<advance width="0"/>
	<unicode hex="031B"/>
	<anchor x="-123" y="1341" name="_topright"/>
	<anchor x="198" y="1560" name="topright"/>
	<outline>
		<contour>
			<point x="-25" y="1295" type="curve" smooth="yes"/>
			<point x="195" y="1480" type="line" smooth="yes"/>
			<point x="208" y="1491"/>
			<point x="217" y="1507"/>
			<point x="217" y="1525" type="curve" smooth="yes"/>
			<point x="217" y="1558"/>
			<point x="190" y="1585"/>
			<point x="157" y="1585" type="curve" smooth="yes"/>
			<point x="142" y="1585"/>
			<point x="128" y="1580"/>
			<point x="118" y="1571" type="curve" smooth="yes"/>
			<point x="-102" y="1386" type="line" smooth="yes"/>
			<point x="-115" y="1375"/>
			<point x="-124" y="1359"/>
			<point x="-124" y="1341" type="curve" smooth="yes"/>
			<point x="-124" y="1308"/>
			<point x="-97" y="1281"/>
			<point x="-64" y="1281" type="curve" smooth="yes"/>
			<point x="-49" y="1281"/>
			<point x="-35" y="1286"/>
		</contour>
	</outline>
</glyph>
<glyph name="dotbelowcomb" format="2">
	<advance width="0"/>
	<unicode hex="0323"/>
	<outline>
		<contour>
			<point x="0" y="-296" type="curve" smooth="yes"/>
			<point x="41" y="-296"/>
			<point x="75" y="-262"/>
			<point x="75" y="-221" type="curve" smooth="yes"/>
			<point x="75" y="-180"/>
			<point x="41" y="-146"/>
			<point x="0" y="-146" type="curve" smooth="yes"/>
			<point x="-41" y="-146"/>
			<point x="-75" y="-180"/>
			<point x="-75" y="-221" type="curve" smooth="yes"/>
			<point x="-75" y="-262"/>
			<point x="-41" y="-296"/>
		</contour>
	</outline>
</glyph>
<glyph name="cedillacomb" format="2">
	<advance width="0"/>
	<unicode hex="0327"/>
	<anchor x="0" y="0" name="_bottom"/>
	<anchor x="0" y="-383" name="bottom"/>
	<outline>
		<contour>
			<point x="-2" y="-383" type="curve" smooth="yes"/>
			<point x="25" y="-383"/>
			<point x="48" y="-365"/>
			<point x="55" y="-341" type="curve" smooth="yes"/>
			<point x="118" y="-153" type="line" smooth="yes"/>
			<point x="130" y="-114"/>
			<point x="101" y="-75"/>
			<point x="61" y="-75" type="curve" smooth="yes"/>
			<point x="34" y="-75"/>
			<point x="11" y="-93"/>
			<point x="4" y="-117" type="curve" smooth="yes"/>
			<point x="-59" y="-305" type="line" smooth="yes"/>
			<point x="-71" y="-344"/>
			<point x="-42" y="-383"/>
		</contour>
	</outline>
</glyph>
<glyph name="ogonekcomb" format="2">
	<advance width="0"/>
	<unicode hex="0328"/>
	<anchor x="64" y="0" name="_ogonek"/>
	<outline>
		<contour>
			<point x="-63" y="-302" type="curve" smooth="yes"/>
			<point x="-39" y="-302"/>
			<point x="-18" y="-288"/>
			<point x="-8" y="-267" type="curve" smooth="yes"/>
			<point x="118" y="36" type="line" smooth="yes"/>
			<point x="132" y="68"/>
			<point x="114" y="120"/>
			<point x="63" y="120" type="curve" smooth="yes"/>
			<point x="39" y="120"/>
			<point x="18" y="106"/>
			<point x="8" y="85" type="curve" smooth="yes"/>
			<point x="-118" y="-218" type="line" smooth="yes"/>
			<point x="-132" y="-250"/>
			<point x="-114" y="-302"/>
		</contour>
	</outline>
</glyph>
<glyph name="uni0394" format="2">
	<advance width="1372"/>
	<unicode hex="0394"/>
	<unicode hex="2206"/>
	<outline>
		<contour>
			<point x="1242" y="120" type="curve" smooth="yes"/>
			<point x="130" y="120" type="line" smooth="yes"/>
			<point x="97" y="120"/>
			<point x="70" y="93"/>
			<point x="70" y="60" type="curve" smooth="yes"/>
			<point x="70" y="27"/>
			<point x="97" y="0"/>
			<point x="130" y="0" type="curve" smooth="yes"/>
			<point x="1242" y="0" type="line" smooth="yes"/>
			<point x="1275" y="0"/>
			<point x="1302" y="27"/>
			<point x="1302" y="60" type="curve" smooth="yes"/>
			<point x="1302" y="93"/>
			<point x="1275" y="120"/>
		</contour>
		<contour>
			<point x="467" y="915" type="curve" smooth="yes"/>
			<point x="74" y="82" type="line"/>
			<point x="183" y="31" type="line"/>
			<point x="575" y="862" type="line" smooth="yes"/>
			<point x="579" y="870"/>
			<point x="581" y="879"/>
			<point x="581" y="889" type="curve" smooth="yes"/>
			<point x="581" y="922"/>
			<point x="554" y="949"/>
			<point x="521" y="949" type="curve" smooth="yes"/>
			<point x="498" y="949"/>
			<point x="477" y="935"/>
		</contour>
		<contour>
			<point x="650" y="1313" type="curve" smooth="yes"/>
			<point x="1072" y="363" type="line" smooth="yes"/>
			<point x="1081" y="342"/>
			<point x="1102" y="328"/>
			<point x="1126" y="328" type="curve" smooth="yes"/>
			<point x="1159" y="328"/>
			<point x="1186" y="355"/>
			<point x="1186" y="388" type="curve" smooth="yes"/>
			<point x="1186" y="397"/>
			<point x="1184" y="406"/>
			<point x="1180" y="414" type="curve" smooth="yes"/>
			<point x="758" y="1364" type="line" smooth="yes"/>
			<point x="749" y="1385"/>
			<point x="728" y="1399"/>
			<point x="704" y="1399" type="curve" smooth="yes"/>
			<point x="671" y="1399"/>
			<point x="644" y="1372"/>
			<point x="644" y="1339" type="curve" smooth="yes"/>
			<point x="644" y="1330"/>
			<point x="646" y="1321"/>
		</contour>
	</outline>
</glyph>
<glyph name="uni03A9" format="2">
	<advance width="1246"/>
	<unicode hex="03A9"/>
	<outline>
		<contour>
			<point x="624" y="481" type="curve" smooth="yes"/>
			<point x="403" y="481"/>
			<point x="224" y="660"/>
			<point x="224" y="881" type="curve" smooth="yes"/>
			<point x="224" y="1101"/>
			<point x="403" y="1280"/>
			<point x="624" y="1280" type="curve" smooth="yes"/>
			<point x="844" y="1280"/>
			<point x="1023" y="1101"/>
			<point x="1023" y="881" type="curve" smooth="yes"/>
			<point x="1023" y="660"/>
			<point x="844" y="481"/>
		</contour>
		<contour>
			<point x="624" y="361" type="curve" smooth="yes"/>
			<point x="910" y="361"/>
			<point x="1143" y="594"/>
			<point x="1143" y="881" type="curve" smooth="yes"/>
			<point x="1143" y="1167"/>
			<point x="910" y="1400"/>
			<point x="624" y="1400" type="curve" smooth="yes"/>
			<point x="337" y="1400"/>
			<point x="104" y="1167"/>
			<point x="104" y="881" type="curve" smooth="yes"/>
			<point x="104" y="594"/>
			<point x="337" y="361"/>
		</contour>
		<contour>
			<point x="1116" y="124" type="curve" smooth="yes"/>
			<point x="130" y="124" type="line" smooth="yes"/>
			<point x="97" y="124"/>
			<point x="70" y="97"/>
			<point x="70" y="64" type="curve" smooth="yes"/>
			<point x="70" y="31"/>
			<point x="97" y="4"/>
			<point x="130" y="4" type="curve" smooth="yes"/>
			<point x="1116" y="4" type="line" smooth="yes"/>
			<point x="1149" y="4"/>
			<point x="1176" y="31"/>
			<point x="1176" y="64" type="curve" smooth="yes"/>
			<point x="1176" y="97"/>
			<point x="1149" y="124"/>
		</contour>
	</outline>
</glyph>
<glyph name="pi" format="2">
	<advance width="1233"/>
	<unicode hex="03C0"/>
	<outline>
		<contour>
			<point x="407" y="60" type="curve" smooth="yes"/>
			<point x="407" y="591" type="line" smooth="yes"/>
			<point x="407" y="624"/>
			<point x="380" y="651"/>
			<point x="347" y="651" type="curve" smooth="yes"/>
			<point x="314" y="651"/>
			<point x="287" y="624"/>
			<point x="287" y="591" type="curve" smooth="yes"/>
			<point x="287" y="60" type="line" smooth="yes"/>
			<point x="287" y="27"/>
			<point x="314" y="0"/>
			<point x="347" y="0" type="curve" smooth="yes"/>
			<point x="380" y="0"/>
			<point x="407" y="27"/>
		</contour>
		<contour>
			<point x="886" y="1000" type="line"/>
			<point x="130" y="1000" type="line" smooth="yes"/>
			<point x="97" y="1000"/>
			<point x="70" y="973"/>
			<point x="70" y="940" type="curve" smooth="yes"/>
			<point x="70" y="907"/>
			<point x="97" y="880"/>
			<point x="130" y="880" type="curve" smooth="yes"/>
			<point x="886" y="880" type="line"/>
		</contour>
		<contour>
			<point x="1103" y="120" type="curve" smooth="yes"/>
			<point x="1016" y="120"/>
			<point x="946" y="190"/>
			<point x="946" y="277" type="curve" smooth="yes"/>
			<point x="946" y="940" type="line" smooth="yes"/>
			<point x="946" y="973"/>
			<point x="919" y="1000"/>
			<point x="886" y="1000" type="curve" smooth="yes"/>
			<point x="853" y="1000"/>
			<point x="826" y="973"/>
			<point x="826" y="940" type="curve" smooth="yes"/>
			<point x="826" y="277" type="line" smooth="yes"/>
			<point x="826" y="124"/>
			<point x="950" y="0"/>
			<point x="1103" y="0" type="curve" smooth="yes"/>
			<point x="1136" y="0"/>
			<point x="1163" y="27"/>
			<point x="1163" y="60" type="curve" smooth="yes"/>
			<point x="1163" y="93"/>
			<point x="1136" y="120"/>
		</contour>
	</outline>
</glyph>
<glyph name="Germandbls" format="2">
	<advance width="1170"/>
	<unicode hex="1E9E"/>
	<unicode hex="00DF"/>
	<outline>
		<contour>
			<point x="220" y="54" type="curve"/>
			<point x="220" y="1336" type="line"/>
			<point x="100" y="1336" type="line"/>
			<point x="100" y="54" type="line"/>
			<point x="100" y="20.863"/>
			<point x="126.863" y="-6"/>
			<point x="160" y="-6" type="curve"/>
			<point x="193.137" y="-6"/>
			<point x="220" y="20.863"/>
		</contour>
		<contour>
			<point x="564" y="640" type="curve"/>
			<point x="740" y="640" type="line"/>
			<point x="892.147" y="640"/>
			<point x="1000" y="532.147"/>
			<point x="1000" y="380" type="curve"/>
			<point x="1000" y="227.853"/>
			<point x="892.147" y="120"/>
			<point x="740" y="120" type="curve"/>
			<point x="434" y="120" type="line"/>
			<point x="400.863" y="120"/>
			<point x="374" y="93.137"/>
			<point x="374" y="60" type="curve"/>
			<point x="374" y="26.863"/>
			<point x="400.863" y="0"/>
			<point x="434" y="0" type="curve"/>
			<point x="740" y="0" type="line"/>
			<point x="950.053" y="0"/>
			<point x="1120" y="169.947"/>
			<point x="1120" y="380" type="curve"/>
			<point x="1120" y="590.053"/>
			<point x="950.053" y="760"/>
			<point x="740" y="760" type="curve"/>
			<point x="564" y="760" type="line"/>
			<point x="530.863" y="760"/>
			<point x="504" y="733.137"/>
			<point x="504" y="700" type="curve"/>
			<point x="504" y="666.863"/>
			<point x="530.863" y="640"/>
		</contour>
		<contour>
			<point x="946" y="1400" type="curve"/>
			<point x="160" y="1400" type="line"/>
			<point x="126.863" y="1400"/>
			<point x="100" y="1373.137"/>
			<point x="100" y="1340" type="curve"/>
			<point x="100" y="1306.863"/>
			<point x="126.863" y="1280"/>
			<point x="160" y="1280" type="curve"/>
			<point x="946" y="1280" type="line"/>
			<point x="979.137" y="1280"/>
			<point x="1006" y="1306.863"/>
			<point x="1006" y="1340" type="curve"/>
			<point x="1006" y="1373.137"/>
			<point x="979.137" y="1400"/>
		</contour>
		<contour>
			<point x="892.346" y="1366.384" type="curve"/>
			<point x="692.677" y="1078.17" type="line"/>
			<point x="685.944" y="1068.474"/>
			<point x="682" y="1056.698"/>
			<point x="682" y="1044" type="curve"/>
			<point x="682" y="1010.863"/>
			<point x="708.863" y="984"/>
			<point x="742" y="984" type="curve"/>
			<point x="762.44" y="984"/>
			<point x="780.492" y="994.22"/>
			<point x="791.323" y="1009.83" type="curve"/>
			<point x="990.152" y="1296.84" type="line"/>
			<point x="997.139" y="1306.649"/>
			<point x="1001.249" y="1318.65"/>
			<point x="1001.249" y="1331.611" type="curve"/>
			<point x="1001.249" y="1364.749"/>
			<point x="974.386" y="1391.611"/>
			<point x="941.249" y="1391.611" type="curve"/>
			<point x="921.073" y="1391.611"/>
			<point x="903.223" y="1381.653"/>
		</contour>
	</outline>
</glyph>
<glyph name="emdash" format="2">
	<advance width="1532"/>
	<unicode hex="2014"/>
	<outline>
		<contour>
			<point x="1372" y="760" type="curve"/>
			<point x="160" y="760" type="line"/>
			<point x="126.863" y="760"/>
			<point x="100" y="733.137"/>
			<point x="100" y="700" type="curve"/>
			<point x="100" y="666.863"/>
			<point x="126.863" y="640"/>
			<point x="160" y="640" type="curve"/>
			<point x="1372" y="640" type="line"/>
			<point x="1405.137" y="640"/>
			<point x="1432" y="666.863"/>
			<point x="1432" y="700" type="curve"/>
			<point x="1432" y="733.137"/>
			<point x="1405.137" y="760"/>
		</contour>
	</outline>
</glyph>
<glyph name="dagger" format="2">
	<advance width="848"/>
	<unicode hex="2020"/>
	<outline>
		<contour>
			<point x="160" y="1066" type="curve"/>
			<point x="245" y="1066" type="line"/>
			<point x="278.137" y="1066"/>
			<point x="305" y="1092.863"/>
			<point x="305" y="1126" type="curve"/>
			<point x="305" y="1159.137"/>
			<point x="278.137" y="1186"/>
			<point x="245" y="1186" type="curve"/>
			<point x="160" y="1186" type="line"/>
			<point x="126.863" y="1186"/>
			<point x="100" y="1159.137"/>
			<point x="100" y="1126" type="curve"/>
			<point x="100" y="1092.863"/>
			<point x="126.863" y="1066"/>
		</contour>
		<contour>
			<point x="484" y="593" type="curve"/>
			<point x="484" y="1340" type="line"/>
			<point x="484" y="1373.137"/>
			<point x="457.137" y="1400"/>
			<point x="424" y="1400" type="curve"/>
			<point x="390.863" y="1400"/>
			<point x="364" y="1373.137"/>
			<point x="364" y="1340" type="curve"/>
			<point x="364" y="593" type="line"/>
			<point x="364" y="559.863"/>
			<point x="390.863" y="533"/>
			<point x="424" y="533" type="curve"/>
			<point x="457.137" y="533"/>
			<point x="484" y="559.863"/>
		</contour>
		<contour>
			<point x="603" y="1066" type="curve"/>
			<point x="688" y="1066" type="line"/>
			<point x="721.137" y="1066"/>
			<point x="748" y="1092.863"/>
			<point x="748" y="1126" type="curve"/>
			<point x="748" y="1159.137"/>
			<point x="721.137" y="1186"/>
			<point x="688" y="1186" type="curve"/>
			<point x="603" y="1186" type="line"/>
			<point x="569.863" y="1186"/>
			<point x="543" y="1159.137"/>
			<point x="543" y="1126" type="curve"/>
			<point x="543" y="1092.863"/>
			<point x="569.863" y="1066"/>
		</contour>
	</outline>
</glyph>
<glyph name="daggerdbl" format="2">
	<advance width="848"/>
	<unicode hex="2021"/>
	<outline>
		<contour>
			<point x="484" y="593" type="curve"/>
			<point x="484" y="628" type="line"/>
			<point x="484" y="661.137"/>
			<point x="457.137" y="688"/>
			<point x="424" y="688" type="curve"/>
			<point x="390.863" y="688"/>
			<point x="364" y="661.137"/>
			<point x="364" y="628" type="curve"/>
			<point x="364" y="593" type="line"/>
			<point x="364" y="559.863"/>
			<point x="390.863" y="533"/>
			<point x="424" y="533" type="curve"/>
			<point x="457.137" y="533"/>
			<point x="484" y="559.863"/>
		</contour>
		<contour>
			<point x="160" y="747" type="curve"/>
			<point x="688" y="747" type="line"/>
			<point x="721.137" y="747"/>
			<point x="748" y="773.863"/>
			<point x="748" y="807" type="curve"/>
			<point x="748" y="840.137"/>
			<point x="721.137" y="867"/>
			<point x="688" y="867" type="curve"/>
			<point x="160" y="867" type="line"/>
			<point x="126.863" y="867"/>
			<point x="100" y="840.137"/>
			<point x="100" y="807" type="curve"/>
			<point x="100" y="773.863"/>
			<point x="126.863" y="747"/>
		</contour>
		<contour>
			<point x="160" y="1066" type="curve"/>
			<point x="245" y="1066" type="line"/>
			<point x="278.137" y="1066"/>
			<point x="305" y="1092.863"/>
			<point x="305" y="1126" type="curve"/>
			<point x="305" y="1159.137"/>
			<point x="278.137" y="1186"/>
			<point x="245" y="1186" type="curve"/>
			<point x="160" y="1186" type="line"/>
			<point x="126.863" y="1186"/>
			<point x="100" y="1159.137"/>
			<point x="100" y="1126" type="curve"/>
			<point x="100" y="1092.863"/>
			<point x="126.863" y="1066"/>
		</contour>
		<contour>
			<point x="484" y="986" type="curve"/>
			<point x="484" y="1340" type="line"/>
			<point x="484" y="1373.137"/>
			<point x="457.137" y="1400"/>
			<point x="424" y="1400" type="curve"/>
			<point x="390.863" y="1400"/>
			<point x="364" y="1373.137"/>
			<point x="364" y="1340" type="curve"/>
			<point x="364" y="986" type="line"/>
			<point x="364" y="952.863"/>
			<point x="390.863" y="926"/>
			<point x="424" y="926" type="curve"/>
			<point x="457.137" y="926"/>
			<point x="484" y="952.863"/>
		</contour>
		<contour>
			<point x="603" y="1066" type="curve"/>
			<point x="688" y="1066" type="line"/>
			<point x="721.137" y="1066"/>
			<point x="748" y="1092.863"/>
			<point x="748" y="1126" type="curve"/>
			<point x="748" y="1159.137"/>
			<point x="721.137" y="1186"/>
			<point x="688" y="1186" type="curve"/>
			<point x="603" y="1186" type="line"/>
			<point x="569.863" y="1186"/>
			<point x="543" y="1159.137"/>
			<point x="543" y="1126" type="curve"/>
			<point x="543" y="1092.863"/>
			<point x="569.863" y="1066"/>
		</contour>
	</outline>
</glyph>
<glyph name="perthousand" format="2">
	<advance width="1945"/>
	<unicode hex="2030"/>
	<outline>
		<component base="percent"/>
		<contour>
			<point x="1495" y="580" type="curve" smooth="yes"/>
			<point x="1622" y="580"/>
			<point x="1725" y="477"/>
			<point x="1725" y="350" type="curve" smooth="yes"/>
			<point x="1725" y="223"/>
			<point x="1622" y="120"/>
			<point x="1495" y="120" type="curve" smooth="yes"/>
			<point x="1462" y="120"/>
			<point x="1435" y="93"/>
			<point x="1435" y="60" type="curve" smooth="yes"/>
			<point x="1435" y="27"/>
			<point x="1462" y="0"/>
			<point x="1495" y="0" type="curve" smooth="yes"/>
			<point x="1688" y="0"/>
			<point x="1845" y="157"/>
			<point x="1845" y="350" type="curve" smooth="yes"/>
			<point x="1845" y="543"/>
			<point x="1688" y="700"/>
			<point x="1495" y="700" type="curve" smooth="yes"/>
			<point x="1462" y="700"/>
			<point x="1435" y="673"/>
			<point x="1435" y="640" type="curve" smooth="yes"/>
			<point x="1435" y="607"/>
			<point x="1462" y="580"/>
		</contour>
	</outline>
</glyph>
